<ttFont>
    <TTGlyph name=".notdef" xMin="162" yMin="-168" xMax="1674" yMax="1443">
      <contour>
        <pt x="604" y="142" on="1"/>
        <pt x="917" y="457" on="1"/>
        <pt x="1229" y="142" on="1"/>
        <pt x="1396" y="312" on="1"/>
        <pt x="1081" y="623" on="1"/>
        <pt x="1394" y="933" on="1"/>
        <pt x="1229" y="1101" on="1"/>
        <pt x="918" y="786" on="1"/>
        <pt x="607" y="1102" on="1"/>
        <pt x="442" y="932" on="1"/>
        <pt x="755" y="621" on="1"/>
        <pt x="440" y="310" on="1"/>
      </contour>
      <contour>
        <pt x="1674" y="1443" on="1"/>
        <pt x="1674" y="-168" on="1"/>
        <pt x="162" y="-168" on="1"/>
        <pt x="162" y="1443" on="1"/>
      </contour>
    </TTGlyph>
    <TTGlyph name="A" xMin="9" yMin="0" xMax="1491" yMax="1327">
      <contour>
        <pt x="988" y="145" on="1"/>
        <pt x="554" y="145" on="1"/>
        <pt x="646" y="408" on="1"/>
        <pt x="886" y="408" on="1"/>
        <pt x="531" y="1327" on="1"/>
        <pt x="962" y="1327" on="1"/>
        <pt x="1491" y="0" on="1"/>
        <pt x="1044" y="0" on="1"/>
      </contour>
      <contour>
        <pt x="436" y="0" on="1"/>
        <pt x="9" y="0" on="1"/>
        <pt x="483" y="1267" on="1"/>
        <pt x="679" y="740" on="1"/>
      </contour>
    </TTGlyph>
    <TTGlyph name="AE" xMin="9" yMin="0" xMax="2246" yMax="1327">
      <contour>
        <pt x="1449" y="530" on="1"/>
        <pt x="1449" y="0" on="1"/>
        <pt x="1007" y="0" on="1"/>
        <pt x="1007" y="1327" on="1"/>
        <pt x="1449" y="1327" on="1"/>
        <pt x="1449" y="797" on="1"/>
        <pt x="1891" y="797" on="1"/>
        <pt x="1891" y="530" on="1"/>
      </contour>
      <contour>
        <pt x="939" y="211" on="1"/>
        <pt x="560" y="211" on="1"/>
        <pt x="465" y="0" on="1"/>
        <pt x="9" y="0" on="1"/>
        <pt x="642" y="1327" on="1"/>
        <pt x="939" y="1327" on="1"/>
        <pt x="939" y="1051" on="1"/>
        <pt x="678" y="474" on="1"/>
        <pt x="939" y="474" on="1"/>
      </contour>
      <contour>
        <pt x="1516" y="1062" on="1"/>
        <pt x="1516" y="1327" on="1"/>
        <pt x="2246" y="1327" on="1"/>
        <pt x="2246" y="929" on="1"/>
        <pt x="1803" y="929" on="1"/>
        <pt x="1803" y="1062" on="1"/>
      </contour>
      <contour>
        <pt x="1516" y="0" on="1"/>
        <pt x="1516" y="265" on="1"/>
        <pt x="1803" y="265" on="1"/>
        <pt x="1803" y="398" on="1"/>
        <pt x="2246" y="398" on="1"/>
        <pt x="2246" y="0" on="1"/>
      </contour>
    </TTGlyph>
    <TTGlyph name="AEacute" xMin="9" yMin="0" xMax="2246" yMax="1767">
      <contour>
        <pt x="1449" y="530" on="1"/>
        <pt x="1449" y="0" on="1"/>
        <pt x="1007" y="0" on="1"/>
        <pt x="1007" y="1327" on="1"/>
        <pt x="1449" y="1327" on="1"/>
        <pt x="1449" y="797" on="1"/>
        <pt x="1891" y="797" on="1"/>
        <pt x="1891" y="530" on="1"/>
      </contour>
      <contour>
        <pt x="939" y="211" on="1"/>
        <pt x="560" y="211" on="1"/>
        <pt x="465" y="0" on="1"/>
        <pt x="9" y="0" on="1"/>
        <pt x="642" y="1327" on="1"/>
        <pt x="939" y="1327" on="1"/>
        <pt x="939" y="1051" on="1"/>
        <pt x="678" y="474" on="1"/>
        <pt x="939" y="474" on="1"/>
      </contour>
      <contour>
        <pt x="1516" y="1062" on="1"/>
        <pt x="1516" y="1327" on="1"/>
        <pt x="2246" y="1327" on="1"/>
        <pt x="2246" y="929" on="1"/>
        <pt x="1803" y="929" on="1"/>
        <pt x="1803" y="1062" on="1"/>
      </contour>
      <contour>
        <pt x="1516" y="0" on="1"/>
        <pt x="1516" y="265" on="1"/>
        <pt x="1803" y="265" on="1"/>
        <pt x="1803" y="398" on="1"/>
        <pt x="2246" y="398" on="1"/>
        <pt x="2246" y="0" on="1"/>
      </contour>
      <contour>
        <pt x="1522" y="1767" on="1"/>
        <pt x="1677" y="1689" on="1"/>
        <pt x="1630" y="1520" on="1"/>
        <pt x="1127" y="1405" on="1"/>
        <pt x="1076" y="1527" on="1"/>
      </contour>
    </TTGlyph>
    <TTGlyph name="Aacute" xMin="9" yMin="0" xMax="1491" yMax="1767">
      <contour>
        <pt x="988" y="145" on="1"/>
        <pt x="554" y="145" on="1"/>
        <pt x="646" y="408" on="1"/>
        <pt x="886" y="408" on="1"/>
        <pt x="531" y="1327" on="1"/>
        <pt x="962" y="1327" on="1"/>
        <pt x="1491" y="0" on="1"/>
        <pt x="1044" y="0" on="1"/>
      </contour>
      <contour>
        <pt x="436" y="0" on="1"/>
        <pt x="9" y="0" on="1"/>
        <pt x="483" y="1267" on="1"/>
        <pt x="679" y="740" on="1"/>
      </contour>
      <contour>
        <pt x="1032" y="1767" on="1"/>
        <pt x="1187" y="1689" on="1"/>
        <pt x="1140" y="1520" on="1"/>
        <pt x="637" y="1405" on="1"/>
        <pt x="586" y="1527" on="1"/>
      </contour>
    </TTGlyph>
    <TTGlyph name="Abreve" xMin="9" yMin="0" xMax="1491" yMax="1756">
      <contour>
        <pt x="988" y="145" on="1"/>
        <pt x="554" y="145" on="1"/>
        <pt x="646" y="408" on="1"/>
        <pt x="886" y="408" on="1"/>
        <pt x="531" y="1327" on="1"/>
        <pt x="962" y="1327" on="1"/>
        <pt x="1491" y="0" on="1"/>
        <pt x="1044" y="0" on="1"/>
      </contour>
      <contour>
        <pt x="436" y="0" on="1"/>
        <pt x="9" y="0" on="1"/>
        <pt x="483" y="1267" on="1"/>
        <pt x="679" y="740" on="1"/>
      </contour>
      <contour>
        <pt x="374" y="1717" on="1"/>
        <pt x="512" y="1756" on="1"/>
        <pt x="584" y="1604" on="1"/>
        <pt x="889" y="1604" on="1"/>
        <pt x="961" y="1756" on="1"/>
        <pt x="1099" y="1717" on="1"/>
        <pt x="1063" y="1536" on="1"/>
        <pt x="917" y="1392" on="1"/>
        <pt x="556" y="1392" on="1"/>
        <pt x="410" y="1536" on="1"/>
      </contour>
    </TTGlyph>
    <TTGlyph name="Acircumflex" xMin="9" yMin="0" xMax="1491" yMax="1732">
      <contour>
        <pt x="988" y="145" on="1"/>
        <pt x="554" y="145" on="1"/>
        <pt x="646" y="408" on="1"/>
        <pt x="886" y="408" on="1"/>
        <pt x="531" y="1327" on="1"/>
        <pt x="962" y="1327" on="1"/>
        <pt x="1491" y="0" on="1"/>
        <pt x="1044" y="0" on="1"/>
      </contour>
      <contour>
        <pt x="436" y="0" on="1"/>
        <pt x="9" y="0" on="1"/>
        <pt x="483" y="1267" on="1"/>
        <pt x="679" y="740" on="1"/>
      </contour>
      <contour>
        <pt x="619" y="1732" on="1"/>
        <pt x="871" y="1732" on="1"/>
        <pt x="1125" y="1472" on="1"/>
        <pt x="1049" y="1393" on="1"/>
        <pt x="746" y="1552" on="1"/>
        <pt x="440" y="1393" on="1"/>
        <pt x="363" y="1473" on="1"/>
      </contour>
    </TTGlyph>
    <TTGlyph name="Adieresis" xMin="9" yMin="0" xMax="1491" yMax="1682">
      <contour>
        <pt x="988" y="145" on="1"/>
        <pt x="554" y="145" on="1"/>
        <pt x="646" y="408" on="1"/>
        <pt x="886" y="408" on="1"/>
        <pt x="531" y="1327" on="1"/>
        <pt x="962" y="1327" on="1"/>
        <pt x="1491" y="0" on="1"/>
        <pt x="1044" y="0" on="1"/>
      </contour>
      <contour>
        <pt x="436" y="0" on="1"/>
        <pt x="9" y="0" on="1"/>
        <pt x="483" y="1267" on="1"/>
        <pt x="679" y="740" on="1"/>
      </contour>
      <contour>
        <pt x="313" y="1682" on="1"/>
        <pt x="649" y="1682" on="1"/>
        <pt x="649" y="1461" on="1"/>
        <pt x="313" y="1461" on="1"/>
      </contour>
      <contour>
        <pt x="843" y="1682" on="1"/>
        <pt x="1179" y="1682" on="1"/>
        <pt x="1179" y="1461" on="1"/>
        <pt x="843" y="1461" on="1"/>
      </contour>
    </TTGlyph>
    <TTGlyph name="Agrave" xMin="9" yMin="0" xMax="1491" yMax="1767">
      <contour>
        <pt x="988" y="145" on="1"/>
        <pt x="554" y="145" on="1"/>
        <pt x="646" y="408" on="1"/>
        <pt x="886" y="408" on="1"/>
        <pt x="531" y="1327" on="1"/>
        <pt x="962" y="1327" on="1"/>
        <pt x="1491" y="0" on="1"/>
        <pt x="1044" y="0" on="1"/>
      </contour>
      <contour>
        <pt x="436" y="0" on="1"/>
        <pt x="9" y="0" on="1"/>
        <pt x="483" y="1267" on="1"/>
        <pt x="679" y="740" on="1"/>
      </contour>
      <contour>
        <pt x="906" y="1527" on="1"/>
        <pt x="854" y="1405" on="1"/>
        <pt x="352" y="1520" on="1"/>
        <pt x="305" y="1689" on="1"/>
        <pt x="460" y="1767" on="1"/>
      </contour>
    </TTGlyph>
    <TTGlyph name="Amacron" xMin="9" yMin="0" xMax="1491" yMax="1651">
      <contour>
        <pt x="988" y="145" on="1"/>
        <pt x="554" y="145" on="1"/>
        <pt x="646" y="408" on="1"/>
        <pt x="886" y="408" on="1"/>
        <pt x="531" y="1327" on="1"/>
        <pt x="962" y="1327" on="1"/>
        <pt x="1491" y="0" on="1"/>
        <pt x="1044" y="0" on="1"/>
      </contour>
      <contour>
        <pt x="436" y="0" on="1"/>
        <pt x="9" y="0" on="1"/>
        <pt x="483" y="1267" on="1"/>
        <pt x="679" y="740" on="1"/>
      </contour>
      <contour>
        <pt x="383" y="1651" on="1"/>
        <pt x="1112" y="1651" on="1"/>
        <pt x="1112" y="1481" on="1"/>
        <pt x="383" y="1481" on="1"/>
      </contour>
    </TTGlyph>
    <TTGlyph name="Aogonek" xMin="9" yMin="-445" xMax="1491" yMax="1327">
      <contour>
        <pt x="988" y="145" on="1"/>
        <pt x="554" y="145" on="1"/>
        <pt x="646" y="408" on="1"/>
        <pt x="886" y="408" on="1"/>
        <pt x="531" y="1327" on="1"/>
        <pt x="962" y="1327" on="1"/>
        <pt x="1491" y="0" on="1"/>
        <pt x="1044" y="0" on="1"/>
      </contour>
      <contour>
        <pt x="436" y="0" on="1"/>
        <pt x="9" y="0" on="1"/>
        <pt x="483" y="1267" on="1"/>
        <pt x="679" y="740" on="1"/>
      </contour>
      <contour>
        <pt x="1491" y="-175" on="1"/>
        <pt x="1491" y="-445" on="1"/>
        <pt x="1209" y="-445" on="1"/>
        <pt x="1034" y="-245" on="1"/>
        <pt x="1034" y="-62" on="1"/>
        <pt x="1236" y="-62" on="1"/>
        <pt x="1236" y="-175" on="1"/>
      </contour>
    </TTGlyph>
    <TTGlyph name="Aring" xMin="9" yMin="0" xMax="1491" yMax="1767">
      <contour>
        <pt x="858" y="1386" on="1"/>
        <pt x="858" y="1612" on="1"/>
        <pt x="781" y="1612" on="1"/>
        <pt x="781" y="1767" on="1"/>
        <pt x="895" y="1767" on="1"/>
        <pt x="1034" y="1630" on="1"/>
        <pt x="1034" y="1401" on="1"/>
        <pt x="959" y="1327" on="1"/>
        <pt x="962" y="1327" on="1"/>
        <pt x="1491" y="0" on="1"/>
        <pt x="1044" y="0" on="1"/>
        <pt x="998" y="117" on="1"/>
        <pt x="544" y="117" on="1"/>
        <pt x="636" y="380" on="1"/>
        <pt x="897" y="380" on="1"/>
        <pt x="531" y="1327" on="1"/>
        <pt x="532" y="1327" on="1"/>
        <pt x="458" y="1401" on="1"/>
        <pt x="458" y="1630" on="1"/>
        <pt x="596" y="1767" on="1"/>
        <pt x="711" y="1767" on="1"/>
        <pt x="711" y="1612" on="1"/>
        <pt x="635" y="1612" on="1"/>
        <pt x="635" y="1386" on="1"/>
      </contour>
      <contour>
        <pt x="436" y="0" on="1"/>
        <pt x="9" y="0" on="1"/>
        <pt x="483" y="1267" on="1"/>
        <pt x="679" y="740" on="1"/>
      </contour>
    </TTGlyph>
    <TTGlyph name="Atilde" xMin="9" yMin="0" xMax="1491" yMax="1727">
      <contour>
        <pt x="988" y="145" on="1"/>
        <pt x="554" y="145" on="1"/>
        <pt x="646" y="408" on="1"/>
        <pt x="886" y="408" on="1"/>
        <pt x="531" y="1327" on="1"/>
        <pt x="962" y="1327" on="1"/>
        <pt x="1491" y="0" on="1"/>
        <pt x="1044" y="0" on="1"/>
      </contour>
      <contour>
        <pt x="436" y="0" on="1"/>
        <pt x="9" y="0" on="1"/>
        <pt x="483" y="1267" on="1"/>
        <pt x="679" y="740" on="1"/>
      </contour>
      <contour>
        <pt x="931" y="1610" on="1"/>
        <pt x="1112" y="1717" on="1"/>
        <pt x="1176" y="1639" on="1"/>
        <pt x="969" y="1425" on="1"/>
        <pt x="764" y="1425" on="1"/>
        <pt x="604" y="1541" on="1"/>
        <pt x="563" y="1541" on="1"/>
        <pt x="382" y="1435" on="1"/>
        <pt x="318" y="1513" on="1"/>
        <pt x="525" y="1727" on="1"/>
        <pt x="730" y="1727" on="1"/>
        <pt x="890" y="1610" on="1"/>
      </contour>
    </TTGlyph>
    <TTGlyph name="B" xMin="117" yMin="0" xMax="1408" yMax="1327">
      <contour>
        <pt x="957" y="1062" on="1"/>
        <pt x="629" y="1062" on="1"/>
        <pt x="629" y="1327" on="1"/>
        <pt x="1142" y="1327" on="1"/>
        <pt x="1408" y="1062" on="1"/>
        <pt x="1408" y="792" on="1"/>
        <pt x="1275" y="659" on="1"/>
        <pt x="1408" y="526" on="1"/>
        <pt x="1408" y="265" on="1"/>
        <pt x="1142" y="0" on="1"/>
        <pt x="629" y="0" on="1"/>
        <pt x="629" y="265" on="1"/>
        <pt x="957" y="265" on="1"/>
        <pt x="957" y="548" on="1"/>
        <pt x="629" y="548" on="1"/>
        <pt x="629" y="779" on="1"/>
        <pt x="957" y="779" on="1"/>
      </contour>
      <contour>
        <pt x="117" y="1327" on="1"/>
        <pt x="559" y="1327" on="1"/>
        <pt x="559" y="0" on="1"/>
        <pt x="117" y="0" on="1"/>
      </contour>
    </TTGlyph>
    <TTGlyph name="C" xMin="97" yMin="0" xMax="1345" yMax="1327">
      <contour>
        <pt x="539" y="0" on="1"/>
        <pt x="363" y="0" on="1"/>
        <pt x="97" y="265" on="1"/>
        <pt x="97" y="1062" on="1"/>
        <pt x="363" y="1327" on="1"/>
        <pt x="539" y="1327" on="1"/>
      </contour>
      <contour>
        <pt x="609" y="1062" on="1"/>
        <pt x="609" y="1327" on="1"/>
        <pt x="1080" y="1327" on="1"/>
        <pt x="1345" y="1062" on="1"/>
        <pt x="1345" y="795" on="1"/>
        <pt x="903" y="795" on="1"/>
        <pt x="903" y="1062" on="1"/>
      </contour>
      <contour>
        <pt x="609" y="0" on="1"/>
        <pt x="609" y="265" on="1"/>
        <pt x="903" y="265" on="1"/>
        <pt x="903" y="459" on="1"/>
        <pt x="1345" y="459" on="1"/>
        <pt x="1345" y="265" on="1"/>
        <pt x="1080" y="0" on="1"/>
      </contour>
    </TTGlyph>
    <TTGlyph name="Cacute" xMin="97" yMin="0" xMax="1345" yMax="1767">
      <contour>
        <pt x="539" y="0" on="1"/>
        <pt x="363" y="0" on="1"/>
        <pt x="97" y="265" on="1"/>
        <pt x="97" y="1062" on="1"/>
        <pt x="363" y="1327" on="1"/>
        <pt x="539" y="1327" on="1"/>
      </contour>
      <contour>
        <pt x="609" y="1062" on="1"/>
        <pt x="609" y="1327" on="1"/>
        <pt x="1080" y="1327" on="1"/>
        <pt x="1345" y="1062" on="1"/>
        <pt x="1345" y="795" on="1"/>
        <pt x="903" y="795" on="1"/>
        <pt x="903" y="1062" on="1"/>
      </contour>
      <contour>
        <pt x="609" y="0" on="1"/>
        <pt x="609" y="265" on="1"/>
        <pt x="903" y="265" on="1"/>
        <pt x="903" y="459" on="1"/>
        <pt x="1345" y="459" on="1"/>
        <pt x="1345" y="265" on="1"/>
        <pt x="1080" y="0" on="1"/>
      </contour>
      <contour>
        <pt x="1003" y="1767" on="1"/>
        <pt x="1158" y="1689" on="1"/>
        <pt x="1111" y="1520" on="1"/>
        <pt x="608" y="1405" on="1"/>
        <pt x="557" y="1527" on="1"/>
      </contour>
    </TTGlyph>
    <TTGlyph name="Ccaron" xMin="97" yMin="0" xMax="1345" yMax="1732">
      <contour>
        <pt x="539" y="0" on="1"/>
        <pt x="363" y="0" on="1"/>
        <pt x="97" y="265" on="1"/>
        <pt x="97" y="1062" on="1"/>
        <pt x="363" y="1327" on="1"/>
        <pt x="539" y="1327" on="1"/>
      </contour>
      <contour>
        <pt x="609" y="1062" on="1"/>
        <pt x="609" y="1327" on="1"/>
        <pt x="1080" y="1327" on="1"/>
        <pt x="1345" y="1062" on="1"/>
        <pt x="1345" y="795" on="1"/>
        <pt x="903" y="795" on="1"/>
        <pt x="903" y="1062" on="1"/>
      </contour>
      <contour>
        <pt x="609" y="0" on="1"/>
        <pt x="609" y="265" on="1"/>
        <pt x="903" y="265" on="1"/>
        <pt x="903" y="459" on="1"/>
        <pt x="1345" y="459" on="1"/>
        <pt x="1345" y="265" on="1"/>
        <pt x="1080" y="0" on="1"/>
      </contour>
      <contour>
        <pt x="844" y="1393" on="1"/>
        <pt x="592" y="1393" on="1"/>
        <pt x="338" y="1654" on="1"/>
        <pt x="415" y="1732" on="1"/>
        <pt x="717" y="1574" on="1"/>
        <pt x="1023" y="1732" on="1"/>
        <pt x="1101" y="1653" on="1"/>
      </contour>
    </TTGlyph>
    <TTGlyph name="Ccedilla" xMin="97" yMin="-507" xMax="1345" yMax="1327">
      <contour>
        <pt x="539" y="0" on="1"/>
        <pt x="363" y="0" on="1"/>
        <pt x="97" y="265" on="1"/>
        <pt x="97" y="1062" on="1"/>
        <pt x="363" y="1327" on="1"/>
        <pt x="539" y="1327" on="1"/>
      </contour>
      <contour>
        <pt x="609" y="1062" on="1"/>
        <pt x="609" y="1327" on="1"/>
        <pt x="1080" y="1327" on="1"/>
        <pt x="1345" y="1062" on="1"/>
        <pt x="1345" y="795" on="1"/>
        <pt x="903" y="795" on="1"/>
        <pt x="903" y="1062" on="1"/>
      </contour>
      <contour>
        <pt x="609" y="0" on="1"/>
        <pt x="609" y="265" on="1"/>
        <pt x="903" y="265" on="1"/>
        <pt x="903" y="459" on="1"/>
        <pt x="1345" y="459" on="1"/>
        <pt x="1345" y="265" on="1"/>
        <pt x="1080" y="0" on="1"/>
      </contour>
      <contour>
        <pt x="722" y="-225" on="1"/>
        <pt x="722" y="-62" on="1"/>
        <pt x="924" y="-62" on="1"/>
        <pt x="924" y="-307" on="1"/>
        <pt x="749" y="-507" on="1"/>
        <pt x="437" y="-507" on="1"/>
        <pt x="437" y="-225" on="1"/>
      </contour>
    </TTGlyph>
    <TTGlyph name="Ccircumflex" xMin="97" yMin="0" xMax="1345" yMax="1732">
      <contour>
        <pt x="539" y="0" on="1"/>
        <pt x="363" y="0" on="1"/>
        <pt x="97" y="265" on="1"/>
        <pt x="97" y="1062" on="1"/>
        <pt x="363" y="1327" on="1"/>
        <pt x="539" y="1327" on="1"/>
      </contour>
      <contour>
        <pt x="609" y="1062" on="1"/>
        <pt x="609" y="1327" on="1"/>
        <pt x="1080" y="1327" on="1"/>
        <pt x="1345" y="1062" on="1"/>
        <pt x="1345" y="795" on="1"/>
        <pt x="903" y="795" on="1"/>
        <pt x="903" y="1062" on="1"/>
      </contour>
      <contour>
        <pt x="609" y="0" on="1"/>
        <pt x="609" y="265" on="1"/>
        <pt x="903" y="265" on="1"/>
        <pt x="903" y="459" on="1"/>
        <pt x="1345" y="459" on="1"/>
        <pt x="1345" y="265" on="1"/>
        <pt x="1080" y="0" on="1"/>
      </contour>
      <contour>
        <pt x="590" y="1732" on="1"/>
        <pt x="842" y="1732" on="1"/>
        <pt x="1096" y="1472" on="1"/>
        <pt x="1020" y="1393" on="1"/>
        <pt x="717" y="1552" on="1"/>
        <pt x="411" y="1393" on="1"/>
        <pt x="334" y="1473" on="1"/>
      </contour>
    </TTGlyph>
    <TTGlyph name="Cdotaccent" xMin="97" yMin="0" xMax="1345" yMax="1682">
      <contour>
        <pt x="539" y="0" on="1"/>
        <pt x="363" y="0" on="1"/>
        <pt x="97" y="265" on="1"/>
        <pt x="97" y="1062" on="1"/>
        <pt x="363" y="1327" on="1"/>
        <pt x="539" y="1327" on="1"/>
      </contour>
      <contour>
        <pt x="609" y="1062" on="1"/>
        <pt x="609" y="1327" on="1"/>
        <pt x="1080" y="1327" on="1"/>
        <pt x="1345" y="1062" on="1"/>
        <pt x="1345" y="795" on="1"/>
        <pt x="903" y="795" on="1"/>
        <pt x="903" y="1062" on="1"/>
      </contour>
      <contour>
        <pt x="609" y="0" on="1"/>
        <pt x="609" y="265" on="1"/>
        <pt x="903" y="265" on="1"/>
        <pt x="903" y="459" on="1"/>
        <pt x="1345" y="459" on="1"/>
        <pt x="1345" y="265" on="1"/>
        <pt x="1080" y="0" on="1"/>
      </contour>
      <contour>
        <pt x="551" y="1682" on="1"/>
        <pt x="887" y="1682" on="1"/>
        <pt x="887" y="1461" on="1"/>
        <pt x="551" y="1461" on="1"/>
      </contour>
    </TTGlyph>
    <TTGlyph name="D" xMin="117" yMin="0" xMax="1400" yMax="1327">
      <contour>
        <pt x="629" y="0" on="1"/>
        <pt x="629" y="265" on="1"/>
        <pt x="957" y="265" on="1"/>
        <pt x="957" y="1062" on="1"/>
        <pt x="629" y="1062" on="1"/>
        <pt x="629" y="1327" on="1"/>
        <pt x="1134" y="1327" on="1"/>
        <pt x="1400" y="1062" on="1"/>
        <pt x="1400" y="265" on="1"/>
        <pt x="1134" y="0" on="1"/>
      </contour>
      <contour>
        <pt x="117" y="1327" on="1"/>
        <pt x="559" y="1327" on="1"/>
        <pt x="559" y="0" on="1"/>
        <pt x="117" y="0" on="1"/>
      </contour>
    </TTGlyph>
    <TTGlyph name="Dcaron" xMin="117" yMin="0" xMax="1400" yMax="1732">
      <contour>
        <pt x="629" y="0" on="1"/>
        <pt x="629" y="265" on="1"/>
        <pt x="957" y="265" on="1"/>
        <pt x="957" y="1062" on="1"/>
        <pt x="629" y="1062" on="1"/>
        <pt x="629" y="1327" on="1"/>
        <pt x="1134" y="1327" on="1"/>
        <pt x="1400" y="1062" on="1"/>
        <pt x="1400" y="265" on="1"/>
        <pt x="1134" y="0" on="1"/>
      </contour>
      <contour>
        <pt x="117" y="1327" on="1"/>
        <pt x="559" y="1327" on="1"/>
        <pt x="559" y="0" on="1"/>
        <pt x="117" y="0" on="1"/>
      </contour>
      <contour>
        <pt x="854" y="1393" on="1"/>
        <pt x="602" y="1393" on="1"/>
        <pt x="348" y="1654" on="1"/>
        <pt x="425" y="1732" on="1"/>
        <pt x="727" y="1574" on="1"/>
        <pt x="1033" y="1732" on="1"/>
        <pt x="1111" y="1653" on="1"/>
      </contour>
    </TTGlyph>
    <TTGlyph name="Dcroat" xMin="29" yMin="0" xMax="1400" yMax="1327">
      <contour>
        <pt x="629" y="0" on="1"/>
        <pt x="629" y="265" on="1"/>
        <pt x="957" y="265" on="1"/>
        <pt x="957" y="1062" on="1"/>
        <pt x="629" y="1062" on="1"/>
        <pt x="629" y="1327" on="1"/>
        <pt x="1134" y="1327" on="1"/>
        <pt x="1400" y="1062" on="1"/>
        <pt x="1400" y="265" on="1"/>
        <pt x="1134" y="0" on="1"/>
      </contour>
      <contour>
        <pt x="29" y="757" on="1"/>
        <pt x="117" y="757" on="1"/>
        <pt x="117" y="1327" on="1"/>
        <pt x="559" y="1327" on="1"/>
        <pt x="559" y="757" on="1"/>
        <pt x="774" y="757" on="1"/>
        <pt x="774" y="570" on="1"/>
        <pt x="559" y="570" on="1"/>
        <pt x="559" y="0" on="1"/>
        <pt x="117" y="0" on="1"/>
        <pt x="117" y="570" on="1"/>
        <pt x="29" y="570" on="1"/>
      </contour>
    </TTGlyph>
    <TTGlyph name="Delta" xMin="9" yMin="0" xMax="1491" yMax="1327">
      <contour>
        <pt x="602" y="263" on="1"/>
        <pt x="942" y="263" on="1"/>
        <pt x="532" y="1327" on="1"/>
        <pt x="963" y="1327" on="1"/>
        <pt x="1491" y="0" on="1"/>
        <pt x="510" y="0" on="1"/>
      </contour>
      <contour>
        <pt x="436" y="0" on="1"/>
        <pt x="9" y="0" on="1"/>
        <pt x="484" y="1267" on="1"/>
        <pt x="680" y="740" on="1"/>
      </contour>
    </TTGlyph>
    <TTGlyph name="E" xMin="117" yMin="0" xMax="1320" yMax="1327">
      <contour>
        <pt x="559" y="545" on="1"/>
        <pt x="559" y="0" on="1"/>
        <pt x="117" y="0" on="1"/>
        <pt x="117" y="1327" on="1"/>
        <pt x="559" y="1327" on="1"/>
        <pt x="559" y="801" on="1"/>
        <pt x="982" y="801" on="1"/>
        <pt x="982" y="545" on="1"/>
      </contour>
      <contour>
        <pt x="629" y="1070" on="1"/>
        <pt x="629" y="1327" on="1"/>
        <pt x="1320" y="1327" on="1"/>
        <pt x="1320" y="943" on="1"/>
        <pt x="904" y="943" on="1"/>
        <pt x="904" y="1070" on="1"/>
      </contour>
      <contour>
        <pt x="629" y="0" on="1"/>
        <pt x="629" y="265" on="1"/>
        <pt x="878" y="265" on="1"/>
        <pt x="878" y="398" on="1"/>
        <pt x="1320" y="398" on="1"/>
        <pt x="1320" y="0" on="1"/>
      </contour>
    </TTGlyph>
    <TTGlyph name="Eacute" xMin="117" yMin="0" xMax="1320" yMax="1767">
      <contour>
        <pt x="559" y="545" on="1"/>
        <pt x="559" y="0" on="1"/>
        <pt x="117" y="0" on="1"/>
        <pt x="117" y="1327" on="1"/>
        <pt x="559" y="1327" on="1"/>
        <pt x="559" y="801" on="1"/>
        <pt x="982" y="801" on="1"/>
        <pt x="982" y="545" on="1"/>
      </contour>
      <contour>
        <pt x="629" y="1070" on="1"/>
        <pt x="629" y="1327" on="1"/>
        <pt x="1320" y="1327" on="1"/>
        <pt x="1320" y="943" on="1"/>
        <pt x="904" y="943" on="1"/>
        <pt x="904" y="1070" on="1"/>
      </contour>
      <contour>
        <pt x="629" y="0" on="1"/>
        <pt x="629" y="265" on="1"/>
        <pt x="878" y="265" on="1"/>
        <pt x="878" y="398" on="1"/>
        <pt x="1320" y="398" on="1"/>
        <pt x="1320" y="0" on="1"/>
      </contour>
      <contour>
        <pt x="1021" y="1767" on="1"/>
        <pt x="1176" y="1689" on="1"/>
        <pt x="1129" y="1520" on="1"/>
        <pt x="626" y="1405" on="1"/>
        <pt x="575" y="1527" on="1"/>
      </contour>
    </TTGlyph>
    <TTGlyph name="Ebreve" xMin="117" yMin="0" xMax="1320" yMax="1756">
      <contour>
        <pt x="559" y="545" on="1"/>
        <pt x="559" y="0" on="1"/>
        <pt x="117" y="0" on="1"/>
        <pt x="117" y="1327" on="1"/>
        <pt x="559" y="1327" on="1"/>
        <pt x="559" y="801" on="1"/>
        <pt x="982" y="801" on="1"/>
        <pt x="982" y="545" on="1"/>
      </contour>
      <contour>
        <pt x="629" y="1070" on="1"/>
        <pt x="629" y="1327" on="1"/>
        <pt x="1320" y="1327" on="1"/>
        <pt x="1320" y="943" on="1"/>
        <pt x="904" y="943" on="1"/>
        <pt x="904" y="1070" on="1"/>
      </contour>
      <contour>
        <pt x="629" y="0" on="1"/>
        <pt x="629" y="265" on="1"/>
        <pt x="878" y="265" on="1"/>
        <pt x="878" y="398" on="1"/>
        <pt x="1320" y="398" on="1"/>
        <pt x="1320" y="0" on="1"/>
      </contour>
      <contour>
        <pt x="363" y="1717" on="1"/>
        <pt x="501" y="1756" on="1"/>
        <pt x="573" y="1604" on="1"/>
        <pt x="878" y="1604" on="1"/>
        <pt x="950" y="1756" on="1"/>
        <pt x="1088" y="1717" on="1"/>
        <pt x="1052" y="1536" on="1"/>
        <pt x="906" y="1392" on="1"/>
        <pt x="545" y="1392" on="1"/>
        <pt x="399" y="1536" on="1"/>
      </contour>
    </TTGlyph>
    <TTGlyph name="Ecaron" xMin="117" yMin="0" xMax="1320" yMax="1732">
      <contour>
        <pt x="559" y="545" on="1"/>
        <pt x="559" y="0" on="1"/>
        <pt x="117" y="0" on="1"/>
        <pt x="117" y="1327" on="1"/>
        <pt x="559" y="1327" on="1"/>
        <pt x="559" y="801" on="1"/>
        <pt x="982" y="801" on="1"/>
        <pt x="982" y="545" on="1"/>
      </contour>
      <contour>
        <pt x="629" y="1070" on="1"/>
        <pt x="629" y="1327" on="1"/>
        <pt x="1320" y="1327" on="1"/>
        <pt x="1320" y="943" on="1"/>
        <pt x="904" y="943" on="1"/>
        <pt x="904" y="1070" on="1"/>
      </contour>
      <contour>
        <pt x="629" y="0" on="1"/>
        <pt x="629" y="265" on="1"/>
        <pt x="878" y="265" on="1"/>
        <pt x="878" y="398" on="1"/>
        <pt x="1320" y="398" on="1"/>
        <pt x="1320" y="0" on="1"/>
      </contour>
      <contour>
        <pt x="862" y="1393" on="1"/>
        <pt x="610" y="1393" on="1"/>
        <pt x="356" y="1654" on="1"/>
        <pt x="433" y="1732" on="1"/>
        <pt x="735" y="1574" on="1"/>
        <pt x="1041" y="1732" on="1"/>
        <pt x="1119" y="1653" on="1"/>
      </contour>
    </TTGlyph>
    <TTGlyph name="Ecircumflex" xMin="117" yMin="0" xMax="1320" yMax="1732">
      <contour>
        <pt x="559" y="545" on="1"/>
        <pt x="559" y="0" on="1"/>
        <pt x="117" y="0" on="1"/>
        <pt x="117" y="1327" on="1"/>
        <pt x="559" y="1327" on="1"/>
        <pt x="559" y="801" on="1"/>
        <pt x="982" y="801" on="1"/>
        <pt x="982" y="545" on="1"/>
      </contour>
      <contour>
        <pt x="629" y="1070" on="1"/>
        <pt x="629" y="1327" on="1"/>
        <pt x="1320" y="1327" on="1"/>
        <pt x="1320" y="943" on="1"/>
        <pt x="904" y="943" on="1"/>
        <pt x="904" y="1070" on="1"/>
      </contour>
      <contour>
        <pt x="629" y="0" on="1"/>
        <pt x="629" y="265" on="1"/>
        <pt x="878" y="265" on="1"/>
        <pt x="878" y="398" on="1"/>
        <pt x="1320" y="398" on="1"/>
        <pt x="1320" y="0" on="1"/>
      </contour>
      <contour>
        <pt x="608" y="1732" on="1"/>
        <pt x="860" y="1732" on="1"/>
        <pt x="1114" y="1472" on="1"/>
        <pt x="1038" y="1393" on="1"/>
        <pt x="735" y="1552" on="1"/>
        <pt x="429" y="1393" on="1"/>
        <pt x="352" y="1473" on="1"/>
      </contour>
    </TTGlyph>
    <TTGlyph name="Edieresis" xMin="117" yMin="0" xMax="1320" yMax="1682">
      <contour>
        <pt x="559" y="545" on="1"/>
        <pt x="559" y="0" on="1"/>
        <pt x="117" y="0" on="1"/>
        <pt x="117" y="1327" on="1"/>
        <pt x="559" y="1327" on="1"/>
        <pt x="559" y="801" on="1"/>
        <pt x="982" y="801" on="1"/>
        <pt x="982" y="545" on="1"/>
      </contour>
      <contour>
        <pt x="629" y="1070" on="1"/>
        <pt x="629" y="1327" on="1"/>
        <pt x="1320" y="1327" on="1"/>
        <pt x="1320" y="943" on="1"/>
        <pt x="904" y="943" on="1"/>
        <pt x="904" y="1070" on="1"/>
      </contour>
      <contour>
        <pt x="629" y="0" on="1"/>
        <pt x="629" y="265" on="1"/>
        <pt x="878" y="265" on="1"/>
        <pt x="878" y="398" on="1"/>
        <pt x="1320" y="398" on="1"/>
        <pt x="1320" y="0" on="1"/>
      </contour>
      <contour>
        <pt x="302" y="1682" on="1"/>
        <pt x="638" y="1682" on="1"/>
        <pt x="638" y="1461" on="1"/>
        <pt x="302" y="1461" on="1"/>
      </contour>
      <contour>
        <pt x="832" y="1682" on="1"/>
        <pt x="1168" y="1682" on="1"/>
        <pt x="1168" y="1461" on="1"/>
        <pt x="832" y="1461" on="1"/>
      </contour>
    </TTGlyph>
    <TTGlyph name="Edotaccent" xMin="117" yMin="0" xMax="1320" yMax="1682">
      <contour>
        <pt x="559" y="545" on="1"/>
        <pt x="559" y="0" on="1"/>
        <pt x="117" y="0" on="1"/>
        <pt x="117" y="1327" on="1"/>
        <pt x="559" y="1327" on="1"/>
        <pt x="559" y="801" on="1"/>
        <pt x="982" y="801" on="1"/>
        <pt x="982" y="545" on="1"/>
      </contour>
      <contour>
        <pt x="629" y="1070" on="1"/>
        <pt x="629" y="1327" on="1"/>
        <pt x="1320" y="1327" on="1"/>
        <pt x="1320" y="943" on="1"/>
        <pt x="904" y="943" on="1"/>
        <pt x="904" y="1070" on="1"/>
      </contour>
      <contour>
        <pt x="629" y="0" on="1"/>
        <pt x="629" y="265" on="1"/>
        <pt x="878" y="265" on="1"/>
        <pt x="878" y="398" on="1"/>
        <pt x="1320" y="398" on="1"/>
        <pt x="1320" y="0" on="1"/>
      </contour>
      <contour>
        <pt x="569" y="1682" on="1"/>
        <pt x="905" y="1682" on="1"/>
        <pt x="905" y="1461" on="1"/>
        <pt x="569" y="1461" on="1"/>
      </contour>
    </TTGlyph>
    <TTGlyph name="Egrave" xMin="117" yMin="0" xMax="1320" yMax="1767">
      <contour>
        <pt x="559" y="545" on="1"/>
        <pt x="559" y="0" on="1"/>
        <pt x="117" y="0" on="1"/>
        <pt x="117" y="1327" on="1"/>
        <pt x="559" y="1327" on="1"/>
        <pt x="559" y="801" on="1"/>
        <pt x="982" y="801" on="1"/>
        <pt x="982" y="545" on="1"/>
      </contour>
      <contour>
        <pt x="629" y="1070" on="1"/>
        <pt x="629" y="1327" on="1"/>
        <pt x="1320" y="1327" on="1"/>
        <pt x="1320" y="943" on="1"/>
        <pt x="904" y="943" on="1"/>
        <pt x="904" y="1070" on="1"/>
      </contour>
      <contour>
        <pt x="629" y="0" on="1"/>
        <pt x="629" y="265" on="1"/>
        <pt x="878" y="265" on="1"/>
        <pt x="878" y="398" on="1"/>
        <pt x="1320" y="398" on="1"/>
        <pt x="1320" y="0" on="1"/>
      </contour>
      <contour>
        <pt x="895" y="1527" on="1"/>
        <pt x="843" y="1405" on="1"/>
        <pt x="341" y="1520" on="1"/>
        <pt x="294" y="1689" on="1"/>
        <pt x="449" y="1767" on="1"/>
      </contour>
    </TTGlyph>
    <TTGlyph name="Emacron" xMin="117" yMin="0" xMax="1320" yMax="1651">
      <contour>
        <pt x="559" y="545" on="1"/>
        <pt x="559" y="0" on="1"/>
        <pt x="117" y="0" on="1"/>
        <pt x="117" y="1327" on="1"/>
        <pt x="559" y="1327" on="1"/>
        <pt x="559" y="801" on="1"/>
        <pt x="982" y="801" on="1"/>
        <pt x="982" y="545" on="1"/>
      </contour>
      <contour>
        <pt x="629" y="1070" on="1"/>
        <pt x="629" y="1327" on="1"/>
        <pt x="1320" y="1327" on="1"/>
        <pt x="1320" y="943" on="1"/>
        <pt x="904" y="943" on="1"/>
        <pt x="904" y="1070" on="1"/>
      </contour>
      <contour>
        <pt x="629" y="0" on="1"/>
        <pt x="629" y="265" on="1"/>
        <pt x="878" y="265" on="1"/>
        <pt x="878" y="398" on="1"/>
        <pt x="1320" y="398" on="1"/>
        <pt x="1320" y="0" on="1"/>
      </contour>
      <contour>
        <pt x="372" y="1651" on="1"/>
        <pt x="1101" y="1651" on="1"/>
        <pt x="1101" y="1481" on="1"/>
        <pt x="372" y="1481" on="1"/>
      </contour>
    </TTGlyph>
    <TTGlyph name="Eng" xMin="117" yMin="-444" xMax="1391" yMax="1327">
      <contour>
        <pt x="1391" y="1327" on="1"/>
        <pt x="1391" y="-109" on="1"/>
        <pt x="1126" y="-444" on="1"/>
        <pt x="680" y="-444" on="1"/>
        <pt x="680" y="-179" on="1"/>
        <pt x="1006" y="-179" on="1"/>
        <pt x="1006" y="1327" on="1"/>
      </contour>
      <contour>
        <pt x="939" y="742" on="1"/>
        <pt x="939" y="0" on="1"/>
        <pt x="117" y="1327" on="1"/>
        <pt x="584" y="1327" on="1"/>
      </contour>
      <contour>
        <pt x="117" y="0" on="1"/>
        <pt x="117" y="1201" on="1"/>
        <pt x="502" y="578" on="1"/>
        <pt x="502" y="0" on="1"/>
      </contour>
    </TTGlyph>
    <TTGlyph name="Eogonek" xMin="117" yMin="-445" xMax="1320" yMax="1327">
      <contour>
        <pt x="559" y="545" on="1"/>
        <pt x="559" y="0" on="1"/>
        <pt x="117" y="0" on="1"/>
        <pt x="117" y="1327" on="1"/>
        <pt x="559" y="1327" on="1"/>
        <pt x="559" y="801" on="1"/>
        <pt x="982" y="801" on="1"/>
        <pt x="982" y="545" on="1"/>
      </contour>
      <contour>
        <pt x="629" y="1070" on="1"/>
        <pt x="629" y="1327" on="1"/>
        <pt x="1320" y="1327" on="1"/>
        <pt x="1320" y="943" on="1"/>
        <pt x="904" y="943" on="1"/>
        <pt x="904" y="1070" on="1"/>
      </contour>
      <contour>
        <pt x="629" y="0" on="1"/>
        <pt x="629" y="265" on="1"/>
        <pt x="878" y="265" on="1"/>
        <pt x="878" y="398" on="1"/>
        <pt x="1320" y="398" on="1"/>
        <pt x="1320" y="0" on="1"/>
      </contour>
      <contour>
        <pt x="1320" y="-175" on="1"/>
        <pt x="1320" y="-445" on="1"/>
        <pt x="1038" y="-445" on="1"/>
        <pt x="863" y="-245" on="1"/>
        <pt x="863" y="-62" on="1"/>
        <pt x="1065" y="-62" on="1"/>
        <pt x="1065" y="-175" on="1"/>
      </contour>
    </TTGlyph>
    <TTGlyph name="Eth" xMin="29" yMin="0" xMax="1400" yMax="1327">
      <contour>
        <pt x="629" y="0" on="1"/>
        <pt x="629" y="265" on="1"/>
        <pt x="957" y="265" on="1"/>
        <pt x="957" y="1062" on="1"/>
        <pt x="629" y="1062" on="1"/>
        <pt x="629" y="1327" on="1"/>
        <pt x="1134" y="1327" on="1"/>
        <pt x="1400" y="1062" on="1"/>
        <pt x="1400" y="265" on="1"/>
        <pt x="1134" y="0" on="1"/>
      </contour>
      <contour>
        <pt x="29" y="757" on="1"/>
        <pt x="117" y="757" on="1"/>
        <pt x="117" y="1327" on="1"/>
        <pt x="559" y="1327" on="1"/>
        <pt x="559" y="757" on="1"/>
        <pt x="774" y="757" on="1"/>
        <pt x="774" y="570" on="1"/>
        <pt x="559" y="570" on="1"/>
        <pt x="559" y="0" on="1"/>
        <pt x="117" y="0" on="1"/>
        <pt x="117" y="570" on="1"/>
        <pt x="29" y="570" on="1"/>
      </contour>
    </TTGlyph>
    <TTGlyph name="Euro" xMin="187" yMin="0" xMax="1608" yMax="1375">
      <contour>
        <pt x="204" y="905" on="1"/>
        <pt x="326" y="905" on="1"/>
        <pt x="326" y="1109" on="1"/>
        <pt x="591" y="1375" on="1"/>
        <pt x="768" y="1375" on="1"/>
        <pt x="768" y="905" on="1"/>
        <pt x="1057" y="905" on="1"/>
        <pt x="1057" y="763" on="1"/>
        <pt x="768" y="763" on="1"/>
        <pt x="768" y="616" on="1"/>
        <pt x="1030" y="616" on="1"/>
        <pt x="1030" y="474" on="1"/>
        <pt x="768" y="474" on="1"/>
        <pt x="768" y="0" on="1"/>
        <pt x="591" y="0" on="1"/>
        <pt x="326" y="265" on="1"/>
        <pt x="326" y="474" on="1"/>
        <pt x="187" y="474" on="1"/>
        <pt x="187" y="616" on="1"/>
        <pt x="326" y="616" on="1"/>
        <pt x="326" y="763" on="1"/>
        <pt x="204" y="763" on="1"/>
      </contour>
      <contour>
        <pt x="835" y="1109" on="1"/>
        <pt x="835" y="1375" on="1"/>
        <pt x="1343" y="1375" on="1"/>
        <pt x="1608" y="1109" on="1"/>
        <pt x="1608" y="900" on="1"/>
        <pt x="1166" y="900" on="1"/>
        <pt x="1166" y="1109" on="1"/>
      </contour>
      <contour>
        <pt x="835" y="0" on="1"/>
        <pt x="835" y="265" on="1"/>
        <pt x="1166" y="265" on="1"/>
        <pt x="1166" y="474" on="1"/>
        <pt x="1608" y="474" on="1"/>
        <pt x="1608" y="265" on="1"/>
        <pt x="1343" y="0" on="1"/>
      </contour>
    </TTGlyph>
    <TTGlyph name="F" xMin="117" yMin="0" xMax="1303" yMax="1327">
      <contour>
        <pt x="117" y="1327" on="1"/>
        <pt x="559" y="1327" on="1"/>
        <pt x="559" y="734" on="1"/>
        <pt x="967" y="734" on="1"/>
        <pt x="967" y="473" on="1"/>
        <pt x="559" y="473" on="1"/>
        <pt x="559" y="0" on="1"/>
        <pt x="117" y="0" on="1"/>
      </contour>
      <contour>
        <pt x="629" y="1062" on="1"/>
        <pt x="629" y="1327" on="1"/>
        <pt x="1303" y="1327" on="1"/>
        <pt x="1303" y="887" on="1"/>
        <pt x="861" y="887" on="1"/>
        <pt x="861" y="1062" on="1"/>
      </contour>
    </TTGlyph>
    <TTGlyph name="G" xMin="115" yMin="0" xMax="1398" yMax="1327">
      <contour>
        <pt x="557" y="265" on="1"/>
        <pt x="936" y="265" on="1"/>
        <pt x="936" y="0" on="1"/>
        <pt x="380" y="0" on="1"/>
        <pt x="115" y="265" on="1"/>
        <pt x="115" y="1062" on="1"/>
        <pt x="380" y="1327" on="1"/>
        <pt x="557" y="1327" on="1"/>
      </contour>
      <contour>
        <pt x="791" y="736" on="1"/>
        <pt x="1398" y="736" on="1"/>
        <pt x="1398" y="0" on="1"/>
        <pt x="1006" y="0" on="1"/>
        <pt x="1006" y="473" on="1"/>
        <pt x="791" y="473" on="1"/>
      </contour>
      <contour>
        <pt x="627" y="1062" on="1"/>
        <pt x="627" y="1327" on="1"/>
        <pt x="1166" y="1327" on="1"/>
        <pt x="1398" y="1062" on="1"/>
        <pt x="1398" y="929" on="1"/>
        <pt x="956" y="929" on="1"/>
        <pt x="956" y="1062" on="1"/>
      </contour>
    </TTGlyph>
    <TTGlyph name="Gbreve" xMin="115" yMin="0" xMax="1398" yMax="1756">
      <contour>
        <pt x="557" y="265" on="1"/>
        <pt x="936" y="265" on="1"/>
        <pt x="936" y="0" on="1"/>
        <pt x="380" y="0" on="1"/>
        <pt x="115" y="265" on="1"/>
        <pt x="115" y="1062" on="1"/>
        <pt x="380" y="1327" on="1"/>
        <pt x="557" y="1327" on="1"/>
      </contour>
      <contour>
        <pt x="791" y="736" on="1"/>
        <pt x="1398" y="736" on="1"/>
        <pt x="1398" y="0" on="1"/>
        <pt x="1006" y="0" on="1"/>
        <pt x="1006" y="473" on="1"/>
        <pt x="791" y="473" on="1"/>
      </contour>
      <contour>
        <pt x="627" y="1062" on="1"/>
        <pt x="627" y="1327" on="1"/>
        <pt x="1166" y="1327" on="1"/>
        <pt x="1398" y="1062" on="1"/>
        <pt x="1398" y="929" on="1"/>
        <pt x="956" y="929" on="1"/>
        <pt x="956" y="1062" on="1"/>
      </contour>
      <contour>
        <pt x="419" y="1717" on="1"/>
        <pt x="557" y="1756" on="1"/>
        <pt x="629" y="1604" on="1"/>
        <pt x="934" y="1604" on="1"/>
        <pt x="1006" y="1756" on="1"/>
        <pt x="1144" y="1717" on="1"/>
        <pt x="1108" y="1536" on="1"/>
        <pt x="962" y="1392" on="1"/>
        <pt x="601" y="1392" on="1"/>
        <pt x="455" y="1536" on="1"/>
      </contour>
    </TTGlyph>
    <TTGlyph name="Gcircumflex" xMin="115" yMin="0" xMax="1398" yMax="1732">
      <contour>
        <pt x="557" y="265" on="1"/>
        <pt x="936" y="265" on="1"/>
        <pt x="936" y="0" on="1"/>
        <pt x="380" y="0" on="1"/>
        <pt x="115" y="265" on="1"/>
        <pt x="115" y="1062" on="1"/>
        <pt x="380" y="1327" on="1"/>
        <pt x="557" y="1327" on="1"/>
      </contour>
      <contour>
        <pt x="791" y="736" on="1"/>
        <pt x="1398" y="736" on="1"/>
        <pt x="1398" y="0" on="1"/>
        <pt x="1006" y="0" on="1"/>
        <pt x="1006" y="473" on="1"/>
        <pt x="791" y="473" on="1"/>
      </contour>
      <contour>
        <pt x="627" y="1062" on="1"/>
        <pt x="627" y="1327" on="1"/>
        <pt x="1166" y="1327" on="1"/>
        <pt x="1398" y="1062" on="1"/>
        <pt x="1398" y="929" on="1"/>
        <pt x="956" y="929" on="1"/>
        <pt x="956" y="1062" on="1"/>
      </contour>
      <contour>
        <pt x="664" y="1732" on="1"/>
        <pt x="916" y="1732" on="1"/>
        <pt x="1170" y="1472" on="1"/>
        <pt x="1094" y="1393" on="1"/>
        <pt x="791" y="1552" on="1"/>
        <pt x="485" y="1393" on="1"/>
        <pt x="408" y="1473" on="1"/>
      </contour>
    </TTGlyph>
    <TTGlyph name="Gcommaaccent" xMin="115" yMin="-689" xMax="1398" yMax="1327">
      <contour>
        <pt x="557" y="265" on="1"/>
        <pt x="936" y="265" on="1"/>
        <pt x="936" y="0" on="1"/>
        <pt x="380" y="0" on="1"/>
        <pt x="115" y="265" on="1"/>
        <pt x="115" y="1062" on="1"/>
        <pt x="380" y="1327" on="1"/>
        <pt x="557" y="1327" on="1"/>
      </contour>
      <contour>
        <pt x="791" y="736" on="1"/>
        <pt x="1398" y="736" on="1"/>
        <pt x="1398" y="0" on="1"/>
        <pt x="1006" y="0" on="1"/>
        <pt x="1006" y="473" on="1"/>
        <pt x="791" y="473" on="1"/>
      </contour>
      <contour>
        <pt x="627" y="1062" on="1"/>
        <pt x="627" y="1327" on="1"/>
        <pt x="1166" y="1327" on="1"/>
        <pt x="1398" y="1062" on="1"/>
        <pt x="1398" y="929" on="1"/>
        <pt x="956" y="929" on="1"/>
        <pt x="956" y="1062" on="1"/>
      </contour>
      <contour>
        <pt x="526" y="-169" on="1"/>
        <pt x="968" y="-169" on="1"/>
        <pt x="968" y="-416" on="1"/>
        <pt x="801" y="-689" on="1"/>
        <pt x="623" y="-689" on="1"/>
        <pt x="684" y="-461" on="1"/>
        <pt x="526" y="-461" on="1"/>
      </contour>
    </TTGlyph>
    <TTGlyph name="Gdotaccent" xMin="115" yMin="0" xMax="1398" yMax="1682">
      <contour>
        <pt x="557" y="265" on="1"/>
        <pt x="936" y="265" on="1"/>
        <pt x="936" y="0" on="1"/>
        <pt x="380" y="0" on="1"/>
        <pt x="115" y="265" on="1"/>
        <pt x="115" y="1062" on="1"/>
        <pt x="380" y="1327" on="1"/>
        <pt x="557" y="1327" on="1"/>
      </contour>
      <contour>
        <pt x="791" y="736" on="1"/>
        <pt x="1398" y="736" on="1"/>
        <pt x="1398" y="0" on="1"/>
        <pt x="1006" y="0" on="1"/>
        <pt x="1006" y="473" on="1"/>
        <pt x="791" y="473" on="1"/>
      </contour>
      <contour>
        <pt x="627" y="1062" on="1"/>
        <pt x="627" y="1327" on="1"/>
        <pt x="1166" y="1327" on="1"/>
        <pt x="1398" y="1062" on="1"/>
        <pt x="1398" y="929" on="1"/>
        <pt x="956" y="929" on="1"/>
        <pt x="956" y="1062" on="1"/>
      </contour>
      <contour>
        <pt x="625" y="1682" on="1"/>
        <pt x="961" y="1682" on="1"/>
        <pt x="961" y="1461" on="1"/>
        <pt x="625" y="1461" on="1"/>
      </contour>
    </TTGlyph>
    <TTGlyph name="H" xMin="117" yMin="0" xMax="1400" yMax="1327">
      <contour>
        <pt x="954" y="1327" on="1"/>
        <pt x="1400" y="1327" on="1"/>
        <pt x="1400" y="0" on="1"/>
        <pt x="957" y="0" on="1"/>
        <pt x="957" y="539" on="1"/>
        <pt x="629" y="539" on="1"/>
        <pt x="629" y="805" on="1"/>
        <pt x="954" y="805" on="1"/>
      </contour>
      <contour>
        <pt x="559" y="0" on="1"/>
        <pt x="117" y="0" on="1"/>
        <pt x="117" y="1327" on="1"/>
        <pt x="559" y="1327" on="1"/>
      </contour>
    </TTGlyph>
    <TTGlyph name="Hbar" xMin="0" yMin="0" xMax="1516" yMax="1327">
      <contour>
        <pt x="629" y="1144" on="1"/>
        <pt x="954" y="1144" on="1"/>
        <pt x="954" y="1327" on="1"/>
        <pt x="1400" y="1327" on="1"/>
        <pt x="1400" y="1144" on="1"/>
        <pt x="1516" y="1144" on="1"/>
        <pt x="1516" y="955" on="1"/>
        <pt x="1400" y="955" on="1"/>
        <pt x="1400" y="0" on="1"/>
        <pt x="957" y="0" on="1"/>
        <pt x="957" y="539" on="1"/>
        <pt x="629" y="539" on="1"/>
        <pt x="629" y="805" on="1"/>
        <pt x="954" y="805" on="1"/>
        <pt x="954" y="955" on="1"/>
        <pt x="629" y="955" on="1"/>
      </contour>
      <contour>
        <pt x="0" y="1144" on="1"/>
        <pt x="117" y="1144" on="1"/>
        <pt x="117" y="1327" on="1"/>
        <pt x="559" y="1327" on="1"/>
        <pt x="559" y="0" on="1"/>
        <pt x="117" y="0" on="1"/>
        <pt x="117" y="955" on="1"/>
        <pt x="0" y="955" on="1"/>
      </contour>
    </TTGlyph>
    <TTGlyph name="Hcircumflex" xMin="117" yMin="0" xMax="1400" yMax="1732">
      <contour>
        <pt x="954" y="1327" on="1"/>
        <pt x="1400" y="1327" on="1"/>
        <pt x="1400" y="0" on="1"/>
        <pt x="957" y="0" on="1"/>
        <pt x="957" y="539" on="1"/>
        <pt x="629" y="539" on="1"/>
        <pt x="629" y="805" on="1"/>
        <pt x="954" y="805" on="1"/>
      </contour>
      <contour>
        <pt x="559" y="0" on="1"/>
        <pt x="117" y="0" on="1"/>
        <pt x="117" y="1327" on="1"/>
        <pt x="559" y="1327" on="1"/>
      </contour>
      <contour>
        <pt x="632" y="1732" on="1"/>
        <pt x="884" y="1732" on="1"/>
        <pt x="1138" y="1472" on="1"/>
        <pt x="1062" y="1393" on="1"/>
        <pt x="759" y="1552" on="1"/>
        <pt x="453" y="1393" on="1"/>
        <pt x="376" y="1473" on="1"/>
      </contour>
    </TTGlyph>
    <TTGlyph name="I" xMin="97" yMin="0" xMax="805" yMax="1327">
      <contour>
        <pt x="97" y="283" on="1"/>
        <pt x="230" y="283" on="1"/>
        <pt x="230" y="1045" on="1"/>
        <pt x="97" y="1045" on="1"/>
        <pt x="97" y="1327" on="1"/>
        <pt x="805" y="1327" on="1"/>
        <pt x="805" y="1045" on="1"/>
        <pt x="672" y="1045" on="1"/>
        <pt x="672" y="283" on="1"/>
        <pt x="805" y="283" on="1"/>
        <pt x="805" y="0" on="1"/>
        <pt x="97" y="0" on="1"/>
      </contour>
    </TTGlyph>
    <TTGlyph name="IJ" xMin="117" yMin="0" xMax="1364" yMax="1327">
      <contour>
        <pt x="119" y="265" on="1"/>
        <pt x="922" y="265" on="1"/>
        <pt x="922" y="1327" on="1"/>
        <pt x="1364" y="1327" on="1"/>
        <pt x="1364" y="265" on="1"/>
        <pt x="1099" y="0" on="1"/>
        <pt x="117" y="0" on="1"/>
      </contour>
      <contour>
        <pt x="117" y="432" on="1"/>
        <pt x="117" y="1327" on="1"/>
        <pt x="576" y="1327" on="1"/>
        <pt x="576" y="432" on="1"/>
      </contour>
    </TTGlyph>
    <TTGlyph name="Iacute" xMin="97" yMin="0" xMax="892" yMax="1766">
      <contour>
        <pt x="97" y="283" on="1"/>
        <pt x="230" y="283" on="1"/>
        <pt x="230" y="1045" on="1"/>
        <pt x="97" y="1045" on="1"/>
        <pt x="97" y="1327" on="1"/>
        <pt x="805" y="1327" on="1"/>
        <pt x="805" y="1045" on="1"/>
        <pt x="672" y="1045" on="1"/>
        <pt x="672" y="283" on="1"/>
        <pt x="805" y="283" on="1"/>
        <pt x="805" y="0" on="1"/>
        <pt x="97" y="0" on="1"/>
      </contour>
      <contour>
        <pt x="737" y="1766" on="1"/>
        <pt x="892" y="1688" on="1"/>
        <pt x="845" y="1519" on="1"/>
        <pt x="342" y="1404" on="1"/>
        <pt x="291" y="1526" on="1"/>
      </contour>
    </TTGlyph>
    <TTGlyph name="Ibreve" xMin="80" yMin="0" xMax="805" yMax="1755">
      <contour>
        <pt x="97" y="283" on="1"/>
        <pt x="230" y="283" on="1"/>
        <pt x="230" y="1045" on="1"/>
        <pt x="97" y="1045" on="1"/>
        <pt x="97" y="1327" on="1"/>
        <pt x="805" y="1327" on="1"/>
        <pt x="805" y="1045" on="1"/>
        <pt x="672" y="1045" on="1"/>
        <pt x="672" y="283" on="1"/>
        <pt x="805" y="283" on="1"/>
        <pt x="805" y="0" on="1"/>
        <pt x="97" y="0" on="1"/>
      </contour>
      <contour>
        <pt x="80" y="1716" on="1"/>
        <pt x="218" y="1755" on="1"/>
        <pt x="290" y="1603" on="1"/>
        <pt x="595" y="1603" on="1"/>
        <pt x="667" y="1755" on="1"/>
        <pt x="805" y="1716" on="1"/>
        <pt x="769" y="1535" on="1"/>
        <pt x="623" y="1391" on="1"/>
        <pt x="262" y="1391" on="1"/>
        <pt x="116" y="1535" on="1"/>
      </contour>
    </TTGlyph>
    <TTGlyph name="Icircumflex" xMin="69" yMin="0" xMax="831" yMax="1731">
      <contour>
        <pt x="97" y="283" on="1"/>
        <pt x="230" y="283" on="1"/>
        <pt x="230" y="1045" on="1"/>
        <pt x="97" y="1045" on="1"/>
        <pt x="97" y="1327" on="1"/>
        <pt x="805" y="1327" on="1"/>
        <pt x="805" y="1045" on="1"/>
        <pt x="672" y="1045" on="1"/>
        <pt x="672" y="283" on="1"/>
        <pt x="805" y="283" on="1"/>
        <pt x="805" y="0" on="1"/>
        <pt x="97" y="0" on="1"/>
      </contour>
      <contour>
        <pt x="325" y="1731" on="1"/>
        <pt x="577" y="1731" on="1"/>
        <pt x="831" y="1471" on="1"/>
        <pt x="755" y="1392" on="1"/>
        <pt x="452" y="1551" on="1"/>
        <pt x="146" y="1392" on="1"/>
        <pt x="69" y="1472" on="1"/>
      </contour>
    </TTGlyph>
    <TTGlyph name="Idieresis" xMin="19" yMin="0" xMax="885" yMax="1681">
      <contour>
        <pt x="97" y="283" on="1"/>
        <pt x="230" y="283" on="1"/>
        <pt x="230" y="1045" on="1"/>
        <pt x="97" y="1045" on="1"/>
        <pt x="97" y="1327" on="1"/>
        <pt x="805" y="1327" on="1"/>
        <pt x="805" y="1045" on="1"/>
        <pt x="672" y="1045" on="1"/>
        <pt x="672" y="283" on="1"/>
        <pt x="805" y="283" on="1"/>
        <pt x="805" y="0" on="1"/>
        <pt x="97" y="0" on="1"/>
      </contour>
      <contour>
        <pt x="19" y="1681" on="1"/>
        <pt x="355" y="1681" on="1"/>
        <pt x="355" y="1460" on="1"/>
        <pt x="19" y="1460" on="1"/>
      </contour>
      <contour>
        <pt x="549" y="1681" on="1"/>
        <pt x="885" y="1681" on="1"/>
        <pt x="885" y="1460" on="1"/>
        <pt x="549" y="1460" on="1"/>
      </contour>
    </TTGlyph>
    <TTGlyph name="Idotaccent" xMin="97" yMin="0" xMax="805" yMax="1681">
      <contour>
        <pt x="97" y="283" on="1"/>
        <pt x="230" y="283" on="1"/>
        <pt x="230" y="1045" on="1"/>
        <pt x="97" y="1045" on="1"/>
        <pt x="97" y="1327" on="1"/>
        <pt x="805" y="1327" on="1"/>
        <pt x="805" y="1045" on="1"/>
        <pt x="672" y="1045" on="1"/>
        <pt x="672" y="283" on="1"/>
        <pt x="805" y="283" on="1"/>
        <pt x="805" y="0" on="1"/>
        <pt x="97" y="0" on="1"/>
      </contour>
      <contour>
        <pt x="285" y="1681" on="1"/>
        <pt x="621" y="1681" on="1"/>
        <pt x="621" y="1460" on="1"/>
        <pt x="285" y="1460" on="1"/>
      </contour>
    </TTGlyph>
    <TTGlyph name="Igrave" xMin="11" yMin="0" xMax="805" yMax="1766">
      <contour>
        <pt x="97" y="283" on="1"/>
        <pt x="230" y="283" on="1"/>
        <pt x="230" y="1045" on="1"/>
        <pt x="97" y="1045" on="1"/>
        <pt x="97" y="1327" on="1"/>
        <pt x="805" y="1327" on="1"/>
        <pt x="805" y="1045" on="1"/>
        <pt x="672" y="1045" on="1"/>
        <pt x="672" y="283" on="1"/>
        <pt x="805" y="283" on="1"/>
        <pt x="805" y="0" on="1"/>
        <pt x="97" y="0" on="1"/>
      </contour>
      <contour>
        <pt x="612" y="1526" on="1"/>
        <pt x="560" y="1404" on="1"/>
        <pt x="58" y="1519" on="1"/>
        <pt x="11" y="1688" on="1"/>
        <pt x="166" y="1766" on="1"/>
      </contour>
    </TTGlyph>
    <TTGlyph name="Imacron" xMin="89" yMin="0" xMax="818" yMax="1650">
      <contour>
        <pt x="97" y="283" on="1"/>
        <pt x="230" y="283" on="1"/>
        <pt x="230" y="1045" on="1"/>
        <pt x="97" y="1045" on="1"/>
        <pt x="97" y="1327" on="1"/>
        <pt x="805" y="1327" on="1"/>
        <pt x="805" y="1045" on="1"/>
        <pt x="672" y="1045" on="1"/>
        <pt x="672" y="283" on="1"/>
        <pt x="805" y="283" on="1"/>
        <pt x="805" y="0" on="1"/>
        <pt x="97" y="0" on="1"/>
      </contour>
      <contour>
        <pt x="89" y="1650" on="1"/>
        <pt x="818" y="1650" on="1"/>
        <pt x="818" y="1480" on="1"/>
        <pt x="89" y="1480" on="1"/>
      </contour>
    </TTGlyph>
    <TTGlyph name="Iogonek" xMin="97" yMin="-445" xMax="806" yMax="1327">
      <contour>
        <pt x="97" y="283" on="1"/>
        <pt x="230" y="283" on="1"/>
        <pt x="230" y="1045" on="1"/>
        <pt x="97" y="1045" on="1"/>
        <pt x="97" y="1327" on="1"/>
        <pt x="805" y="1327" on="1"/>
        <pt x="805" y="1045" on="1"/>
        <pt x="672" y="1045" on="1"/>
        <pt x="672" y="283" on="1"/>
        <pt x="805" y="283" on="1"/>
        <pt x="805" y="0" on="1"/>
        <pt x="97" y="0" on="1"/>
      </contour>
      <contour>
        <pt x="806" y="-175" on="1"/>
        <pt x="806" y="-445" on="1"/>
        <pt x="524" y="-445" on="1"/>
        <pt x="349" y="-245" on="1"/>
        <pt x="349" y="-62" on="1"/>
        <pt x="551" y="-62" on="1"/>
        <pt x="551" y="-175" on="1"/>
      </contour>
    </TTGlyph>
    <TTGlyph name="Itilde" xMin="24" yMin="0" xMax="882" yMax="1726">
      <contour>
        <pt x="97" y="283" on="1"/>
        <pt x="230" y="283" on="1"/>
        <pt x="230" y="1045" on="1"/>
        <pt x="97" y="1045" on="1"/>
        <pt x="97" y="1327" on="1"/>
        <pt x="805" y="1327" on="1"/>
        <pt x="805" y="1045" on="1"/>
        <pt x="672" y="1045" on="1"/>
        <pt x="672" y="283" on="1"/>
        <pt x="805" y="283" on="1"/>
        <pt x="805" y="0" on="1"/>
        <pt x="97" y="0" on="1"/>
      </contour>
      <contour>
        <pt x="637" y="1609" on="1"/>
        <pt x="818" y="1716" on="1"/>
        <pt x="882" y="1638" on="1"/>
        <pt x="675" y="1424" on="1"/>
        <pt x="470" y="1424" on="1"/>
        <pt x="310" y="1540" on="1"/>
        <pt x="269" y="1540" on="1"/>
        <pt x="88" y="1434" on="1"/>
        <pt x="24" y="1512" on="1"/>
        <pt x="231" y="1726" on="1"/>
        <pt x="436" y="1726" on="1"/>
        <pt x="596" y="1609" on="1"/>
      </contour>
    </TTGlyph>
    <TTGlyph name="J" xMin="52" yMin="0" xMax="1265" yMax="1327">
      <contour>
        <pt x="213" y="1327" on="1"/>
        <pt x="1265" y="1327" on="1"/>
        <pt x="1265" y="265" on="1"/>
        <pt x="1000" y="0" on="1"/>
        <pt x="823" y="0" on="1"/>
        <pt x="823" y="1038" on="1"/>
        <pt x="213" y="1038" on="1"/>
      </contour>
      <contour>
        <pt x="511" y="265" on="1"/>
        <pt x="753" y="265" on="1"/>
        <pt x="753" y="0" on="1"/>
        <pt x="318" y="0" on="1"/>
        <pt x="52" y="265" on="1"/>
        <pt x="52" y="556" on="1"/>
        <pt x="511" y="556" on="1"/>
      </contour>
    </TTGlyph>
    <TTGlyph name="Jcircumflex" xMin="52" yMin="0" xMax="1265" yMax="1731">
      <contour>
        <pt x="213" y="1327" on="1"/>
        <pt x="1265" y="1327" on="1"/>
        <pt x="1265" y="265" on="1"/>
        <pt x="1000" y="0" on="1"/>
        <pt x="823" y="0" on="1"/>
        <pt x="823" y="1038" on="1"/>
        <pt x="213" y="1038" on="1"/>
      </contour>
      <contour>
        <pt x="511" y="265" on="1"/>
        <pt x="753" y="265" on="1"/>
        <pt x="753" y="0" on="1"/>
        <pt x="318" y="0" on="1"/>
        <pt x="52" y="265" on="1"/>
        <pt x="52" y="556" on="1"/>
        <pt x="511" y="556" on="1"/>
      </contour>
      <contour>
        <pt x="638" y="1731" on="1"/>
        <pt x="890" y="1731" on="1"/>
        <pt x="1144" y="1471" on="1"/>
        <pt x="1068" y="1392" on="1"/>
        <pt x="765" y="1551" on="1"/>
        <pt x="459" y="1392" on="1"/>
        <pt x="382" y="1472" on="1"/>
      </contour>
    </TTGlyph>
    <TTGlyph name="K" xMin="117" yMin="0" xMax="1418" yMax="1327">
      <contour>
        <pt x="117" y="0" on="1"/>
        <pt x="117" y="1327" on="1"/>
        <pt x="559" y="1327" on="1"/>
        <pt x="559" y="0" on="1"/>
      </contour>
      <contour>
        <pt x="627" y="188" on="1"/>
        <pt x="627" y="833" on="1"/>
        <pt x="937" y="1326" on="1"/>
        <pt x="1397" y="1327" on="1"/>
      </contour>
      <contour>
        <pt x="1418" y="0" on="1"/>
        <pt x="940" y="0" on="1"/>
        <pt x="790" y="309" on="1"/>
        <pt x="1052" y="702" on="1"/>
      </contour>
    </TTGlyph>
    <TTGlyph name="Kcommaaccent" xMin="117" yMin="-689" xMax="1418" yMax="1327">
      <contour>
        <pt x="117" y="0" on="1"/>
        <pt x="117" y="1327" on="1"/>
        <pt x="559" y="1327" on="1"/>
        <pt x="559" y="0" on="1"/>
      </contour>
      <contour>
        <pt x="627" y="188" on="1"/>
        <pt x="627" y="833" on="1"/>
        <pt x="937" y="1326" on="1"/>
        <pt x="1397" y="1327" on="1"/>
      </contour>
      <contour>
        <pt x="1418" y="0" on="1"/>
        <pt x="940" y="0" on="1"/>
        <pt x="790" y="309" on="1"/>
        <pt x="1052" y="702" on="1"/>
      </contour>
      <contour>
        <pt x="534" y="-169" on="1"/>
        <pt x="976" y="-169" on="1"/>
        <pt x="976" y="-416" on="1"/>
        <pt x="809" y="-689" on="1"/>
        <pt x="631" y="-689" on="1"/>
        <pt x="692" y="-461" on="1"/>
        <pt x="534" y="-461" on="1"/>
      </contour>
    </TTGlyph>
    <TTGlyph name="L" xMin="117" yMin="0" xMax="1249" yMax="1327">
      <contour>
        <pt x="117" y="0" on="1"/>
        <pt x="117" y="1327" on="1"/>
        <pt x="559" y="1327" on="1"/>
        <pt x="559" y="0" on="1"/>
      </contour>
      <contour>
        <pt x="629" y="0" on="1"/>
        <pt x="629" y="265" on="1"/>
        <pt x="848" y="265" on="1"/>
        <pt x="848" y="433" on="1"/>
        <pt x="1249" y="433" on="1"/>
        <pt x="1249" y="0" on="1"/>
      </contour>
    </TTGlyph>
    <TTGlyph name="Lacute" xMin="117" yMin="0" xMax="1291" yMax="1598">
      <contour>
        <pt x="117" y="0" on="1"/>
        <pt x="117" y="1327" on="1"/>
        <pt x="559" y="1327" on="1"/>
        <pt x="559" y="0" on="1"/>
      </contour>
      <contour>
        <pt x="629" y="0" on="1"/>
        <pt x="629" y="265" on="1"/>
        <pt x="848" y="265" on="1"/>
        <pt x="848" y="433" on="1"/>
        <pt x="1249" y="433" on="1"/>
        <pt x="1249" y="0" on="1"/>
      </contour>
      <contour>
        <pt x="1136" y="1598" on="1"/>
        <pt x="1291" y="1520" on="1"/>
        <pt x="1244" y="1351" on="1"/>
        <pt x="741" y="1236" on="1"/>
        <pt x="690" y="1358" on="1"/>
      </contour>
    </TTGlyph>
    <TTGlyph name="Lcaron" xMin="117" yMin="0" xMax="1249" yMax="1327">
      <contour>
        <pt x="117" y="0" on="1"/>
        <pt x="117" y="1327" on="1"/>
        <pt x="559" y="1327" on="1"/>
        <pt x="559" y="0" on="1"/>
      </contour>
      <contour>
        <pt x="629" y="0" on="1"/>
        <pt x="629" y="265" on="1"/>
        <pt x="848" y="265" on="1"/>
        <pt x="848" y="433" on="1"/>
        <pt x="1249" y="433" on="1"/>
        <pt x="1249" y="0" on="1"/>
      </contour>
      <contour>
        <pt x="751" y="1327" on="1"/>
        <pt x="1137" y="1327" on="1"/>
        <pt x="1137" y="1018" on="1"/>
        <pt x="1040" y="752" on="1"/>
        <pt x="854" y="752" on="1"/>
        <pt x="878" y="1018" on="1"/>
        <pt x="751" y="1018" on="1"/>
      </contour>
    </TTGlyph>
    <TTGlyph name="Lcommaaccent" xMin="117" yMin="-689" xMax="1249" yMax="1327">
      <contour>
        <pt x="117" y="0" on="1"/>
        <pt x="117" y="1327" on="1"/>
        <pt x="559" y="1327" on="1"/>
        <pt x="559" y="0" on="1"/>
      </contour>
      <contour>
        <pt x="629" y="0" on="1"/>
        <pt x="629" y="265" on="1"/>
        <pt x="848" y="265" on="1"/>
        <pt x="848" y="433" on="1"/>
        <pt x="1249" y="433" on="1"/>
        <pt x="1249" y="0" on="1"/>
      </contour>
      <contour>
        <pt x="530" y="-169" on="1"/>
        <pt x="972" y="-169" on="1"/>
        <pt x="972" y="-416" on="1"/>
        <pt x="805" y="-689" on="1"/>
        <pt x="627" y="-689" on="1"/>
        <pt x="688" y="-461" on="1"/>
        <pt x="530" y="-461" on="1"/>
      </contour>
    </TTGlyph>
    <TTGlyph name="Ldot" xMin="116" yMin="0" xMax="1248" yMax="1327">
      <contour>
        <pt x="116" y="0" on="1"/>
        <pt x="116" y="1327" on="1"/>
        <pt x="558" y="1327" on="1"/>
        <pt x="558" y="0" on="1"/>
      </contour>
      <contour>
        <pt x="628" y="0" on="1"/>
        <pt x="628" y="265" on="1"/>
        <pt x="847" y="265" on="1"/>
        <pt x="847" y="433" on="1"/>
        <pt x="1248" y="433" on="1"/>
        <pt x="1248" y="0" on="1"/>
      </contour>
      <contour>
        <pt x="862" y="1071" on="1"/>
        <pt x="1039" y="1071" on="1"/>
        <pt x="1172" y="938" on="1"/>
        <pt x="1172" y="761" on="1"/>
        <pt x="1039" y="629" on="1"/>
        <pt x="862" y="629" on="1"/>
        <pt x="730" y="761" on="1"/>
        <pt x="730" y="938" on="1"/>
      </contour>
    </TTGlyph>
    <TTGlyph name="Lslash" xMin="-29" yMin="0" xMax="1309" yMax="1327">
      <contour>
        <pt x="177" y="0" on="1"/>
        <pt x="177" y="444" on="1"/>
        <pt x="61" y="396" on="1"/>
        <pt x="-29" y="594" on="1"/>
        <pt x="177" y="679" on="1"/>
        <pt x="177" y="1327" on="1"/>
        <pt x="619" y="1327" on="1"/>
        <pt x="619" y="863" on="1"/>
        <pt x="975" y="1011" on="1"/>
        <pt x="1065" y="813" on="1"/>
        <pt x="619" y="627" on="1"/>
        <pt x="619" y="0" on="1"/>
      </contour>
      <contour>
        <pt x="689" y="0" on="1"/>
        <pt x="689" y="265" on="1"/>
        <pt x="908" y="265" on="1"/>
        <pt x="908" y="433" on="1"/>
        <pt x="1309" y="433" on="1"/>
        <pt x="1309" y="0" on="1"/>
      </contour>
    </TTGlyph>
    <TTGlyph name="M" xMin="117" yMin="0" xMax="1731" yMax="1327">
      <contour>
        <pt x="118" y="1327" on="1"/>
        <pt x="588" y="1327" on="1"/>
        <pt x="944" y="737" on="1"/>
        <pt x="1224" y="1217" on="1"/>
        <pt x="1224" y="549" on="1"/>
        <pt x="905" y="0" on="1"/>
      </contour>
      <contour>
        <pt x="1289" y="0" on="1"/>
        <pt x="1289" y="1327" on="1"/>
        <pt x="1731" y="1327" on="1"/>
        <pt x="1731" y="0" on="1"/>
      </contour>
      <contour>
        <pt x="117" y="0" on="1"/>
        <pt x="117" y="1204" on="1"/>
        <pt x="530" y="511" on="1"/>
        <pt x="530" y="0" on="1"/>
      </contour>
    </TTGlyph>
    <TTGlyph name="N" xMin="117" yMin="0" xMax="1391" yMax="1327">
      <contour>
        <pt x="1391" y="0" on="1"/>
        <pt x="921" y="0" on="1"/>
        <pt x="117" y="1327" on="1"/>
        <pt x="584" y="1327" on="1"/>
      </contour>
      <contour>
        <pt x="117" y="0" on="1"/>
        <pt x="117" y="1201" on="1"/>
        <pt x="502" y="570" on="1"/>
        <pt x="502" y="0" on="1"/>
      </contour>
      <contour>
        <pt x="1391" y="1327" on="1"/>
        <pt x="1391" y="126" on="1"/>
        <pt x="1006" y="760" on="1"/>
        <pt x="1006" y="1327" on="1"/>
      </contour>
    </TTGlyph>
    <TTGlyph name="Nacute" xMin="117" yMin="0" xMax="1391" yMax="1766">
      <contour>
        <pt x="1391" y="0" on="1"/>
        <pt x="921" y="0" on="1"/>
        <pt x="117" y="1327" on="1"/>
        <pt x="584" y="1327" on="1"/>
      </contour>
      <contour>
        <pt x="117" y="0" on="1"/>
        <pt x="117" y="1201" on="1"/>
        <pt x="502" y="570" on="1"/>
        <pt x="502" y="0" on="1"/>
      </contour>
      <contour>
        <pt x="1391" y="1327" on="1"/>
        <pt x="1391" y="126" on="1"/>
        <pt x="1006" y="760" on="1"/>
        <pt x="1006" y="1327" on="1"/>
      </contour>
      <contour>
        <pt x="1030" y="1766" on="1"/>
        <pt x="1185" y="1688" on="1"/>
        <pt x="1138" y="1519" on="1"/>
        <pt x="635" y="1404" on="1"/>
        <pt x="584" y="1526" on="1"/>
      </contour>
    </TTGlyph>
    <TTGlyph name="Ncaron" xMin="117" yMin="0" xMax="1391" yMax="1731">
      <contour>
        <pt x="1391" y="0" on="1"/>
        <pt x="921" y="0" on="1"/>
        <pt x="117" y="1327" on="1"/>
        <pt x="584" y="1327" on="1"/>
      </contour>
      <contour>
        <pt x="117" y="0" on="1"/>
        <pt x="117" y="1201" on="1"/>
        <pt x="502" y="570" on="1"/>
        <pt x="502" y="0" on="1"/>
      </contour>
      <contour>
        <pt x="1391" y="1327" on="1"/>
        <pt x="1391" y="126" on="1"/>
        <pt x="1006" y="760" on="1"/>
        <pt x="1006" y="1327" on="1"/>
      </contour>
      <contour>
        <pt x="871" y="1392" on="1"/>
        <pt x="619" y="1392" on="1"/>
        <pt x="365" y="1653" on="1"/>
        <pt x="442" y="1731" on="1"/>
        <pt x="744" y="1573" on="1"/>
        <pt x="1050" y="1731" on="1"/>
        <pt x="1128" y="1652" on="1"/>
      </contour>
    </TTGlyph>
    <TTGlyph name="Ncommaaccent" xMin="117" yMin="-689" xMax="1391" yMax="1327">
      <contour>
        <pt x="1391" y="0" on="1"/>
        <pt x="921" y="0" on="1"/>
        <pt x="117" y="1327" on="1"/>
        <pt x="584" y="1327" on="1"/>
      </contour>
      <contour>
        <pt x="117" y="0" on="1"/>
        <pt x="117" y="1201" on="1"/>
        <pt x="502" y="570" on="1"/>
        <pt x="502" y="0" on="1"/>
      </contour>
      <contour>
        <pt x="1391" y="1327" on="1"/>
        <pt x="1391" y="126" on="1"/>
        <pt x="1006" y="760" on="1"/>
        <pt x="1006" y="1327" on="1"/>
      </contour>
      <contour>
        <pt x="516" y="-169" on="1"/>
        <pt x="958" y="-169" on="1"/>
        <pt x="958" y="-416" on="1"/>
        <pt x="791" y="-689" on="1"/>
        <pt x="613" y="-689" on="1"/>
        <pt x="674" y="-461" on="1"/>
        <pt x="516" y="-461" on="1"/>
      </contour>
    </TTGlyph>
    <TTGlyph name="Ntilde" xMin="117" yMin="0" xMax="1391" yMax="1726">
      <contour>
        <pt x="1391" y="0" on="1"/>
        <pt x="921" y="0" on="1"/>
        <pt x="117" y="1327" on="1"/>
        <pt x="584" y="1327" on="1"/>
      </contour>
      <contour>
        <pt x="117" y="0" on="1"/>
        <pt x="117" y="1201" on="1"/>
        <pt x="502" y="570" on="1"/>
        <pt x="502" y="0" on="1"/>
      </contour>
      <contour>
        <pt x="1391" y="1327" on="1"/>
        <pt x="1391" y="126" on="1"/>
        <pt x="1006" y="760" on="1"/>
        <pt x="1006" y="1327" on="1"/>
      </contour>
      <contour>
        <pt x="929" y="1609" on="1"/>
        <pt x="1110" y="1716" on="1"/>
        <pt x="1174" y="1638" on="1"/>
        <pt x="967" y="1424" on="1"/>
        <pt x="762" y="1424" on="1"/>
        <pt x="602" y="1540" on="1"/>
        <pt x="561" y="1540" on="1"/>
        <pt x="380" y="1434" on="1"/>
        <pt x="316" y="1512" on="1"/>
        <pt x="523" y="1726" on="1"/>
        <pt x="728" y="1726" on="1"/>
        <pt x="888" y="1609" on="1"/>
      </contour>
    </TTGlyph>
    <TTGlyph name="O" xMin="86" yMin="0" xMax="1376" yMax="1327">
      <contour>
        <pt x="529" y="270" on="1"/>
        <pt x="695" y="270" on="1"/>
        <pt x="695" y="0" on="1"/>
        <pt x="355" y="0" on="1"/>
        <pt x="86" y="265" on="1"/>
        <pt x="86" y="1062" on="1"/>
        <pt x="355" y="1327" on="1"/>
        <pt x="695" y="1327" on="1"/>
        <pt x="695" y="1058" on="1"/>
        <pt x="529" y="1058" on="1"/>
      </contour>
      <contour>
        <pt x="934" y="1058" on="1"/>
        <pt x="765" y="1058" on="1"/>
        <pt x="765" y="1327" on="1"/>
        <pt x="1108" y="1327" on="1"/>
        <pt x="1376" y="1062" on="1"/>
        <pt x="1376" y="265" on="1"/>
        <pt x="1108" y="0" on="1"/>
        <pt x="765" y="0" on="1"/>
        <pt x="765" y="270" on="1"/>
        <pt x="934" y="270" on="1"/>
      </contour>
    </TTGlyph>
    <TTGlyph name="OE" xMin="86" yMin="0" xMax="2166" yMax="1327">
      <contour>
        <pt x="1145" y="88" on="1"/>
        <pt x="1055" y="0" on="1"/>
        <pt x="761" y="0" on="1"/>
        <pt x="761" y="265" on="1"/>
        <pt x="927" y="265" on="1"/>
        <pt x="927" y="1062" on="1"/>
        <pt x="761" y="1062" on="1"/>
        <pt x="761" y="1327" on="1"/>
        <pt x="1055" y="1327" on="1"/>
        <pt x="1147" y="1239" on="1"/>
        <pt x="1234" y="1327" on="1"/>
        <pt x="1369" y="1327" on="1"/>
        <pt x="1369" y="785" on="1"/>
        <pt x="1812" y="785" on="1"/>
        <pt x="1812" y="553" on="1"/>
        <pt x="1369" y="553" on="1"/>
        <pt x="1369" y="0" on="1"/>
        <pt x="1234" y="0" on="1"/>
      </contour>
      <contour>
        <pt x="529" y="265" on="1"/>
        <pt x="694" y="265" on="1"/>
        <pt x="694" y="0" on="1"/>
        <pt x="353" y="0" on="1"/>
        <pt x="86" y="265" on="1"/>
        <pt x="86" y="1062" on="1"/>
        <pt x="353" y="1327" on="1"/>
        <pt x="694" y="1327" on="1"/>
        <pt x="694" y="1062" on="1"/>
        <pt x="529" y="1062" on="1"/>
      </contour>
      <contour>
        <pt x="1437" y="1062" on="1"/>
        <pt x="1437" y="1327" on="1"/>
        <pt x="2166" y="1327" on="1"/>
        <pt x="2166" y="929" on="1"/>
        <pt x="1724" y="929" on="1"/>
        <pt x="1724" y="1062" on="1"/>
      </contour>
      <contour>
        <pt x="1437" y="0" on="1"/>
        <pt x="1437" y="265" on="1"/>
        <pt x="1724" y="265" on="1"/>
        <pt x="1724" y="398" on="1"/>
        <pt x="2166" y="398" on="1"/>
        <pt x="2166" y="0" on="1"/>
      </contour>
    </TTGlyph>
    <TTGlyph name="Oacute" xMin="86" yMin="0" xMax="1376" yMax="1767">
      <contour>
        <pt x="529" y="270" on="1"/>
        <pt x="695" y="270" on="1"/>
        <pt x="695" y="0" on="1"/>
        <pt x="355" y="0" on="1"/>
        <pt x="86" y="265" on="1"/>
        <pt x="86" y="1062" on="1"/>
        <pt x="355" y="1327" on="1"/>
        <pt x="695" y="1327" on="1"/>
        <pt x="695" y="1058" on="1"/>
        <pt x="529" y="1058" on="1"/>
      </contour>
      <contour>
        <pt x="934" y="1058" on="1"/>
        <pt x="765" y="1058" on="1"/>
        <pt x="765" y="1327" on="1"/>
        <pt x="1108" y="1327" on="1"/>
        <pt x="1376" y="1062" on="1"/>
        <pt x="1376" y="265" on="1"/>
        <pt x="1108" y="0" on="1"/>
        <pt x="765" y="0" on="1"/>
        <pt x="765" y="270" on="1"/>
        <pt x="934" y="270" on="1"/>
      </contour>
      <contour>
        <pt x="1017" y="1767" on="1"/>
        <pt x="1172" y="1689" on="1"/>
        <pt x="1125" y="1520" on="1"/>
        <pt x="622" y="1405" on="1"/>
        <pt x="571" y="1527" on="1"/>
      </contour>
    </TTGlyph>
    <TTGlyph name="Obreve" xMin="86" yMin="0" xMax="1376" yMax="1756">
      <contour>
        <pt x="529" y="270" on="1"/>
        <pt x="695" y="270" on="1"/>
        <pt x="695" y="0" on="1"/>
        <pt x="355" y="0" on="1"/>
        <pt x="86" y="265" on="1"/>
        <pt x="86" y="1062" on="1"/>
        <pt x="355" y="1327" on="1"/>
        <pt x="695" y="1327" on="1"/>
        <pt x="695" y="1058" on="1"/>
        <pt x="529" y="1058" on="1"/>
      </contour>
      <contour>
        <pt x="934" y="1058" on="1"/>
        <pt x="765" y="1058" on="1"/>
        <pt x="765" y="1327" on="1"/>
        <pt x="1108" y="1327" on="1"/>
        <pt x="1376" y="1062" on="1"/>
        <pt x="1376" y="265" on="1"/>
        <pt x="1108" y="0" on="1"/>
        <pt x="765" y="0" on="1"/>
        <pt x="765" y="270" on="1"/>
        <pt x="934" y="270" on="1"/>
      </contour>
      <contour>
        <pt x="359" y="1717" on="1"/>
        <pt x="497" y="1756" on="1"/>
        <pt x="569" y="1604" on="1"/>
        <pt x="874" y="1604" on="1"/>
        <pt x="946" y="1756" on="1"/>
        <pt x="1084" y="1717" on="1"/>
        <pt x="1048" y="1536" on="1"/>
        <pt x="902" y="1392" on="1"/>
        <pt x="541" y="1392" on="1"/>
        <pt x="395" y="1536" on="1"/>
      </contour>
    </TTGlyph>
    <TTGlyph name="Ocircumflex" xMin="86" yMin="0" xMax="1376" yMax="1732">
      <contour>
        <pt x="529" y="270" on="1"/>
        <pt x="695" y="270" on="1"/>
        <pt x="695" y="0" on="1"/>
        <pt x="355" y="0" on="1"/>
        <pt x="86" y="265" on="1"/>
        <pt x="86" y="1062" on="1"/>
        <pt x="355" y="1327" on="1"/>
        <pt x="695" y="1327" on="1"/>
        <pt x="695" y="1058" on="1"/>
        <pt x="529" y="1058" on="1"/>
      </contour>
      <contour>
        <pt x="934" y="1058" on="1"/>
        <pt x="765" y="1058" on="1"/>
        <pt x="765" y="1327" on="1"/>
        <pt x="1108" y="1327" on="1"/>
        <pt x="1376" y="1062" on="1"/>
        <pt x="1376" y="265" on="1"/>
        <pt x="1108" y="0" on="1"/>
        <pt x="765" y="0" on="1"/>
        <pt x="765" y="270" on="1"/>
        <pt x="934" y="270" on="1"/>
      </contour>
      <contour>
        <pt x="604" y="1732" on="1"/>
        <pt x="856" y="1732" on="1"/>
        <pt x="1110" y="1472" on="1"/>
        <pt x="1034" y="1393" on="1"/>
        <pt x="731" y="1552" on="1"/>
        <pt x="425" y="1393" on="1"/>
        <pt x="348" y="1473" on="1"/>
      </contour>
    </TTGlyph>
    <TTGlyph name="Odieresis" xMin="86" yMin="0" xMax="1376" yMax="1682">
      <contour>
        <pt x="529" y="270" on="1"/>
        <pt x="695" y="270" on="1"/>
        <pt x="695" y="0" on="1"/>
        <pt x="355" y="0" on="1"/>
        <pt x="86" y="265" on="1"/>
        <pt x="86" y="1062" on="1"/>
        <pt x="355" y="1327" on="1"/>
        <pt x="695" y="1327" on="1"/>
        <pt x="695" y="1058" on="1"/>
        <pt x="529" y="1058" on="1"/>
      </contour>
      <contour>
        <pt x="934" y="1058" on="1"/>
        <pt x="765" y="1058" on="1"/>
        <pt x="765" y="1327" on="1"/>
        <pt x="1108" y="1327" on="1"/>
        <pt x="1376" y="1062" on="1"/>
        <pt x="1376" y="265" on="1"/>
        <pt x="1108" y="0" on="1"/>
        <pt x="765" y="0" on="1"/>
        <pt x="765" y="270" on="1"/>
        <pt x="934" y="270" on="1"/>
      </contour>
      <contour>
        <pt x="298" y="1682" on="1"/>
        <pt x="634" y="1682" on="1"/>
        <pt x="634" y="1461" on="1"/>
        <pt x="298" y="1461" on="1"/>
      </contour>
      <contour>
        <pt x="828" y="1682" on="1"/>
        <pt x="1164" y="1682" on="1"/>
        <pt x="1164" y="1461" on="1"/>
        <pt x="828" y="1461" on="1"/>
      </contour>
    </TTGlyph>
    <TTGlyph name="Ograve" xMin="86" yMin="0" xMax="1376" yMax="1767">
      <contour>
        <pt x="529" y="270" on="1"/>
        <pt x="695" y="270" on="1"/>
        <pt x="695" y="0" on="1"/>
        <pt x="355" y="0" on="1"/>
        <pt x="86" y="265" on="1"/>
        <pt x="86" y="1062" on="1"/>
        <pt x="355" y="1327" on="1"/>
        <pt x="695" y="1327" on="1"/>
        <pt x="695" y="1058" on="1"/>
        <pt x="529" y="1058" on="1"/>
      </contour>
      <contour>
        <pt x="934" y="1058" on="1"/>
        <pt x="765" y="1058" on="1"/>
        <pt x="765" y="1327" on="1"/>
        <pt x="1108" y="1327" on="1"/>
        <pt x="1376" y="1062" on="1"/>
        <pt x="1376" y="265" on="1"/>
        <pt x="1108" y="0" on="1"/>
        <pt x="765" y="0" on="1"/>
        <pt x="765" y="270" on="1"/>
        <pt x="934" y="270" on="1"/>
      </contour>
      <contour>
        <pt x="891" y="1527" on="1"/>
        <pt x="839" y="1405" on="1"/>
        <pt x="337" y="1520" on="1"/>
        <pt x="290" y="1689" on="1"/>
        <pt x="445" y="1767" on="1"/>
      </contour>
    </TTGlyph>
    <TTGlyph name="Ohungarumlaut" xMin="86" yMin="0" xMax="1376" yMax="1767">
      <contour>
        <pt x="529" y="270" on="1"/>
        <pt x="695" y="270" on="1"/>
        <pt x="695" y="0" on="1"/>
        <pt x="355" y="0" on="1"/>
        <pt x="86" y="265" on="1"/>
        <pt x="86" y="1062" on="1"/>
        <pt x="355" y="1327" on="1"/>
        <pt x="695" y="1327" on="1"/>
        <pt x="695" y="1058" on="1"/>
        <pt x="529" y="1058" on="1"/>
      </contour>
      <contour>
        <pt x="934" y="1058" on="1"/>
        <pt x="765" y="1058" on="1"/>
        <pt x="765" y="1327" on="1"/>
        <pt x="1108" y="1327" on="1"/>
        <pt x="1376" y="1062" on="1"/>
        <pt x="1376" y="265" on="1"/>
        <pt x="1108" y="0" on="1"/>
        <pt x="765" y="0" on="1"/>
        <pt x="765" y="270" on="1"/>
        <pt x="934" y="270" on="1"/>
      </contour>
      <contour>
        <pt x="701" y="1767" on="1"/>
        <pt x="849" y="1719" on="1"/>
        <pt x="851" y="1580" on="1"/>
        <pt x="507" y="1415" on="1"/>
        <pt x="418" y="1527" on="1"/>
      </contour>
      <contour>
        <pt x="1225" y="1767" on="1"/>
        <pt x="1373" y="1719" on="1"/>
        <pt x="1375" y="1580" on="1"/>
        <pt x="1031" y="1415" on="1"/>
        <pt x="942" y="1527" on="1"/>
      </contour>
    </TTGlyph>
    <TTGlyph name="Omacron" xMin="86" yMin="0" xMax="1376" yMax="1650">
      <contour>
        <pt x="529" y="270" on="1"/>
        <pt x="695" y="270" on="1"/>
        <pt x="695" y="0" on="1"/>
        <pt x="355" y="0" on="1"/>
        <pt x="86" y="265" on="1"/>
        <pt x="86" y="1062" on="1"/>
        <pt x="355" y="1327" on="1"/>
        <pt x="695" y="1327" on="1"/>
        <pt x="695" y="1058" on="1"/>
        <pt x="529" y="1058" on="1"/>
      </contour>
      <contour>
        <pt x="934" y="1058" on="1"/>
        <pt x="765" y="1058" on="1"/>
        <pt x="765" y="1327" on="1"/>
        <pt x="1108" y="1327" on="1"/>
        <pt x="1376" y="1062" on="1"/>
        <pt x="1376" y="265" on="1"/>
        <pt x="1108" y="0" on="1"/>
        <pt x="765" y="0" on="1"/>
        <pt x="765" y="270" on="1"/>
        <pt x="934" y="270" on="1"/>
      </contour>
      <contour>
        <pt x="368" y="1650" on="1"/>
        <pt x="1097" y="1650" on="1"/>
        <pt x="1097" y="1480" on="1"/>
        <pt x="368" y="1480" on="1"/>
      </contour>
    </TTGlyph>
    <TTGlyph name="Omega" xMin="86" yMin="1" xMax="1376" yMax="1327">
      <contour>
        <pt x="88" y="250" on="1"/>
        <pt x="355" y="250" on="1"/>
        <pt x="86" y="515" on="1"/>
        <pt x="86" y="1062" on="1"/>
        <pt x="355" y="1327" on="1"/>
        <pt x="695" y="1327" on="1"/>
        <pt x="695" y="1058" on="1"/>
        <pt x="529" y="1058" on="1"/>
        <pt x="529" y="520" on="1"/>
        <pt x="645" y="400" on="1"/>
        <pt x="645" y="1" on="1"/>
        <pt x="88" y="1" on="1"/>
      </contour>
      <contour>
        <pt x="1374" y="1" on="1"/>
        <pt x="817" y="1" on="1"/>
        <pt x="817" y="400" on="1"/>
        <pt x="933" y="520" on="1"/>
        <pt x="933" y="1058" on="1"/>
        <pt x="767" y="1058" on="1"/>
        <pt x="767" y="1327" on="1"/>
        <pt x="1107" y="1327" on="1"/>
        <pt x="1376" y="1062" on="1"/>
        <pt x="1376" y="515" on="1"/>
        <pt x="1107" y="250" on="1"/>
        <pt x="1374" y="250" on="1"/>
      </contour>
    </TTGlyph>
    <TTGlyph name="Oslash" xMin="86" yMin="-172" xMax="1369" yMax="1499">
      <contour>
        <pt x="240" y="111" on="1"/>
        <pt x="86" y="265" on="1"/>
        <pt x="86" y="1062" on="1"/>
        <pt x="353" y="1327" on="1"/>
        <pt x="814" y="1327" on="1"/>
        <pt x="741" y="1062" on="1"/>
        <pt x="529" y="1062" on="1"/>
        <pt x="529" y="265" on="1"/>
        <pt x="645" y="265" on="1"/>
        <pt x="534" y="-172" on="1"/>
        <pt x="187" y="-88" on="1"/>
      </contour>
      <contour>
        <pt x="1369" y="265" on="1"/>
        <pt x="1104" y="0" on="1"/>
        <pt x="646" y="0" on="1"/>
        <pt x="715" y="264" on="1"/>
        <pt x="927" y="265" on="1"/>
        <pt x="927" y="1062" on="1"/>
        <pt x="814" y="1062" on="1"/>
        <pt x="923" y="1499" on="1"/>
        <pt x="1271" y="1415" on="1"/>
        <pt x="1217" y="1213" on="1"/>
        <pt x="1369" y="1062" on="1"/>
      </contour>
    </TTGlyph>
    <TTGlyph name="Otilde" xMin="86" yMin="0" xMax="1376" yMax="1727">
      <contour>
        <pt x="529" y="270" on="1"/>
        <pt x="695" y="270" on="1"/>
        <pt x="695" y="0" on="1"/>
        <pt x="355" y="0" on="1"/>
        <pt x="86" y="265" on="1"/>
        <pt x="86" y="1062" on="1"/>
        <pt x="355" y="1327" on="1"/>
        <pt x="695" y="1327" on="1"/>
        <pt x="695" y="1058" on="1"/>
        <pt x="529" y="1058" on="1"/>
      </contour>
      <contour>
        <pt x="934" y="1058" on="1"/>
        <pt x="765" y="1058" on="1"/>
        <pt x="765" y="1327" on="1"/>
        <pt x="1108" y="1327" on="1"/>
        <pt x="1376" y="1062" on="1"/>
        <pt x="1376" y="265" on="1"/>
        <pt x="1108" y="0" on="1"/>
        <pt x="765" y="0" on="1"/>
        <pt x="765" y="270" on="1"/>
        <pt x="934" y="270" on="1"/>
      </contour>
      <contour>
        <pt x="916" y="1610" on="1"/>
        <pt x="1097" y="1717" on="1"/>
        <pt x="1161" y="1639" on="1"/>
        <pt x="954" y="1425" on="1"/>
        <pt x="749" y="1425" on="1"/>
        <pt x="589" y="1541" on="1"/>
        <pt x="548" y="1541" on="1"/>
        <pt x="367" y="1435" on="1"/>
        <pt x="303" y="1513" on="1"/>
        <pt x="510" y="1727" on="1"/>
        <pt x="715" y="1727" on="1"/>
        <pt x="875" y="1610" on="1"/>
      </contour>
    </TTGlyph>
    <TTGlyph name="P" xMin="115" yMin="0" xMax="1380" yMax="1327">
      <contour>
        <pt x="115" y="0" on="1"/>
        <pt x="115" y="1327" on="1"/>
        <pt x="549" y="1327" on="1"/>
        <pt x="549" y="0" on="1"/>
      </contour>
      <contour>
        <pt x="619" y="1062" on="1"/>
        <pt x="619" y="1327" on="1"/>
        <pt x="1115" y="1327" on="1"/>
        <pt x="1380" y="1062" on="1"/>
        <pt x="1380" y="607" on="1"/>
        <pt x="1115" y="341" on="1"/>
        <pt x="619" y="341" on="1"/>
        <pt x="619" y="607" on="1"/>
        <pt x="940" y="607" on="1"/>
        <pt x="940" y="1062" on="1"/>
      </contour>
    </TTGlyph>
    <TTGlyph name="Q" xMin="96" yMin="-372" xMax="1379" yMax="1327">
      <contour>
        <pt x="693" y="0" on="1"/>
        <pt x="362" y="0" on="1"/>
        <pt x="96" y="265" on="1"/>
        <pt x="96" y="1062" on="1"/>
        <pt x="362" y="1327" on="1"/>
        <pt x="703" y="1327" on="1"/>
        <pt x="703" y="1062" on="1"/>
        <pt x="538" y="1062" on="1"/>
        <pt x="538" y="265" on="1"/>
        <pt x="888" y="265" on="1"/>
        <pt x="1319" y="-142" on="1"/>
        <pt x="1082" y="-372" on="1"/>
      </contour>
      <contour>
        <pt x="1379" y="265" on="1"/>
        <pt x="1188" y="72" on="1"/>
        <pt x="937" y="304" on="1"/>
        <pt x="937" y="1062" on="1"/>
        <pt x="771" y="1062" on="1"/>
        <pt x="771" y="1327" on="1"/>
        <pt x="1114" y="1327" on="1"/>
        <pt x="1379" y="1062" on="1"/>
      </contour>
    </TTGlyph>
    <TTGlyph name="R" xMin="117" yMin="0" xMax="1445" yMax="1327">
      <contour>
        <pt x="117" y="0" on="1"/>
        <pt x="117" y="1327" on="1"/>
        <pt x="559" y="1327" on="1"/>
        <pt x="559" y="0" on="1"/>
      </contour>
      <contour>
        <pt x="629" y="1062" on="1"/>
        <pt x="629" y="1327" on="1"/>
        <pt x="1134" y="1327" on="1"/>
        <pt x="1400" y="1062" on="1"/>
        <pt x="1400" y="664" on="1"/>
        <pt x="1196" y="460" on="1"/>
        <pt x="1182" y="488" on="1"/>
        <pt x="767" y="433" on="1"/>
        <pt x="783" y="398" on="1"/>
        <pt x="629" y="398" on="1"/>
        <pt x="629" y="655" on="1"/>
        <pt x="961" y="655" on="1"/>
        <pt x="961" y="1062" on="1"/>
      </contour>
      <contour>
        <pt x="1445" y="0" on="1"/>
        <pt x="973" y="0" on="1"/>
        <pt x="783" y="398" on="1"/>
        <pt x="1134" y="398" on="1"/>
        <pt x="1196" y="460" on="1"/>
      </contour>
    </TTGlyph>
    <TTGlyph name="Racute" xMin="117" yMin="0" xMax="1445" yMax="1766">
      <contour>
        <pt x="117" y="0" on="1"/>
        <pt x="117" y="1327" on="1"/>
        <pt x="559" y="1327" on="1"/>
        <pt x="559" y="0" on="1"/>
      </contour>
      <contour>
        <pt x="629" y="1062" on="1"/>
        <pt x="629" y="1327" on="1"/>
        <pt x="1134" y="1327" on="1"/>
        <pt x="1400" y="1062" on="1"/>
        <pt x="1400" y="664" on="1"/>
        <pt x="1196" y="460" on="1"/>
        <pt x="1182" y="488" on="1"/>
        <pt x="767" y="433" on="1"/>
        <pt x="783" y="398" on="1"/>
        <pt x="629" y="398" on="1"/>
        <pt x="629" y="655" on="1"/>
        <pt x="961" y="655" on="1"/>
        <pt x="961" y="1062" on="1"/>
      </contour>
      <contour>
        <pt x="1445" y="0" on="1"/>
        <pt x="973" y="0" on="1"/>
        <pt x="783" y="398" on="1"/>
        <pt x="1134" y="398" on="1"/>
        <pt x="1196" y="460" on="1"/>
      </contour>
      <contour>
        <pt x="1066" y="1766" on="1"/>
        <pt x="1221" y="1688" on="1"/>
        <pt x="1174" y="1519" on="1"/>
        <pt x="671" y="1404" on="1"/>
        <pt x="620" y="1526" on="1"/>
      </contour>
    </TTGlyph>
    <TTGlyph name="Rcaron" xMin="117" yMin="0" xMax="1445" yMax="1731">
      <contour>
        <pt x="117" y="0" on="1"/>
        <pt x="117" y="1327" on="1"/>
        <pt x="559" y="1327" on="1"/>
        <pt x="559" y="0" on="1"/>
      </contour>
      <contour>
        <pt x="629" y="1062" on="1"/>
        <pt x="629" y="1327" on="1"/>
        <pt x="1134" y="1327" on="1"/>
        <pt x="1400" y="1062" on="1"/>
        <pt x="1400" y="664" on="1"/>
        <pt x="1196" y="460" on="1"/>
        <pt x="1182" y="488" on="1"/>
        <pt x="767" y="433" on="1"/>
        <pt x="783" y="398" on="1"/>
        <pt x="629" y="398" on="1"/>
        <pt x="629" y="655" on="1"/>
        <pt x="961" y="655" on="1"/>
        <pt x="961" y="1062" on="1"/>
      </contour>
      <contour>
        <pt x="1445" y="0" on="1"/>
        <pt x="973" y="0" on="1"/>
        <pt x="783" y="398" on="1"/>
        <pt x="1134" y="398" on="1"/>
        <pt x="1196" y="460" on="1"/>
      </contour>
      <contour>
        <pt x="907" y="1392" on="1"/>
        <pt x="655" y="1392" on="1"/>
        <pt x="401" y="1653" on="1"/>
        <pt x="478" y="1731" on="1"/>
        <pt x="780" y="1573" on="1"/>
        <pt x="1086" y="1731" on="1"/>
        <pt x="1164" y="1652" on="1"/>
      </contour>
    </TTGlyph>
    <TTGlyph name="Rcommaaccent" xMin="117" yMin="-689" xMax="1445" yMax="1327">
      <contour>
        <pt x="117" y="0" on="1"/>
        <pt x="117" y="1327" on="1"/>
        <pt x="559" y="1327" on="1"/>
        <pt x="559" y="0" on="1"/>
      </contour>
      <contour>
        <pt x="629" y="1062" on="1"/>
        <pt x="629" y="1327" on="1"/>
        <pt x="1134" y="1327" on="1"/>
        <pt x="1400" y="1062" on="1"/>
        <pt x="1400" y="664" on="1"/>
        <pt x="1196" y="460" on="1"/>
        <pt x="1182" y="488" on="1"/>
        <pt x="767" y="433" on="1"/>
        <pt x="783" y="398" on="1"/>
        <pt x="629" y="398" on="1"/>
        <pt x="629" y="655" on="1"/>
        <pt x="961" y="655" on="1"/>
        <pt x="961" y="1062" on="1"/>
      </contour>
      <contour>
        <pt x="1445" y="0" on="1"/>
        <pt x="973" y="0" on="1"/>
        <pt x="783" y="398" on="1"/>
        <pt x="1134" y="398" on="1"/>
        <pt x="1196" y="460" on="1"/>
      </contour>
      <contour>
        <pt x="551" y="-169" on="1"/>
        <pt x="993" y="-169" on="1"/>
        <pt x="993" y="-416" on="1"/>
        <pt x="826" y="-689" on="1"/>
        <pt x="648" y="-689" on="1"/>
        <pt x="709" y="-461" on="1"/>
        <pt x="551" y="-461" on="1"/>
      </contour>
    </TTGlyph>
    <TTGlyph name="S" xMin="97" yMin="0" xMax="1380" yMax="1327">
      <contour>
        <pt x="937" y="0" on="1"/>
        <pt x="937" y="497" on="1"/>
        <pt x="363" y="497" on="1"/>
        <pt x="97" y="763" on="1"/>
        <pt x="97" y="1062" on="1"/>
        <pt x="363" y="1327" on="1"/>
        <pt x="513" y="1327" on="1"/>
        <pt x="513" y="856" on="1"/>
        <pt x="1123" y="856" on="1"/>
        <pt x="1380" y="590" on="1"/>
        <pt x="1380" y="265" on="1"/>
        <pt x="1115" y="0" on="1"/>
      </contour>
      <contour>
        <pt x="583" y="1088" on="1"/>
        <pt x="583" y="1327" on="1"/>
        <pt x="1114" y="1327" on="1"/>
        <pt x="1344" y="1096" on="1"/>
        <pt x="1344" y="955" on="1"/>
        <pt x="937" y="955" on="1"/>
        <pt x="937" y="1088" on="1"/>
      </contour>
      <contour>
        <pt x="97" y="398" on="1"/>
        <pt x="539" y="398" on="1"/>
        <pt x="539" y="240" on="1"/>
        <pt x="867" y="240" on="1"/>
        <pt x="867" y="0" on="1"/>
        <pt x="320" y="0" on="1"/>
        <pt x="97" y="265" on="1"/>
      </contour>
    </TTGlyph>
    <TTGlyph name="Sacute" xMin="97" yMin="0" xMax="1380" yMax="1773">
      <contour>
        <pt x="937" y="0" on="1"/>
        <pt x="937" y="497" on="1"/>
        <pt x="363" y="497" on="1"/>
        <pt x="97" y="763" on="1"/>
        <pt x="97" y="1062" on="1"/>
        <pt x="363" y="1327" on="1"/>
        <pt x="513" y="1327" on="1"/>
        <pt x="513" y="856" on="1"/>
        <pt x="1123" y="856" on="1"/>
        <pt x="1380" y="590" on="1"/>
        <pt x="1380" y="265" on="1"/>
        <pt x="1115" y="0" on="1"/>
      </contour>
      <contour>
        <pt x="583" y="1088" on="1"/>
        <pt x="583" y="1327" on="1"/>
        <pt x="1114" y="1327" on="1"/>
        <pt x="1344" y="1096" on="1"/>
        <pt x="1344" y="955" on="1"/>
        <pt x="937" y="955" on="1"/>
        <pt x="937" y="1088" on="1"/>
      </contour>
      <contour>
        <pt x="97" y="398" on="1"/>
        <pt x="539" y="398" on="1"/>
        <pt x="539" y="240" on="1"/>
        <pt x="867" y="240" on="1"/>
        <pt x="867" y="0" on="1"/>
        <pt x="320" y="0" on="1"/>
        <pt x="97" y="265" on="1"/>
      </contour>
      <contour>
        <pt x="1053" y="1773" on="1"/>
        <pt x="1208" y="1695" on="1"/>
        <pt x="1161" y="1526" on="1"/>
        <pt x="658" y="1411" on="1"/>
        <pt x="607" y="1533" on="1"/>
      </contour>
    </TTGlyph>
    <TTGlyph name="Scaron" xMin="97" yMin="0" xMax="1380" yMax="1738">
      <contour>
        <pt x="937" y="0" on="1"/>
        <pt x="937" y="497" on="1"/>
        <pt x="363" y="497" on="1"/>
        <pt x="97" y="763" on="1"/>
        <pt x="97" y="1062" on="1"/>
        <pt x="363" y="1327" on="1"/>
        <pt x="513" y="1327" on="1"/>
        <pt x="513" y="856" on="1"/>
        <pt x="1123" y="856" on="1"/>
        <pt x="1380" y="590" on="1"/>
        <pt x="1380" y="265" on="1"/>
        <pt x="1115" y="0" on="1"/>
      </contour>
      <contour>
        <pt x="583" y="1088" on="1"/>
        <pt x="583" y="1327" on="1"/>
        <pt x="1114" y="1327" on="1"/>
        <pt x="1344" y="1096" on="1"/>
        <pt x="1344" y="955" on="1"/>
        <pt x="937" y="955" on="1"/>
        <pt x="937" y="1088" on="1"/>
      </contour>
      <contour>
        <pt x="97" y="398" on="1"/>
        <pt x="539" y="398" on="1"/>
        <pt x="539" y="240" on="1"/>
        <pt x="867" y="240" on="1"/>
        <pt x="867" y="0" on="1"/>
        <pt x="320" y="0" on="1"/>
        <pt x="97" y="265" on="1"/>
      </contour>
      <contour>
        <pt x="894" y="1399" on="1"/>
        <pt x="642" y="1399" on="1"/>
        <pt x="388" y="1660" on="1"/>
        <pt x="465" y="1738" on="1"/>
        <pt x="767" y="1580" on="1"/>
        <pt x="1073" y="1738" on="1"/>
        <pt x="1151" y="1659" on="1"/>
      </contour>
    </TTGlyph>
    <TTGlyph name="Scedilla" xMin="97" yMin="-507" xMax="1380" yMax="1327">
      <contour>
        <pt x="937" y="0" on="1"/>
        <pt x="937" y="497" on="1"/>
        <pt x="363" y="497" on="1"/>
        <pt x="97" y="763" on="1"/>
        <pt x="97" y="1062" on="1"/>
        <pt x="363" y="1327" on="1"/>
        <pt x="513" y="1327" on="1"/>
        <pt x="513" y="856" on="1"/>
        <pt x="1123" y="856" on="1"/>
        <pt x="1380" y="590" on="1"/>
        <pt x="1380" y="265" on="1"/>
        <pt x="1115" y="0" on="1"/>
      </contour>
      <contour>
        <pt x="583" y="1088" on="1"/>
        <pt x="583" y="1327" on="1"/>
        <pt x="1114" y="1327" on="1"/>
        <pt x="1344" y="1096" on="1"/>
        <pt x="1344" y="955" on="1"/>
        <pt x="937" y="955" on="1"/>
        <pt x="937" y="1088" on="1"/>
      </contour>
      <contour>
        <pt x="97" y="398" on="1"/>
        <pt x="539" y="398" on="1"/>
        <pt x="539" y="240" on="1"/>
        <pt x="867" y="240" on="1"/>
        <pt x="867" y="0" on="1"/>
        <pt x="320" y="0" on="1"/>
        <pt x="97" y="265" on="1"/>
      </contour>
      <contour>
        <pt x="741" y="-225" on="1"/>
        <pt x="741" y="-62" on="1"/>
        <pt x="943" y="-62" on="1"/>
        <pt x="943" y="-307" on="1"/>
        <pt x="768" y="-507" on="1"/>
        <pt x="456" y="-507" on="1"/>
        <pt x="456" y="-225" on="1"/>
      </contour>
    </TTGlyph>
    <TTGlyph name="Scircumflex" xMin="97" yMin="0" xMax="1380" yMax="1738">
      <contour>
        <pt x="937" y="0" on="1"/>
        <pt x="937" y="497" on="1"/>
        <pt x="363" y="497" on="1"/>
        <pt x="97" y="763" on="1"/>
        <pt x="97" y="1062" on="1"/>
        <pt x="363" y="1327" on="1"/>
        <pt x="513" y="1327" on="1"/>
        <pt x="513" y="856" on="1"/>
        <pt x="1123" y="856" on="1"/>
        <pt x="1380" y="590" on="1"/>
        <pt x="1380" y="265" on="1"/>
        <pt x="1115" y="0" on="1"/>
      </contour>
      <contour>
        <pt x="583" y="1088" on="1"/>
        <pt x="583" y="1327" on="1"/>
        <pt x="1114" y="1327" on="1"/>
        <pt x="1344" y="1096" on="1"/>
        <pt x="1344" y="955" on="1"/>
        <pt x="937" y="955" on="1"/>
        <pt x="937" y="1088" on="1"/>
      </contour>
      <contour>
        <pt x="97" y="398" on="1"/>
        <pt x="539" y="398" on="1"/>
        <pt x="539" y="240" on="1"/>
        <pt x="867" y="240" on="1"/>
        <pt x="867" y="0" on="1"/>
        <pt x="320" y="0" on="1"/>
        <pt x="97" y="265" on="1"/>
      </contour>
      <contour>
        <pt x="640" y="1738" on="1"/>
        <pt x="892" y="1738" on="1"/>
        <pt x="1146" y="1478" on="1"/>
        <pt x="1070" y="1399" on="1"/>
        <pt x="767" y="1558" on="1"/>
        <pt x="461" y="1399" on="1"/>
        <pt x="384" y="1479" on="1"/>
      </contour>
    </TTGlyph>
    <TTGlyph name="Scommaaccent" xMin="97" yMin="-689" xMax="1380" yMax="1327">
      <contour>
        <pt x="937" y="0" on="1"/>
        <pt x="937" y="497" on="1"/>
        <pt x="363" y="497" on="1"/>
        <pt x="97" y="763" on="1"/>
        <pt x="97" y="1062" on="1"/>
        <pt x="363" y="1327" on="1"/>
        <pt x="513" y="1327" on="1"/>
        <pt x="513" y="856" on="1"/>
        <pt x="1123" y="856" on="1"/>
        <pt x="1380" y="590" on="1"/>
        <pt x="1380" y="265" on="1"/>
        <pt x="1115" y="0" on="1"/>
      </contour>
      <contour>
        <pt x="583" y="1088" on="1"/>
        <pt x="583" y="1327" on="1"/>
        <pt x="1114" y="1327" on="1"/>
        <pt x="1344" y="1096" on="1"/>
        <pt x="1344" y="955" on="1"/>
        <pt x="937" y="955" on="1"/>
        <pt x="937" y="1088" on="1"/>
      </contour>
      <contour>
        <pt x="97" y="398" on="1"/>
        <pt x="539" y="398" on="1"/>
        <pt x="539" y="240" on="1"/>
        <pt x="867" y="240" on="1"/>
        <pt x="867" y="0" on="1"/>
        <pt x="320" y="0" on="1"/>
        <pt x="97" y="265" on="1"/>
      </contour>
      <contour>
        <pt x="543" y="-169" on="1"/>
        <pt x="985" y="-169" on="1"/>
        <pt x="985" y="-416" on="1"/>
        <pt x="818" y="-689" on="1"/>
        <pt x="640" y="-689" on="1"/>
        <pt x="701" y="-461" on="1"/>
        <pt x="543" y="-461" on="1"/>
      </contour>
    </TTGlyph>
    <TTGlyph name="T" xMin="52" yMin="0" xMax="1204" yMax="1327">
      <contour>
        <pt x="398" y="969" on="1"/>
        <pt x="858" y="969" on="1"/>
        <pt x="858" y="0" on="1"/>
        <pt x="398" y="0" on="1"/>
      </contour>
      <contour>
        <pt x="52" y="1327" on="1"/>
        <pt x="1204" y="1327" on="1"/>
        <pt x="1204" y="1038" on="1"/>
        <pt x="52" y="1038" on="1"/>
      </contour>
    </TTGlyph>
    <TTGlyph name="Tbar" xMin="52" yMin="0" xMax="1204" yMax="1327">
      <contour>
        <pt x="181" y="675" on="1"/>
        <pt x="398" y="675" on="1"/>
        <pt x="398" y="969" on="1"/>
        <pt x="858" y="969" on="1"/>
        <pt x="858" y="675" on="1"/>
        <pt x="1068" y="675" on="1"/>
        <pt x="1068" y="486" on="1"/>
        <pt x="858" y="486" on="1"/>
        <pt x="858" y="0" on="1"/>
        <pt x="398" y="0" on="1"/>
        <pt x="398" y="486" on="1"/>
        <pt x="181" y="486" on="1"/>
      </contour>
      <contour>
        <pt x="52" y="1327" on="1"/>
        <pt x="1204" y="1327" on="1"/>
        <pt x="1204" y="1038" on="1"/>
        <pt x="52" y="1038" on="1"/>
      </contour>
    </TTGlyph>
    <TTGlyph name="Tcaron" xMin="52" yMin="0" xMax="1204" yMax="1731">
      <contour>
        <pt x="398" y="969" on="1"/>
        <pt x="858" y="969" on="1"/>
        <pt x="858" y="0" on="1"/>
        <pt x="398" y="0" on="1"/>
      </contour>
      <contour>
        <pt x="52" y="1327" on="1"/>
        <pt x="1204" y="1327" on="1"/>
        <pt x="1204" y="1038" on="1"/>
        <pt x="52" y="1038" on="1"/>
      </contour>
      <contour>
        <pt x="752" y="1392" on="1"/>
        <pt x="500" y="1392" on="1"/>
        <pt x="246" y="1653" on="1"/>
        <pt x="323" y="1731" on="1"/>
        <pt x="625" y="1573" on="1"/>
        <pt x="931" y="1731" on="1"/>
        <pt x="1009" y="1652" on="1"/>
      </contour>
    </TTGlyph>
    <TTGlyph name="Tcommaaccent" xMin="52" yMin="-689" xMax="1204" yMax="1327">
      <contour>
        <pt x="398" y="969" on="1"/>
        <pt x="858" y="969" on="1"/>
        <pt x="858" y="0" on="1"/>
        <pt x="398" y="0" on="1"/>
      </contour>
      <contour>
        <pt x="52" y="1327" on="1"/>
        <pt x="1204" y="1327" on="1"/>
        <pt x="1204" y="1038" on="1"/>
        <pt x="52" y="1038" on="1"/>
      </contour>
      <contour>
        <pt x="407" y="-169" on="1"/>
        <pt x="849" y="-169" on="1"/>
        <pt x="849" y="-416" on="1"/>
        <pt x="682" y="-689" on="1"/>
        <pt x="504" y="-689" on="1"/>
        <pt x="565" y="-461" on="1"/>
        <pt x="407" y="-461" on="1"/>
      </contour>
    </TTGlyph>
    <TTGlyph name="Thorn" xMin="104" yMin="0" xMax="1369" yMax="1327">
      <contour>
        <pt x="104" y="0" on="1"/>
        <pt x="104" y="1327" on="1"/>
        <pt x="537" y="1327" on="1"/>
        <pt x="537" y="0" on="1"/>
      </contour>
      <contour>
        <pt x="607" y="873" on="1"/>
        <pt x="607" y="1138" on="1"/>
        <pt x="1103" y="1138" on="1"/>
        <pt x="1369" y="873" on="1"/>
        <pt x="1369" y="474" on="1"/>
        <pt x="1103" y="209" on="1"/>
        <pt x="607" y="209" on="1"/>
        <pt x="607" y="474" on="1"/>
        <pt x="935" y="474" on="1"/>
        <pt x="935" y="873" on="1"/>
      </contour>
    </TTGlyph>
    <TTGlyph name="U" xMin="106" yMin="0" xMax="1388" yMax="1327">
      <contour>
        <pt x="1388" y="265" on="1"/>
        <pt x="1123" y="0" on="1"/>
        <pt x="782" y="0" on="1"/>
        <pt x="782" y="265" on="1"/>
        <pt x="946" y="265" on="1"/>
        <pt x="946" y="1327" on="1"/>
        <pt x="1388" y="1327" on="1"/>
      </contour>
      <contour>
        <pt x="549" y="265" on="1"/>
        <pt x="712" y="265" on="1"/>
        <pt x="712" y="0" on="1"/>
        <pt x="372" y="0" on="1"/>
        <pt x="106" y="265" on="1"/>
        <pt x="106" y="1327" on="1"/>
        <pt x="549" y="1327" on="1"/>
      </contour>
    </TTGlyph>
    <TTGlyph name="Uacute" xMin="106" yMin="0" xMax="1388" yMax="1766">
      <contour>
        <pt x="1388" y="265" on="1"/>
        <pt x="1123" y="0" on="1"/>
        <pt x="782" y="0" on="1"/>
        <pt x="782" y="265" on="1"/>
        <pt x="946" y="265" on="1"/>
        <pt x="946" y="1327" on="1"/>
        <pt x="1388" y="1327" on="1"/>
      </contour>
      <contour>
        <pt x="549" y="265" on="1"/>
        <pt x="712" y="265" on="1"/>
        <pt x="712" y="0" on="1"/>
        <pt x="372" y="0" on="1"/>
        <pt x="106" y="265" on="1"/>
        <pt x="106" y="1327" on="1"/>
        <pt x="549" y="1327" on="1"/>
      </contour>
      <contour>
        <pt x="1033" y="1766" on="1"/>
        <pt x="1188" y="1688" on="1"/>
        <pt x="1141" y="1519" on="1"/>
        <pt x="638" y="1404" on="1"/>
        <pt x="587" y="1526" on="1"/>
      </contour>
    </TTGlyph>
    <TTGlyph name="Ubreve" xMin="106" yMin="0" xMax="1388" yMax="1755">
      <contour>
        <pt x="1388" y="265" on="1"/>
        <pt x="1123" y="0" on="1"/>
        <pt x="782" y="0" on="1"/>
        <pt x="782" y="265" on="1"/>
        <pt x="946" y="265" on="1"/>
        <pt x="946" y="1327" on="1"/>
        <pt x="1388" y="1327" on="1"/>
      </contour>
      <contour>
        <pt x="549" y="265" on="1"/>
        <pt x="712" y="265" on="1"/>
        <pt x="712" y="0" on="1"/>
        <pt x="372" y="0" on="1"/>
        <pt x="106" y="265" on="1"/>
        <pt x="106" y="1327" on="1"/>
        <pt x="549" y="1327" on="1"/>
      </contour>
      <contour>
        <pt x="375" y="1716" on="1"/>
        <pt x="513" y="1755" on="1"/>
        <pt x="585" y="1603" on="1"/>
        <pt x="890" y="1603" on="1"/>
        <pt x="962" y="1755" on="1"/>
        <pt x="1100" y="1716" on="1"/>
        <pt x="1064" y="1535" on="1"/>
        <pt x="918" y="1391" on="1"/>
        <pt x="557" y="1391" on="1"/>
        <pt x="411" y="1535" on="1"/>
      </contour>
    </TTGlyph>
    <TTGlyph name="Ucircumflex" xMin="106" yMin="0" xMax="1388" yMax="1731">
      <contour>
        <pt x="1388" y="265" on="1"/>
        <pt x="1123" y="0" on="1"/>
        <pt x="782" y="0" on="1"/>
        <pt x="782" y="265" on="1"/>
        <pt x="946" y="265" on="1"/>
        <pt x="946" y="1327" on="1"/>
        <pt x="1388" y="1327" on="1"/>
      </contour>
      <contour>
        <pt x="549" y="265" on="1"/>
        <pt x="712" y="265" on="1"/>
        <pt x="712" y="0" on="1"/>
        <pt x="372" y="0" on="1"/>
        <pt x="106" y="265" on="1"/>
        <pt x="106" y="1327" on="1"/>
        <pt x="549" y="1327" on="1"/>
      </contour>
      <contour>
        <pt x="620" y="1731" on="1"/>
        <pt x="872" y="1731" on="1"/>
        <pt x="1126" y="1471" on="1"/>
        <pt x="1050" y="1392" on="1"/>
        <pt x="747" y="1551" on="1"/>
        <pt x="441" y="1392" on="1"/>
        <pt x="364" y="1472" on="1"/>
      </contour>
    </TTGlyph>
    <TTGlyph name="Udieresis" xMin="106" yMin="0" xMax="1388" yMax="1681">
      <contour>
        <pt x="1388" y="265" on="1"/>
        <pt x="1123" y="0" on="1"/>
        <pt x="782" y="0" on="1"/>
        <pt x="782" y="265" on="1"/>
        <pt x="946" y="265" on="1"/>
        <pt x="946" y="1327" on="1"/>
        <pt x="1388" y="1327" on="1"/>
      </contour>
      <contour>
        <pt x="549" y="265" on="1"/>
        <pt x="712" y="265" on="1"/>
        <pt x="712" y="0" on="1"/>
        <pt x="372" y="0" on="1"/>
        <pt x="106" y="265" on="1"/>
        <pt x="106" y="1327" on="1"/>
        <pt x="549" y="1327" on="1"/>
      </contour>
      <contour>
        <pt x="314" y="1681" on="1"/>
        <pt x="650" y="1681" on="1"/>
        <pt x="650" y="1460" on="1"/>
        <pt x="314" y="1460" on="1"/>
      </contour>
      <contour>
        <pt x="844" y="1681" on="1"/>
        <pt x="1180" y="1681" on="1"/>
        <pt x="1180" y="1460" on="1"/>
        <pt x="844" y="1460" on="1"/>
      </contour>
    </TTGlyph>
    <TTGlyph name="Ugrave" xMin="106" yMin="0" xMax="1388" yMax="1766">
      <contour>
        <pt x="1388" y="265" on="1"/>
        <pt x="1123" y="0" on="1"/>
        <pt x="782" y="0" on="1"/>
        <pt x="782" y="265" on="1"/>
        <pt x="946" y="265" on="1"/>
        <pt x="946" y="1327" on="1"/>
        <pt x="1388" y="1327" on="1"/>
      </contour>
      <contour>
        <pt x="549" y="265" on="1"/>
        <pt x="712" y="265" on="1"/>
        <pt x="712" y="0" on="1"/>
        <pt x="372" y="0" on="1"/>
        <pt x="106" y="265" on="1"/>
        <pt x="106" y="1327" on="1"/>
        <pt x="549" y="1327" on="1"/>
      </contour>
      <contour>
        <pt x="907" y="1526" on="1"/>
        <pt x="855" y="1404" on="1"/>
        <pt x="353" y="1519" on="1"/>
        <pt x="306" y="1688" on="1"/>
        <pt x="461" y="1766" on="1"/>
      </contour>
    </TTGlyph>
    <TTGlyph name="Uhungarumlaut" xMin="106" yMin="0" xMax="1391" yMax="1766">
      <contour>
        <pt x="1388" y="265" on="1"/>
        <pt x="1123" y="0" on="1"/>
        <pt x="782" y="0" on="1"/>
        <pt x="782" y="265" on="1"/>
        <pt x="946" y="265" on="1"/>
        <pt x="946" y="1327" on="1"/>
        <pt x="1388" y="1327" on="1"/>
      </contour>
      <contour>
        <pt x="549" y="265" on="1"/>
        <pt x="712" y="265" on="1"/>
        <pt x="712" y="0" on="1"/>
        <pt x="372" y="0" on="1"/>
        <pt x="106" y="265" on="1"/>
        <pt x="106" y="1327" on="1"/>
        <pt x="549" y="1327" on="1"/>
      </contour>
      <contour>
        <pt x="717" y="1766" on="1"/>
        <pt x="865" y="1718" on="1"/>
        <pt x="867" y="1579" on="1"/>
        <pt x="523" y="1414" on="1"/>
        <pt x="434" y="1526" on="1"/>
      </contour>
      <contour>
        <pt x="1241" y="1766" on="1"/>
        <pt x="1389" y="1718" on="1"/>
        <pt x="1391" y="1579" on="1"/>
        <pt x="1047" y="1414" on="1"/>
        <pt x="958" y="1526" on="1"/>
      </contour>
    </TTGlyph>
    <TTGlyph name="Umacron" xMin="106" yMin="0" xMax="1388" yMax="1650">
      <contour>
        <pt x="1388" y="265" on="1"/>
        <pt x="1123" y="0" on="1"/>
        <pt x="782" y="0" on="1"/>
        <pt x="782" y="265" on="1"/>
        <pt x="946" y="265" on="1"/>
        <pt x="946" y="1327" on="1"/>
        <pt x="1388" y="1327" on="1"/>
      </contour>
      <contour>
        <pt x="549" y="265" on="1"/>
        <pt x="712" y="265" on="1"/>
        <pt x="712" y="0" on="1"/>
        <pt x="372" y="0" on="1"/>
        <pt x="106" y="265" on="1"/>
        <pt x="106" y="1327" on="1"/>
        <pt x="549" y="1327" on="1"/>
      </contour>
      <contour>
        <pt x="384" y="1650" on="1"/>
        <pt x="1113" y="1650" on="1"/>
        <pt x="1113" y="1480" on="1"/>
        <pt x="384" y="1480" on="1"/>
      </contour>
    </TTGlyph>
    <TTGlyph name="Uogonek" xMin="106" yMin="-445" xMax="1388" yMax="1327">
      <contour>
        <pt x="1388" y="265" on="1"/>
        <pt x="1123" y="0" on="1"/>
        <pt x="782" y="0" on="1"/>
        <pt x="782" y="265" on="1"/>
        <pt x="946" y="265" on="1"/>
        <pt x="946" y="1327" on="1"/>
        <pt x="1388" y="1327" on="1"/>
      </contour>
      <contour>
        <pt x="549" y="265" on="1"/>
        <pt x="712" y="265" on="1"/>
        <pt x="712" y="0" on="1"/>
        <pt x="372" y="0" on="1"/>
        <pt x="106" y="265" on="1"/>
        <pt x="106" y="1327" on="1"/>
        <pt x="549" y="1327" on="1"/>
      </contour>
      <contour>
        <pt x="1263" y="-175" on="1"/>
        <pt x="1263" y="-445" on="1"/>
        <pt x="981" y="-445" on="1"/>
        <pt x="806" y="-245" on="1"/>
        <pt x="806" y="-62" on="1"/>
        <pt x="1008" y="-62" on="1"/>
        <pt x="1008" y="-175" on="1"/>
      </contour>
    </TTGlyph>
    <TTGlyph name="Uring" xMin="106" yMin="0" xMax="1388" yMax="1765">
      <contour>
        <pt x="1388" y="265" on="1"/>
        <pt x="1123" y="0" on="1"/>
        <pt x="782" y="0" on="1"/>
        <pt x="782" y="265" on="1"/>
        <pt x="946" y="265" on="1"/>
        <pt x="946" y="1327" on="1"/>
        <pt x="1388" y="1327" on="1"/>
      </contour>
      <contour>
        <pt x="549" y="265" on="1"/>
        <pt x="712" y="265" on="1"/>
        <pt x="712" y="0" on="1"/>
        <pt x="372" y="0" on="1"/>
        <pt x="106" y="265" on="1"/>
        <pt x="106" y="1327" on="1"/>
        <pt x="549" y="1327" on="1"/>
      </contour>
      <contour>
        <pt x="780" y="1333" on="1"/>
        <pt x="780" y="1489" on="1"/>
        <pt x="858" y="1489" on="1"/>
        <pt x="858" y="1610" on="1"/>
        <pt x="780" y="1610" on="1"/>
        <pt x="780" y="1765" on="1"/>
        <pt x="897" y="1765" on="1"/>
        <pt x="1036" y="1628" on="1"/>
        <pt x="1036" y="1470" on="1"/>
        <pt x="897" y="1333" on="1"/>
      </contour>
      <contour>
        <pt x="711" y="1489" on="1"/>
        <pt x="711" y="1333" on="1"/>
        <pt x="592" y="1333" on="1"/>
        <pt x="455" y="1470" on="1"/>
        <pt x="455" y="1628" on="1"/>
        <pt x="592" y="1765" on="1"/>
        <pt x="711" y="1765" on="1"/>
        <pt x="711" y="1610" on="1"/>
        <pt x="634" y="1610" on="1"/>
        <pt x="634" y="1489" on="1"/>
      </contour>
    </TTGlyph>
    <TTGlyph name="Utilde" xMin="106" yMin="0" xMax="1388" yMax="1726">
      <contour>
        <pt x="1388" y="265" on="1"/>
        <pt x="1123" y="0" on="1"/>
        <pt x="782" y="0" on="1"/>
        <pt x="782" y="265" on="1"/>
        <pt x="946" y="265" on="1"/>
        <pt x="946" y="1327" on="1"/>
        <pt x="1388" y="1327" on="1"/>
      </contour>
      <contour>
        <pt x="549" y="265" on="1"/>
        <pt x="712" y="265" on="1"/>
        <pt x="712" y="0" on="1"/>
        <pt x="372" y="0" on="1"/>
        <pt x="106" y="265" on="1"/>
        <pt x="106" y="1327" on="1"/>
        <pt x="549" y="1327" on="1"/>
      </contour>
      <contour>
        <pt x="932" y="1609" on="1"/>
        <pt x="1113" y="1716" on="1"/>
        <pt x="1177" y="1638" on="1"/>
        <pt x="970" y="1424" on="1"/>
        <pt x="765" y="1424" on="1"/>
        <pt x="605" y="1540" on="1"/>
        <pt x="564" y="1540" on="1"/>
        <pt x="383" y="1434" on="1"/>
        <pt x="319" y="1512" on="1"/>
        <pt x="526" y="1726" on="1"/>
        <pt x="731" y="1726" on="1"/>
        <pt x="891" y="1609" on="1"/>
      </contour>
    </TTGlyph>
    <TTGlyph name="V" xMin="-26" yMin="0" xMax="1397" yMax="1327">
      <contour>
        <pt x="884" y="0" on="1"/>
        <pt x="454" y="0" on="1"/>
        <pt x="-26" y="1327" on="1"/>
        <pt x="425" y="1327" on="1"/>
      </contour>
      <contour>
        <pt x="953" y="1327" on="1"/>
        <pt x="1397" y="1327" on="1"/>
        <pt x="938" y="40" on="1"/>
        <pt x="739" y="624" on="1"/>
      </contour>
    </TTGlyph>
    <TTGlyph name="W" xMin="-26" yMin="0" xMax="1954" yMax="1327">
      <contour>
        <pt x="609" y="598" on="1"/>
        <pt x="742" y="1155" on="1"/>
        <pt x="915" y="525" on="1"/>
        <pt x="772" y="0" on="1"/>
        <pt x="371" y="0" on="1"/>
        <pt x="-26" y="1327" on="1"/>
        <pt x="414" y="1327" on="1"/>
      </contour>
      <contour>
        <pt x="1547" y="0" on="1"/>
        <pt x="1125" y="0" on="1"/>
        <pt x="761" y="1327" on="1"/>
        <pt x="1207" y="1327" on="1"/>
      </contour>
      <contour>
        <pt x="1551" y="1327" on="1"/>
        <pt x="1954" y="1327" on="1"/>
        <pt x="1594" y="69" on="1"/>
        <pt x="1414" y="776" on="1"/>
      </contour>
    </TTGlyph>
    <TTGlyph name="Wacute" xMin="-26" yMin="0" xMax="1954" yMax="1767">
      <contour>
        <pt x="609" y="598" on="1"/>
        <pt x="742" y="1155" on="1"/>
        <pt x="915" y="525" on="1"/>
        <pt x="772" y="0" on="1"/>
        <pt x="371" y="0" on="1"/>
        <pt x="-26" y="1327" on="1"/>
        <pt x="414" y="1327" on="1"/>
      </contour>
      <contour>
        <pt x="1547" y="0" on="1"/>
        <pt x="1125" y="0" on="1"/>
        <pt x="761" y="1327" on="1"/>
        <pt x="1207" y="1327" on="1"/>
      </contour>
      <contour>
        <pt x="1551" y="1327" on="1"/>
        <pt x="1954" y="1327" on="1"/>
        <pt x="1594" y="69" on="1"/>
        <pt x="1414" y="776" on="1"/>
      </contour>
      <contour>
        <pt x="1295" y="1767" on="1"/>
        <pt x="1450" y="1689" on="1"/>
        <pt x="1403" y="1520" on="1"/>
        <pt x="900" y="1405" on="1"/>
        <pt x="849" y="1527" on="1"/>
      </contour>
    </TTGlyph>
    <TTGlyph name="Wcircumflex" xMin="-26" yMin="0" xMax="1954" yMax="1732">
      <contour>
        <pt x="609" y="598" on="1"/>
        <pt x="742" y="1155" on="1"/>
        <pt x="915" y="525" on="1"/>
        <pt x="772" y="0" on="1"/>
        <pt x="371" y="0" on="1"/>
        <pt x="-26" y="1327" on="1"/>
        <pt x="414" y="1327" on="1"/>
      </contour>
      <contour>
        <pt x="1547" y="0" on="1"/>
        <pt x="1125" y="0" on="1"/>
        <pt x="761" y="1327" on="1"/>
        <pt x="1207" y="1327" on="1"/>
      </contour>
      <contour>
        <pt x="1551" y="1327" on="1"/>
        <pt x="1954" y="1327" on="1"/>
        <pt x="1594" y="69" on="1"/>
        <pt x="1414" y="776" on="1"/>
      </contour>
      <contour>
        <pt x="882" y="1732" on="1"/>
        <pt x="1134" y="1732" on="1"/>
        <pt x="1388" y="1472" on="1"/>
        <pt x="1312" y="1393" on="1"/>
        <pt x="1009" y="1552" on="1"/>
        <pt x="703" y="1393" on="1"/>
        <pt x="626" y="1473" on="1"/>
      </contour>
    </TTGlyph>
    <TTGlyph name="Wdieresis" xMin="-26" yMin="0" xMax="1954" yMax="1682">
      <contour>
        <pt x="609" y="598" on="1"/>
        <pt x="742" y="1155" on="1"/>
        <pt x="915" y="525" on="1"/>
        <pt x="772" y="0" on="1"/>
        <pt x="371" y="0" on="1"/>
        <pt x="-26" y="1327" on="1"/>
        <pt x="414" y="1327" on="1"/>
      </contour>
      <contour>
        <pt x="1547" y="0" on="1"/>
        <pt x="1125" y="0" on="1"/>
        <pt x="761" y="1327" on="1"/>
        <pt x="1207" y="1327" on="1"/>
      </contour>
      <contour>
        <pt x="1551" y="1327" on="1"/>
        <pt x="1954" y="1327" on="1"/>
        <pt x="1594" y="69" on="1"/>
        <pt x="1414" y="776" on="1"/>
      </contour>
      <contour>
        <pt x="576" y="1682" on="1"/>
        <pt x="912" y="1682" on="1"/>
        <pt x="912" y="1461" on="1"/>
        <pt x="576" y="1461" on="1"/>
      </contour>
      <contour>
        <pt x="1106" y="1682" on="1"/>
        <pt x="1442" y="1682" on="1"/>
        <pt x="1442" y="1461" on="1"/>
        <pt x="1106" y="1461" on="1"/>
      </contour>
    </TTGlyph>
    <TTGlyph name="Wgrave" xMin="-26" yMin="0" xMax="1954" yMax="1767">
      <contour>
        <pt x="609" y="598" on="1"/>
        <pt x="742" y="1155" on="1"/>
        <pt x="915" y="525" on="1"/>
        <pt x="772" y="0" on="1"/>
        <pt x="371" y="0" on="1"/>
        <pt x="-26" y="1327" on="1"/>
        <pt x="414" y="1327" on="1"/>
      </contour>
      <contour>
        <pt x="1547" y="0" on="1"/>
        <pt x="1125" y="0" on="1"/>
        <pt x="761" y="1327" on="1"/>
        <pt x="1207" y="1327" on="1"/>
      </contour>
      <contour>
        <pt x="1551" y="1327" on="1"/>
        <pt x="1954" y="1327" on="1"/>
        <pt x="1594" y="69" on="1"/>
        <pt x="1414" y="776" on="1"/>
      </contour>
      <contour>
        <pt x="1169" y="1527" on="1"/>
        <pt x="1117" y="1405" on="1"/>
        <pt x="615" y="1520" on="1"/>
        <pt x="568" y="1689" on="1"/>
        <pt x="723" y="1767" on="1"/>
      </contour>
    </TTGlyph>
    <TTGlyph name="X" xMin="-26" yMin="0" xMax="1368" yMax="1327">
      <contour>
        <pt x="956" y="727" on="1"/>
        <pt x="720" y="1072" on="1"/>
        <pt x="875" y="1327" on="1"/>
        <pt x="1349" y="1327" on="1"/>
      </contour>
      <contour>
        <pt x="-26" y="0" on="1"/>
        <pt x="397" y="618" on="1"/>
        <pt x="634" y="258" on="1"/>
        <pt x="479" y="0" on="1"/>
      </contour>
      <contour>
        <pt x="1368" y="0" on="1"/>
        <pt x="886" y="0" on="1"/>
        <pt x="1" y="1327" on="1"/>
        <pt x="478" y="1327" on="1"/>
      </contour>
    </TTGlyph>
    <TTGlyph name="Y" xMin="-26" yMin="0" xMax="1323" yMax="1327">
      <contour>
        <pt x="424" y="422" on="1"/>
        <pt x="-26" y="1327" on="1"/>
        <pt x="408" y="1327" on="1"/>
        <pt x="867" y="391" on="1"/>
        <pt x="867" y="0" on="1"/>
        <pt x="424" y="0" on="1"/>
      </contour>
      <contour>
        <pt x="895" y="484" on="1"/>
        <pt x="680" y="920" on="1"/>
        <pt x="898" y="1327" on="1"/>
        <pt x="1323" y="1327" on="1"/>
      </contour>
    </TTGlyph>
    <TTGlyph name="Yacute" xMin="-26" yMin="0" xMax="1323" yMax="1766">
      <contour>
        <pt x="424" y="422" on="1"/>
        <pt x="-26" y="1327" on="1"/>
        <pt x="408" y="1327" on="1"/>
        <pt x="867" y="391" on="1"/>
        <pt x="867" y="0" on="1"/>
        <pt x="424" y="0" on="1"/>
      </contour>
      <contour>
        <pt x="895" y="484" on="1"/>
        <pt x="680" y="920" on="1"/>
        <pt x="898" y="1327" on="1"/>
        <pt x="1323" y="1327" on="1"/>
      </contour>
      <contour>
        <pt x="934" y="1766" on="1"/>
        <pt x="1089" y="1688" on="1"/>
        <pt x="1042" y="1519" on="1"/>
        <pt x="539" y="1404" on="1"/>
        <pt x="488" y="1526" on="1"/>
      </contour>
    </TTGlyph>
    <TTGlyph name="Ycircumflex" xMin="-26" yMin="0" xMax="1323" yMax="1731">
      <contour>
        <pt x="424" y="422" on="1"/>
        <pt x="-26" y="1327" on="1"/>
        <pt x="408" y="1327" on="1"/>
        <pt x="867" y="391" on="1"/>
        <pt x="867" y="0" on="1"/>
        <pt x="424" y="0" on="1"/>
      </contour>
      <contour>
        <pt x="895" y="484" on="1"/>
        <pt x="680" y="920" on="1"/>
        <pt x="898" y="1327" on="1"/>
        <pt x="1323" y="1327" on="1"/>
      </contour>
      <contour>
        <pt x="521" y="1731" on="1"/>
        <pt x="773" y="1731" on="1"/>
        <pt x="1027" y="1471" on="1"/>
        <pt x="951" y="1392" on="1"/>
        <pt x="648" y="1551" on="1"/>
        <pt x="342" y="1392" on="1"/>
        <pt x="265" y="1472" on="1"/>
      </contour>
    </TTGlyph>
    <TTGlyph name="Ydieresis" xMin="-26" yMin="0" xMax="1323" yMax="1741">
      <contour>
        <pt x="424" y="422" on="1"/>
        <pt x="-26" y="1327" on="1"/>
        <pt x="408" y="1327" on="1"/>
        <pt x="867" y="391" on="1"/>
        <pt x="867" y="0" on="1"/>
        <pt x="424" y="0" on="1"/>
      </contour>
      <contour>
        <pt x="895" y="484" on="1"/>
        <pt x="680" y="920" on="1"/>
        <pt x="898" y="1327" on="1"/>
        <pt x="1323" y="1327" on="1"/>
      </contour>
      <contour>
        <pt x="216" y="1741" on="1"/>
        <pt x="552" y="1741" on="1"/>
        <pt x="552" y="1460" on="1"/>
        <pt x="216" y="1460" on="1"/>
      </contour>
      <contour>
        <pt x="746" y="1741" on="1"/>
        <pt x="1082" y="1741" on="1"/>
        <pt x="1082" y="1460" on="1"/>
        <pt x="746" y="1460" on="1"/>
      </contour>
    </TTGlyph>
    <TTGlyph name="Ygrave" xMin="-26" yMin="0" xMax="1323" yMax="1766">
      <contour>
        <pt x="424" y="422" on="1"/>
        <pt x="-26" y="1327" on="1"/>
        <pt x="408" y="1327" on="1"/>
        <pt x="867" y="391" on="1"/>
        <pt x="867" y="0" on="1"/>
        <pt x="424" y="0" on="1"/>
      </contour>
      <contour>
        <pt x="895" y="484" on="1"/>
        <pt x="680" y="920" on="1"/>
        <pt x="898" y="1327" on="1"/>
        <pt x="1323" y="1327" on="1"/>
      </contour>
      <contour>
        <pt x="808" y="1526" on="1"/>
        <pt x="756" y="1404" on="1"/>
        <pt x="254" y="1519" on="1"/>
        <pt x="207" y="1688" on="1"/>
        <pt x="362" y="1766" on="1"/>
      </contour>
    </TTGlyph>
    <TTGlyph name="Z" xMin="52" yMin="0" xMax="1219" yMax="1327">
      <contour>
        <pt x="52" y="248" on="1"/>
        <pt x="919" y="1327" on="1"/>
        <pt x="1219" y="1327" on="1"/>
        <pt x="1219" y="1070" on="1"/>
        <pt x="343" y="0" on="1"/>
        <pt x="52" y="0" on="1"/>
      </contour>
      <contour>
        <pt x="1201" y="0" on="1"/>
        <pt x="432" y="0" on="1"/>
        <pt x="684" y="291" on="1"/>
        <pt x="1201" y="291" on="1"/>
      </contour>
      <contour>
        <pt x="79" y="1327" on="1"/>
        <pt x="832" y="1327" on="1"/>
        <pt x="581" y="1037" on="1"/>
        <pt x="79" y="1037" on="1"/>
      </contour>
    </TTGlyph>
    <TTGlyph name="Zacute" xMin="52" yMin="0" xMax="1219" yMax="1767">
      <contour>
        <pt x="52" y="248" on="1"/>
        <pt x="919" y="1327" on="1"/>
        <pt x="1219" y="1327" on="1"/>
        <pt x="1219" y="1070" on="1"/>
        <pt x="343" y="0" on="1"/>
        <pt x="52" y="0" on="1"/>
      </contour>
      <contour>
        <pt x="1201" y="0" on="1"/>
        <pt x="432" y="0" on="1"/>
        <pt x="684" y="291" on="1"/>
        <pt x="1201" y="291" on="1"/>
      </contour>
      <contour>
        <pt x="79" y="1327" on="1"/>
        <pt x="832" y="1327" on="1"/>
        <pt x="581" y="1037" on="1"/>
        <pt x="79" y="1037" on="1"/>
      </contour>
      <contour>
        <pt x="934" y="1767" on="1"/>
        <pt x="1089" y="1689" on="1"/>
        <pt x="1042" y="1520" on="1"/>
        <pt x="539" y="1405" on="1"/>
        <pt x="488" y="1527" on="1"/>
      </contour>
    </TTGlyph>
    <TTGlyph name="Zcaron" xMin="52" yMin="0" xMax="1219" yMax="1732">
      <contour>
        <pt x="52" y="248" on="1"/>
        <pt x="919" y="1327" on="1"/>
        <pt x="1219" y="1327" on="1"/>
        <pt x="1219" y="1070" on="1"/>
        <pt x="343" y="0" on="1"/>
        <pt x="52" y="0" on="1"/>
      </contour>
      <contour>
        <pt x="1201" y="0" on="1"/>
        <pt x="432" y="0" on="1"/>
        <pt x="684" y="291" on="1"/>
        <pt x="1201" y="291" on="1"/>
      </contour>
      <contour>
        <pt x="79" y="1327" on="1"/>
        <pt x="832" y="1327" on="1"/>
        <pt x="581" y="1037" on="1"/>
        <pt x="79" y="1037" on="1"/>
      </contour>
      <contour>
        <pt x="775" y="1393" on="1"/>
        <pt x="523" y="1393" on="1"/>
        <pt x="269" y="1654" on="1"/>
        <pt x="346" y="1732" on="1"/>
        <pt x="648" y="1574" on="1"/>
        <pt x="954" y="1732" on="1"/>
        <pt x="1032" y="1653" on="1"/>
      </contour>
    </TTGlyph>
    <TTGlyph name="Zdotaccent" xMin="52" yMin="0" xMax="1219" yMax="1682">
      <contour>
        <pt x="52" y="248" on="1"/>
        <pt x="919" y="1327" on="1"/>
        <pt x="1219" y="1327" on="1"/>
        <pt x="1219" y="1070" on="1"/>
        <pt x="343" y="0" on="1"/>
        <pt x="52" y="0" on="1"/>
      </contour>
      <contour>
        <pt x="1201" y="0" on="1"/>
        <pt x="432" y="0" on="1"/>
        <pt x="684" y="291" on="1"/>
        <pt x="1201" y="291" on="1"/>
      </contour>
      <contour>
        <pt x="79" y="1327" on="1"/>
        <pt x="832" y="1327" on="1"/>
        <pt x="581" y="1037" on="1"/>
        <pt x="79" y="1037" on="1"/>
      </contour>
      <contour>
        <pt x="482" y="1682" on="1"/>
        <pt x="818" y="1682" on="1"/>
        <pt x="818" y="1461" on="1"/>
        <pt x="482" y="1461" on="1"/>
      </contour>
    </TTGlyph>
    <TTGlyph name="a" xMin="86" yMin="0" xMax="1236" yMax="1062">
      <contour>
        <pt x="804" y="0" on="1"/>
        <pt x="804" y="797" on="1"/>
        <pt x="175" y="797" on="1"/>
        <pt x="175" y="929" on="1"/>
        <pt x="308" y="1062" on="1"/>
        <pt x="971" y="1062" on="1"/>
        <pt x="1236" y="797" on="1"/>
        <pt x="1236" y="0" on="1"/>
      </contour>
      <contour>
        <pt x="734" y="618" on="1"/>
        <pt x="734" y="434" on="1"/>
        <pt x="506" y="434" on="1"/>
        <pt x="506" y="248" on="1"/>
        <pt x="734" y="248" on="1"/>
        <pt x="734" y="131" on="1"/>
        <pt x="602" y="0" on="1"/>
        <pt x="264" y="0" on="1"/>
        <pt x="86" y="175" on="1"/>
        <pt x="86" y="441" on="1"/>
        <pt x="264" y="618" on="1"/>
      </contour>
    </TTGlyph>
    <TTGlyph name="aacute" xMin="86" yMin="0" xMax="1236" yMax="1607">
      <contour>
        <pt x="804" y="0" on="1"/>
        <pt x="804" y="797" on="1"/>
        <pt x="175" y="797" on="1"/>
        <pt x="175" y="929" on="1"/>
        <pt x="308" y="1062" on="1"/>
        <pt x="971" y="1062" on="1"/>
        <pt x="1236" y="797" on="1"/>
        <pt x="1236" y="0" on="1"/>
      </contour>
      <contour>
        <pt x="734" y="618" on="1"/>
        <pt x="734" y="434" on="1"/>
        <pt x="506" y="434" on="1"/>
        <pt x="506" y="248" on="1"/>
        <pt x="734" y="248" on="1"/>
        <pt x="734" y="131" on="1"/>
        <pt x="602" y="0" on="1"/>
        <pt x="264" y="0" on="1"/>
        <pt x="86" y="175" on="1"/>
        <pt x="86" y="441" on="1"/>
        <pt x="264" y="618" on="1"/>
      </contour>
      <contour>
        <pt x="867" y="1607" on="1"/>
        <pt x="1051" y="1522" on="1"/>
        <pt x="997" y="1311" on="1"/>
        <pt x="443" y="1144" on="1"/>
        <pt x="381" y="1291" on="1"/>
      </contour>
    </TTGlyph>
    <TTGlyph name="abreve" xMin="86" yMin="0" xMax="1236" yMax="1569">
      <contour>
        <pt x="804" y="0" on="1"/>
        <pt x="804" y="797" on="1"/>
        <pt x="175" y="797" on="1"/>
        <pt x="175" y="929" on="1"/>
        <pt x="308" y="1062" on="1"/>
        <pt x="971" y="1062" on="1"/>
        <pt x="1236" y="797" on="1"/>
        <pt x="1236" y="0" on="1"/>
      </contour>
      <contour>
        <pt x="734" y="618" on="1"/>
        <pt x="734" y="434" on="1"/>
        <pt x="506" y="434" on="1"/>
        <pt x="506" y="248" on="1"/>
        <pt x="734" y="248" on="1"/>
        <pt x="734" y="131" on="1"/>
        <pt x="602" y="0" on="1"/>
        <pt x="264" y="0" on="1"/>
        <pt x="86" y="175" on="1"/>
        <pt x="86" y="441" on="1"/>
        <pt x="264" y="618" on="1"/>
      </contour>
      <contour>
        <pt x="283" y="1530" on="1"/>
        <pt x="421" y="1569" on="1"/>
        <pt x="503" y="1387" on="1"/>
        <pt x="828" y="1387" on="1"/>
        <pt x="910" y="1569" on="1"/>
        <pt x="1048" y="1530" on="1"/>
        <pt x="992" y="1299" on="1"/>
        <pt x="846" y="1155" on="1"/>
        <pt x="485" y="1155" on="1"/>
        <pt x="339" y="1299" on="1"/>
      </contour>
    </TTGlyph>
    <TTGlyph name="acircumflex" xMin="86" yMin="0" xMax="1236" yMax="1585">
      <contour>
        <pt x="804" y="0" on="1"/>
        <pt x="804" y="797" on="1"/>
        <pt x="175" y="797" on="1"/>
        <pt x="175" y="929" on="1"/>
        <pt x="308" y="1062" on="1"/>
        <pt x="971" y="1062" on="1"/>
        <pt x="1236" y="797" on="1"/>
        <pt x="1236" y="0" on="1"/>
      </contour>
      <contour>
        <pt x="734" y="618" on="1"/>
        <pt x="734" y="434" on="1"/>
        <pt x="506" y="434" on="1"/>
        <pt x="506" y="248" on="1"/>
        <pt x="734" y="248" on="1"/>
        <pt x="734" y="131" on="1"/>
        <pt x="602" y="0" on="1"/>
        <pt x="264" y="0" on="1"/>
        <pt x="86" y="175" on="1"/>
        <pt x="86" y="441" on="1"/>
        <pt x="264" y="618" on="1"/>
      </contour>
      <contour>
        <pt x="1113" y="1250" on="1"/>
        <pt x="1020" y="1153" on="1"/>
        <pt x="666" y="1363" on="1"/>
        <pt x="313" y="1153" on="1"/>
        <pt x="219" y="1250" on="1"/>
        <pt x="514" y="1585" on="1"/>
        <pt x="818" y="1585" on="1"/>
      </contour>
    </TTGlyph>
    <TTGlyph name="acute" xMin="274" yMin="1144" xMax="944" yMax="1607">
      <contour>
        <pt x="760" y="1607" on="1"/>
        <pt x="944" y="1522" on="1"/>
        <pt x="890" y="1311" on="1"/>
        <pt x="336" y="1144" on="1"/>
        <pt x="274" y="1291" on="1"/>
      </contour>
    </TTGlyph>
    <TTGlyph name="acute.cap" xMin="156" yMin="1404" xMax="757" yMax="1766">
      <contour>
        <pt x="602" y="1766" on="1"/>
        <pt x="757" y="1688" on="1"/>
        <pt x="710" y="1519" on="1"/>
        <pt x="207" y="1404" on="1"/>
        <pt x="156" y="1526" on="1"/>
      </contour>
    </TTGlyph>
    <TTGlyph name="adieresis" xMin="86" yMin="0" xMax="1236" yMax="1560">
      <contour>
        <pt x="804" y="0" on="1"/>
        <pt x="804" y="797" on="1"/>
        <pt x="175" y="797" on="1"/>
        <pt x="175" y="929" on="1"/>
        <pt x="308" y="1062" on="1"/>
        <pt x="971" y="1062" on="1"/>
        <pt x="1236" y="797" on="1"/>
        <pt x="1236" y="0" on="1"/>
      </contour>
      <contour>
        <pt x="734" y="618" on="1"/>
        <pt x="734" y="434" on="1"/>
        <pt x="506" y="434" on="1"/>
        <pt x="506" y="248" on="1"/>
        <pt x="734" y="248" on="1"/>
        <pt x="734" y="131" on="1"/>
        <pt x="602" y="0" on="1"/>
        <pt x="264" y="0" on="1"/>
        <pt x="86" y="175" on="1"/>
        <pt x="86" y="441" on="1"/>
        <pt x="264" y="618" on="1"/>
      </contour>
      <contour>
        <pt x="232" y="1560" on="1"/>
        <pt x="568" y="1560" on="1"/>
        <pt x="568" y="1279" on="1"/>
        <pt x="232" y="1279" on="1"/>
      </contour>
      <contour>
        <pt x="762" y="1560" on="1"/>
        <pt x="1098" y="1560" on="1"/>
        <pt x="1098" y="1279" on="1"/>
        <pt x="762" y="1279" on="1"/>
      </contour>
    </TTGlyph>
    <TTGlyph name="ae" xMin="86" yMin="0" xMax="1945" yMax="1062">
      <contour>
        <pt x="308" y="1062" on="1"/>
        <pt x="925" y="1062" on="1"/>
        <pt x="1017" y="973" on="1"/>
        <pt x="1104" y="1062" on="1"/>
        <pt x="1336" y="1062" on="1"/>
        <pt x="1336" y="797" on="1"/>
        <pt x="1236" y="797" on="1"/>
        <pt x="1236" y="265" on="1"/>
        <pt x="1336" y="265" on="1"/>
        <pt x="1336" y="0" on="1"/>
        <pt x="1104" y="0" on="1"/>
        <pt x="1015" y="88" on="1"/>
        <pt x="925" y="0" on="1"/>
        <pt x="696" y="0" on="1"/>
        <pt x="696" y="265" on="1"/>
        <pt x="794" y="265" on="1"/>
        <pt x="794" y="797" on="1"/>
        <pt x="175" y="797" on="1"/>
        <pt x="175" y="929" on="1"/>
      </contour>
      <contour>
        <pt x="724" y="628" on="1"/>
        <pt x="724" y="434" on="1"/>
        <pt x="529" y="434" on="1"/>
        <pt x="529" y="265" on="1"/>
        <pt x="626" y="265" on="1"/>
        <pt x="626" y="0" on="1"/>
        <pt x="264" y="0" on="1"/>
        <pt x="86" y="175" on="1"/>
        <pt x="86" y="451" on="1"/>
        <pt x="264" y="628" on="1"/>
      </contour>
      <contour>
        <pt x="1309" y="434" on="1"/>
        <pt x="1309" y="628" on="1"/>
        <pt x="1502" y="628" on="1"/>
        <pt x="1502" y="797" on="1"/>
        <pt x="1406" y="797" on="1"/>
        <pt x="1406" y="1062" on="1"/>
        <pt x="1679" y="1062" on="1"/>
        <pt x="1945" y="797" on="1"/>
        <pt x="1945" y="434" on="1"/>
      </contour>
      <contour>
        <pt x="1406" y="0" on="1"/>
        <pt x="1406" y="265" on="1"/>
        <pt x="1900" y="265" on="1"/>
        <pt x="1900" y="133" on="1"/>
        <pt x="1768" y="0" on="1"/>
      </contour>
    </TTGlyph>
    <TTGlyph name="aeacute" xMin="86" yMin="0" xMax="1945" yMax="1607">
      <contour>
        <pt x="308" y="1062" on="1"/>
        <pt x="925" y="1062" on="1"/>
        <pt x="1017" y="973" on="1"/>
        <pt x="1104" y="1062" on="1"/>
        <pt x="1336" y="1062" on="1"/>
        <pt x="1336" y="797" on="1"/>
        <pt x="1236" y="797" on="1"/>
        <pt x="1236" y="265" on="1"/>
        <pt x="1336" y="265" on="1"/>
        <pt x="1336" y="0" on="1"/>
        <pt x="1104" y="0" on="1"/>
        <pt x="1015" y="88" on="1"/>
        <pt x="925" y="0" on="1"/>
        <pt x="696" y="0" on="1"/>
        <pt x="696" y="265" on="1"/>
        <pt x="794" y="265" on="1"/>
        <pt x="794" y="797" on="1"/>
        <pt x="175" y="797" on="1"/>
        <pt x="175" y="929" on="1"/>
      </contour>
      <contour>
        <pt x="724" y="628" on="1"/>
        <pt x="724" y="434" on="1"/>
        <pt x="529" y="434" on="1"/>
        <pt x="529" y="265" on="1"/>
        <pt x="626" y="265" on="1"/>
        <pt x="626" y="0" on="1"/>
        <pt x="264" y="0" on="1"/>
        <pt x="86" y="175" on="1"/>
        <pt x="86" y="451" on="1"/>
        <pt x="264" y="628" on="1"/>
      </contour>
      <contour>
        <pt x="1309" y="434" on="1"/>
        <pt x="1309" y="628" on="1"/>
        <pt x="1502" y="628" on="1"/>
        <pt x="1502" y="797" on="1"/>
        <pt x="1406" y="797" on="1"/>
        <pt x="1406" y="1062" on="1"/>
        <pt x="1679" y="1062" on="1"/>
        <pt x="1945" y="797" on="1"/>
        <pt x="1945" y="434" on="1"/>
      </contour>
      <contour>
        <pt x="1406" y="0" on="1"/>
        <pt x="1406" y="265" on="1"/>
        <pt x="1900" y="265" on="1"/>
        <pt x="1900" y="133" on="1"/>
        <pt x="1768" y="0" on="1"/>
      </contour>
      <contour>
        <pt x="1221" y="1607" on="1"/>
        <pt x="1405" y="1522" on="1"/>
        <pt x="1351" y="1311" on="1"/>
        <pt x="797" y="1144" on="1"/>
        <pt x="735" y="1291" on="1"/>
      </contour>
    </TTGlyph>
    <TTGlyph name="agrave" xMin="86" yMin="0" xMax="1236" yMax="1607">
      <contour>
        <pt x="804" y="0" on="1"/>
        <pt x="804" y="797" on="1"/>
        <pt x="175" y="797" on="1"/>
        <pt x="175" y="929" on="1"/>
        <pt x="308" y="1062" on="1"/>
        <pt x="971" y="1062" on="1"/>
        <pt x="1236" y="797" on="1"/>
        <pt x="1236" y="0" on="1"/>
      </contour>
      <contour>
        <pt x="734" y="618" on="1"/>
        <pt x="734" y="434" on="1"/>
        <pt x="506" y="434" on="1"/>
        <pt x="506" y="248" on="1"/>
        <pt x="734" y="248" on="1"/>
        <pt x="734" y="131" on="1"/>
        <pt x="602" y="0" on="1"/>
        <pt x="264" y="0" on="1"/>
        <pt x="86" y="175" on="1"/>
        <pt x="86" y="441" on="1"/>
        <pt x="264" y="618" on="1"/>
      </contour>
      <contour>
        <pt x="959" y="1291" on="1"/>
        <pt x="898" y="1144" on="1"/>
        <pt x="343" y="1311" on="1"/>
        <pt x="289" y="1522" on="1"/>
        <pt x="473" y="1607" on="1"/>
      </contour>
    </TTGlyph>
    <TTGlyph name="amacron" xMin="86" yMin="0" xMax="1236" yMax="1393">
      <contour>
        <pt x="804" y="0" on="1"/>
        <pt x="804" y="797" on="1"/>
        <pt x="175" y="797" on="1"/>
        <pt x="175" y="929" on="1"/>
        <pt x="308" y="1062" on="1"/>
        <pt x="971" y="1062" on="1"/>
        <pt x="1236" y="797" on="1"/>
        <pt x="1236" y="0" on="1"/>
      </contour>
      <contour>
        <pt x="734" y="618" on="1"/>
        <pt x="734" y="434" on="1"/>
        <pt x="506" y="434" on="1"/>
        <pt x="506" y="248" on="1"/>
        <pt x="734" y="248" on="1"/>
        <pt x="734" y="131" on="1"/>
        <pt x="602" y="0" on="1"/>
        <pt x="264" y="0" on="1"/>
        <pt x="86" y="175" on="1"/>
        <pt x="86" y="441" on="1"/>
        <pt x="264" y="618" on="1"/>
      </contour>
      <contour>
        <pt x="302" y="1393" on="1"/>
        <pt x="1031" y="1393" on="1"/>
        <pt x="1031" y="1223" on="1"/>
        <pt x="302" y="1223" on="1"/>
      </contour>
    </TTGlyph>
    <TTGlyph name="ampersand" xMin="151" yMin="0" xMax="1579" yMax="1327">
      <contour>
        <pt x="286" y="904" on="1"/>
        <pt x="285" y="905" on="1"/>
        <pt x="285" y="1103" on="1"/>
        <pt x="511" y="1327" on="1"/>
        <pt x="710" y="1327" on="1"/>
        <pt x="710" y="980" on="1"/>
        <pt x="1060" y="574" on="1"/>
        <pt x="1361" y="808" on="1"/>
        <pt x="1579" y="556" on="1"/>
        <pt x="1283" y="315" on="1"/>
        <pt x="1555" y="0" on="1"/>
        <pt x="1066" y="0" on="1"/>
      </contour>
      <contour>
        <pt x="374" y="0" on="1"/>
        <pt x="151" y="219" on="1"/>
        <pt x="151" y="539" on="1"/>
        <pt x="342" y="736" on="1"/>
        <pt x="548" y="496" on="1"/>
        <pt x="548" y="255" on="1"/>
        <pt x="759" y="255" on="1"/>
        <pt x="933" y="49" on="1"/>
        <pt x="876" y="0" on="1"/>
      </contour>
      <contour>
        <pt x="1365" y="1105" on="1"/>
        <pt x="1365" y="929" on="1"/>
        <pt x="950" y="929" on="1"/>
        <pt x="950" y="1062" on="1"/>
        <pt x="780" y="1062" on="1"/>
        <pt x="780" y="1327" on="1"/>
        <pt x="1143" y="1327" on="1"/>
      </contour>
    </TTGlyph>
    <TTGlyph name="aogonek" xMin="86" yMin="-445" xMax="1236" yMax="1062">
      <contour>
        <pt x="804" y="0" on="1"/>
        <pt x="804" y="797" on="1"/>
        <pt x="175" y="797" on="1"/>
        <pt x="175" y="929" on="1"/>
        <pt x="308" y="1062" on="1"/>
        <pt x="971" y="1062" on="1"/>
        <pt x="1236" y="797" on="1"/>
        <pt x="1236" y="0" on="1"/>
      </contour>
      <contour>
        <pt x="734" y="618" on="1"/>
        <pt x="734" y="434" on="1"/>
        <pt x="506" y="434" on="1"/>
        <pt x="506" y="248" on="1"/>
        <pt x="734" y="248" on="1"/>
        <pt x="734" y="131" on="1"/>
        <pt x="602" y="0" on="1"/>
        <pt x="264" y="0" on="1"/>
        <pt x="86" y="175" on="1"/>
        <pt x="86" y="441" on="1"/>
        <pt x="264" y="618" on="1"/>
      </contour>
      <contour>
        <pt x="1235" y="-175" on="1"/>
        <pt x="1235" y="-445" on="1"/>
        <pt x="953" y="-445" on="1"/>
        <pt x="778" y="-245" on="1"/>
        <pt x="778" y="-62" on="1"/>
        <pt x="980" y="-62" on="1"/>
        <pt x="980" y="-175" on="1"/>
      </contour>
    </TTGlyph>
    <TTGlyph name="apple" xMin="274" yMin="130" xMax="1339" yMax="1194">
      <contour>
        <pt x="576" y="1194" on="1"/>
        <pt x="1035" y="1194" on="1"/>
        <pt x="1339" y="890" on="1"/>
        <pt x="1339" y="432" on="1"/>
        <pt x="1035" y="130" on="1"/>
        <pt x="576" y="130" on="1"/>
        <pt x="274" y="432" on="1"/>
        <pt x="274" y="890" on="1"/>
      </contour>
      <contour>
        <pt x="1108" y="986" on="1"/>
        <pt x="924" y="922" on="1"/>
        <pt x="924" y="874" on="1"/>
        <pt x="885" y="874" on="1"/>
        <pt x="885" y="763" on="1"/>
        <pt x="924" y="763" on="1"/>
        <pt x="924" y="540" on="1"/>
        <pt x="1035" y="429" on="1"/>
        <pt x="1221" y="429" on="1"/>
        <pt x="1221" y="540" on="1"/>
        <pt x="1108" y="540" on="1"/>
      </contour>
      <contour>
        <pt x="380" y="770" on="1"/>
        <pt x="380" y="689" on="1"/>
        <pt x="474" y="596" on="1"/>
        <pt x="677" y="596" on="1"/>
        <pt x="677" y="429" on="1"/>
        <pt x="757" y="429" on="1"/>
        <pt x="863" y="532" on="1"/>
        <pt x="863" y="613" on="1"/>
        <pt x="772" y="706" on="1"/>
        <pt x="566" y="706" on="1"/>
        <pt x="566" y="874" on="1"/>
        <pt x="483" y="874" on="1"/>
      </contour>
      <contour>
        <pt x="566" y="566" on="1"/>
        <pt x="380" y="566" on="1"/>
        <pt x="380" y="520" on="1"/>
        <pt x="473" y="429" on="1"/>
        <pt x="651" y="429" on="1"/>
        <pt x="651" y="511" on="1"/>
        <pt x="566" y="511" on="1"/>
      </contour>
      <contour>
        <pt x="677" y="736" on="1"/>
        <pt x="848" y="736" on="1"/>
        <pt x="848" y="797" on="1"/>
        <pt x="772" y="874" on="1"/>
        <pt x="594" y="874" on="1"/>
        <pt x="594" y="791" on="1"/>
        <pt x="677" y="791" on="1"/>
      </contour>
      <contour>
        <pt x="1221" y="763" on="1"/>
        <pt x="1221" y="874" on="1"/>
        <pt x="1136" y="874" on="1"/>
        <pt x="1136" y="763" on="1"/>
      </contour>
    </TTGlyph>
    <TTGlyph name="approxequal" xMin="110" yMin="174" xMax="1387" yMax="1188">
      <contour>
        <pt x="1153" y="717" on="1"/>
        <pt x="750" y="717" on="1"/>
        <pt x="517" y="950" on="1"/>
        <pt x="409" y="950" on="1"/>
        <pt x="200" y="806" on="1"/>
        <pt x="113" y="894" on="1"/>
        <pt x="350" y="1188" on="1"/>
        <pt x="750" y="1188" on="1"/>
        <pt x="988" y="950" on="1"/>
        <pt x="1091" y="950" on="1"/>
        <pt x="1299" y="1099" on="1"/>
        <pt x="1387" y="1009" on="1"/>
      </contour>
      <contour>
        <pt x="1150" y="174" on="1"/>
        <pt x="747" y="174" on="1"/>
        <pt x="514" y="407" on="1"/>
        <pt x="406" y="407" on="1"/>
        <pt x="197" y="263" on="1"/>
        <pt x="110" y="351" on="1"/>
        <pt x="347" y="645" on="1"/>
        <pt x="747" y="645" on="1"/>
        <pt x="985" y="407" on="1"/>
        <pt x="1088" y="407" on="1"/>
        <pt x="1296" y="556" on="1"/>
        <pt x="1384" y="466" on="1"/>
      </contour>
    </TTGlyph>
    <TTGlyph name="aring" xMin="86" yMin="0" xMax="1236" yMax="1682">
      <contour>
        <pt x="804" y="0" on="1"/>
        <pt x="804" y="797" on="1"/>
        <pt x="175" y="797" on="1"/>
        <pt x="175" y="929" on="1"/>
        <pt x="308" y="1062" on="1"/>
        <pt x="971" y="1062" on="1"/>
        <pt x="1236" y="797" on="1"/>
        <pt x="1236" y="0" on="1"/>
      </contour>
      <contour>
        <pt x="734" y="618" on="1"/>
        <pt x="734" y="434" on="1"/>
        <pt x="506" y="434" on="1"/>
        <pt x="506" y="248" on="1"/>
        <pt x="734" y="248" on="1"/>
        <pt x="734" y="131" on="1"/>
        <pt x="602" y="0" on="1"/>
        <pt x="264" y="0" on="1"/>
        <pt x="86" y="175" on="1"/>
        <pt x="86" y="441" on="1"/>
        <pt x="264" y="618" on="1"/>
      </contour>
      <contour>
        <pt x="699" y="1200" on="1"/>
        <pt x="699" y="1356" on="1"/>
        <pt x="777" y="1356" on="1"/>
        <pt x="777" y="1527" on="1"/>
        <pt x="699" y="1527" on="1"/>
        <pt x="699" y="1682" on="1"/>
        <pt x="796" y="1682" on="1"/>
        <pt x="935" y="1545" on="1"/>
        <pt x="935" y="1337" on="1"/>
        <pt x="796" y="1200" on="1"/>
      </contour>
      <contour>
        <pt x="630" y="1356" on="1"/>
        <pt x="630" y="1200" on="1"/>
        <pt x="531" y="1200" on="1"/>
        <pt x="394" y="1337" on="1"/>
        <pt x="394" y="1545" on="1"/>
        <pt x="531" y="1682" on="1"/>
        <pt x="630" y="1682" on="1"/>
        <pt x="630" y="1527" on="1"/>
        <pt x="553" y="1527" on="1"/>
        <pt x="553" y="1356" on="1"/>
      </contour>
    </TTGlyph>
    <TTGlyph name="asciicircum" xMin="174" yMin="100" xMax="1116" yMax="1167">
      <contour>
        <pt x="534" y="1167" on="1"/>
        <pt x="770" y="1167" on="1"/>
        <pt x="1116" y="100" on="1"/>
        <pt x="850" y="100" on="1"/>
      </contour>
      <contour>
        <pt x="476" y="1113" on="1"/>
        <pt x="598" y="681" on="1"/>
        <pt x="440" y="100" on="1"/>
        <pt x="174" y="100" on="1"/>
      </contour>
    </TTGlyph>
    <TTGlyph name="asciitilde" xMin="113" yMin="336" xMax="1387" yMax="807">
      <contour>
        <pt x="1153" y="336" on="1"/>
        <pt x="750" y="336" on="1"/>
        <pt x="517" y="569" on="1"/>
        <pt x="409" y="569" on="1"/>
        <pt x="200" y="425" on="1"/>
        <pt x="113" y="513" on="1"/>
        <pt x="350" y="807" on="1"/>
        <pt x="750" y="807" on="1"/>
        <pt x="988" y="569" on="1"/>
        <pt x="1091" y="569" on="1"/>
        <pt x="1299" y="718" on="1"/>
        <pt x="1387" y="628" on="1"/>
      </contour>
    </TTGlyph>
    <TTGlyph name="asterisk" xMin="161" yMin="461" xMax="1231" yMax="1481">
      <contour>
        <pt x="696" y="678" on="1"/>
        <pt x="480" y="461" on="1"/>
        <pt x="289" y="600" on="1"/>
        <pt x="429" y="871" on="1"/>
        <pt x="161" y="1008" on="1"/>
        <pt x="232" y="1230" on="1"/>
        <pt x="531" y="1184" on="1"/>
        <pt x="578" y="1481" on="1"/>
        <pt x="811" y="1481" on="1"/>
        <pt x="857" y="1184" on="1"/>
        <pt x="1159" y="1233" on="1"/>
        <pt x="1231" y="1008" on="1"/>
        <pt x="960" y="871" on="1"/>
        <pt x="1102" y="598" on="1"/>
        <pt x="912" y="461" on="1"/>
      </contour>
    </TTGlyph>
    <TTGlyph name="at" xMin="95" yMin="-43" xMax="1490" yMax="1282">
      <contour>
        <pt x="95" y="264" on="1"/>
        <pt x="95" y="973" on="1"/>
        <pt x="402" y="1282" on="1"/>
        <pt x="765" y="1282" on="1"/>
        <pt x="765" y="1062" on="1"/>
        <pt x="533" y="1062" on="1"/>
        <pt x="315" y="844" on="1"/>
        <pt x="315" y="395" on="1"/>
        <pt x="533" y="177" on="1"/>
        <pt x="785" y="177" on="1"/>
        <pt x="785" y="-43" on="1"/>
        <pt x="400" y="-43" on="1"/>
      </contour>
      <contour>
        <pt x="1048" y="1062" on="1"/>
        <pt x="819" y="1062" on="1"/>
        <pt x="819" y="1282" on="1"/>
        <pt x="1182" y="1282" on="1"/>
        <pt x="1490" y="973" on="1"/>
        <pt x="1490" y="398" on="1"/>
        <pt x="1271" y="398" on="1"/>
        <pt x="1271" y="841" on="1"/>
      </contour>
      <contour>
        <pt x="687" y="398" on="1"/>
        <pt x="687" y="841" on="1"/>
        <pt x="899" y="841" on="1"/>
        <pt x="899" y="321" on="1"/>
        <pt x="1043" y="178" on="1"/>
        <pt x="1359" y="177" on="1"/>
        <pt x="1182" y="-43" on="1"/>
        <pt x="839" y="-43" on="1"/>
        <pt x="839" y="398" on="1"/>
      </contour>
    </TTGlyph>
    <TTGlyph name="atilde" xMin="86" yMin="0" xMax="1236" yMax="1558">
      <contour>
        <pt x="804" y="0" on="1"/>
        <pt x="804" y="797" on="1"/>
        <pt x="175" y="797" on="1"/>
        <pt x="175" y="929" on="1"/>
        <pt x="308" y="1062" on="1"/>
        <pt x="971" y="1062" on="1"/>
        <pt x="1236" y="797" on="1"/>
        <pt x="1236" y="0" on="1"/>
      </contour>
      <contour>
        <pt x="734" y="618" on="1"/>
        <pt x="734" y="434" on="1"/>
        <pt x="506" y="434" on="1"/>
        <pt x="506" y="248" on="1"/>
        <pt x="734" y="248" on="1"/>
        <pt x="734" y="131" on="1"/>
        <pt x="602" y="0" on="1"/>
        <pt x="264" y="0" on="1"/>
        <pt x="86" y="175" on="1"/>
        <pt x="86" y="441" on="1"/>
        <pt x="264" y="618" on="1"/>
      </contour>
      <contour>
        <pt x="706" y="1558" on="1"/>
        <pt x="814" y="1407" on="1"/>
        <pt x="881" y="1407" on="1"/>
        <pt x="1019" y="1522" on="1"/>
        <pt x="1106" y="1435" on="1"/>
        <pt x="911" y="1221" on="1"/>
        <pt x="628" y="1221" on="1"/>
        <pt x="520" y="1371" on="1"/>
        <pt x="453" y="1371" on="1"/>
        <pt x="315" y="1257" on="1"/>
        <pt x="228" y="1344" on="1"/>
        <pt x="423" y="1558" on="1"/>
      </contour>
    </TTGlyph>
    <TTGlyph name="b" xMin="104" yMin="0" xMax="1254" yMax="1467">
      <contour>
        <pt x="546" y="1467" on="1"/>
        <pt x="546" y="0" on="1"/>
        <pt x="104" y="0" on="1"/>
        <pt x="104" y="1467" on="1"/>
      </contour>
      <contour>
        <pt x="814" y="797" on="1"/>
        <pt x="616" y="797" on="1"/>
        <pt x="616" y="931" on="1"/>
        <pt x="746" y="1062" on="1"/>
        <pt x="988" y="1062" on="1"/>
        <pt x="1254" y="797" on="1"/>
        <pt x="1254" y="265" on="1"/>
        <pt x="988" y="0" on="1"/>
        <pt x="616" y="0" on="1"/>
        <pt x="616" y="248" on="1"/>
        <pt x="814" y="248" on="1"/>
      </contour>
    </TTGlyph>
    <TTGlyph name="backslash" xMin="-34" yMin="-196" xMax="828" yMax="1418">
      <contour>
        <pt x="216" y="1418" on="1"/>
        <pt x="-34" y="1418" on="1"/>
        <pt x="579" y="-196" on="1"/>
        <pt x="828" y="-196" on="1"/>
      </contour>
    </TTGlyph>
    <TTGlyph name="bar" xMin="230" yMin="-196" xMax="470" yMax="1418">
      <contour>
        <pt x="230" y="-196" on="1"/>
        <pt x="230" y="1418" on="1"/>
        <pt x="470" y="1418" on="1"/>
        <pt x="470" y="-196" on="1"/>
      </contour>
    </TTGlyph>
    <TTGlyph name="braceleft" xMin="87" yMin="-142" xMax="828" yMax="1469">
      <contour>
        <pt x="664" y="817" on="1"/>
        <pt x="520" y="684" on="1"/>
        <pt x="664" y="510" on="1"/>
        <pt x="664" y="124" on="1"/>
        <pt x="828" y="124" on="1"/>
        <pt x="828" y="-142" on="1"/>
        <pt x="495" y="-142" on="1"/>
        <pt x="230" y="124" on="1"/>
        <pt x="230" y="510" on="1"/>
        <pt x="87" y="664" on="1"/>
        <pt x="230" y="817" on="1"/>
        <pt x="230" y="1204" on="1"/>
        <pt x="495" y="1469" on="1"/>
        <pt x="828" y="1469" on="1"/>
        <pt x="828" y="1204" on="1"/>
        <pt x="664" y="1204" on="1"/>
      </contour>
    </TTGlyph>
    <TTGlyph name="braceright" xMin="149" yMin="-142" xMax="890" yMax="1469">
      <contour>
        <pt x="313" y="817" on="1"/>
        <pt x="457" y="684" on="1"/>
        <pt x="313" y="510" on="1"/>
        <pt x="313" y="124" on="1"/>
        <pt x="149" y="124" on="1"/>
        <pt x="149" y="-142" on="1"/>
        <pt x="482" y="-142" on="1"/>
        <pt x="747" y="124" on="1"/>
        <pt x="747" y="510" on="1"/>
        <pt x="890" y="664" on="1"/>
        <pt x="747" y="817" on="1"/>
        <pt x="747" y="1204" on="1"/>
        <pt x="482" y="1469" on="1"/>
        <pt x="149" y="1469" on="1"/>
        <pt x="149" y="1204" on="1"/>
        <pt x="313" y="1204" on="1"/>
      </contour>
    </TTGlyph>
    <TTGlyph name="bracketleft" xMin="274" yMin="-142" xMax="836" yMax="1469">
      <contour>
        <pt x="672" y="124" on="1"/>
        <pt x="836" y="124" on="1"/>
        <pt x="836" y="-142" on="1"/>
        <pt x="274" y="-142" on="1"/>
        <pt x="274" y="1469" on="1"/>
        <pt x="836" y="1469" on="1"/>
        <pt x="836" y="1204" on="1"/>
        <pt x="672" y="1204" on="1"/>
      </contour>
    </TTGlyph>
    <TTGlyph name="bracketright" xMin="142" yMin="-142" xMax="704" yMax="1469">
      <contour>
        <pt x="306" y="124" on="1"/>
        <pt x="142" y="124" on="1"/>
        <pt x="142" y="-142" on="1"/>
        <pt x="704" y="-142" on="1"/>
        <pt x="704" y="1469" on="1"/>
        <pt x="142" y="1469" on="1"/>
        <pt x="142" y="1204" on="1"/>
        <pt x="306" y="1204" on="1"/>
      </contour>
    </TTGlyph>
    <TTGlyph name="breve" xMin="240" yMin="1155" xMax="1005" yMax="1569">
      <contour>
        <pt x="240" y="1530" on="1"/>
        <pt x="378" y="1569" on="1"/>
        <pt x="460" y="1387" on="1"/>
        <pt x="785" y="1387" on="1"/>
        <pt x="867" y="1569" on="1"/>
        <pt x="1005" y="1530" on="1"/>
        <pt x="949" y="1299" on="1"/>
        <pt x="803" y="1155" on="1"/>
        <pt x="442" y="1155" on="1"/>
        <pt x="296" y="1299" on="1"/>
      </contour>
    </TTGlyph>
    <TTGlyph name="breve.cap" xMin="260" yMin="1391" xMax="985" yMax="1755">
      <contour>
        <pt x="260" y="1716" on="1"/>
        <pt x="398" y="1755" on="1"/>
        <pt x="470" y="1603" on="1"/>
        <pt x="775" y="1603" on="1"/>
        <pt x="847" y="1755" on="1"/>
        <pt x="985" y="1716" on="1"/>
        <pt x="949" y="1535" on="1"/>
        <pt x="803" y="1391" on="1"/>
        <pt x="442" y="1391" on="1"/>
        <pt x="296" y="1535" on="1"/>
      </contour>
    </TTGlyph>
    <TTGlyph name="brokenbar" xMin="230" yMin="-196" xMax="468" yMax="1418">
      <contour>
        <pt x="230" y="697" on="1"/>
        <pt x="230" y="1418" on="1"/>
        <pt x="468" y="1418" on="1"/>
        <pt x="468" y="697" on="1"/>
      </contour>
      <contour>
        <pt x="230" y="-196" on="1"/>
        <pt x="230" y="512" on="1"/>
        <pt x="468" y="512" on="1"/>
        <pt x="468" y="-196" on="1"/>
      </contour>
    </TTGlyph>
    <TTGlyph name="bullet" xMin="149" yMin="346" xMax="768" yMax="966">
      <contour>
        <pt x="326" y="966" on="1"/>
        <pt x="592" y="966" on="1"/>
        <pt x="768" y="789" on="1"/>
        <pt x="768" y="524" on="1"/>
        <pt x="592" y="346" on="1"/>
        <pt x="326" y="346" on="1"/>
        <pt x="149" y="524" on="1"/>
        <pt x="149" y="789" on="1"/>
      </contour>
    </TTGlyph>
    <TTGlyph name="c" xMin="95" yMin="0" xMax="1245" yMax="1062">
      <contour>
        <pt x="537" y="0" on="1"/>
        <pt x="360" y="0" on="1"/>
        <pt x="95" y="265" on="1"/>
        <pt x="95" y="797" on="1"/>
        <pt x="360" y="1062" on="1"/>
        <pt x="537" y="1062" on="1"/>
      </contour>
      <contour>
        <pt x="607" y="797" on="1"/>
        <pt x="607" y="1062" on="1"/>
        <pt x="980" y="1062" on="1"/>
        <pt x="1245" y="797" on="1"/>
        <pt x="1245" y="638" on="1"/>
        <pt x="803" y="638" on="1"/>
        <pt x="803" y="797" on="1"/>
      </contour>
      <contour>
        <pt x="607" y="0" on="1"/>
        <pt x="607" y="248" on="1"/>
        <pt x="803" y="248" on="1"/>
        <pt x="803" y="381" on="1"/>
        <pt x="1245" y="381" on="1"/>
        <pt x="1245" y="265" on="1"/>
        <pt x="980" y="0" on="1"/>
      </contour>
    </TTGlyph>
    <TTGlyph name="cacute" xMin="95" yMin="0" xMax="1245" yMax="1607">
      <contour>
        <pt x="537" y="0" on="1"/>
        <pt x="360" y="0" on="1"/>
        <pt x="95" y="265" on="1"/>
        <pt x="95" y="797" on="1"/>
        <pt x="360" y="1062" on="1"/>
        <pt x="537" y="1062" on="1"/>
      </contour>
      <contour>
        <pt x="607" y="797" on="1"/>
        <pt x="607" y="1062" on="1"/>
        <pt x="980" y="1062" on="1"/>
        <pt x="1245" y="797" on="1"/>
        <pt x="1245" y="638" on="1"/>
        <pt x="803" y="638" on="1"/>
        <pt x="803" y="797" on="1"/>
      </contour>
      <contour>
        <pt x="607" y="0" on="1"/>
        <pt x="607" y="248" on="1"/>
        <pt x="803" y="248" on="1"/>
        <pt x="803" y="381" on="1"/>
        <pt x="1245" y="381" on="1"/>
        <pt x="1245" y="265" on="1"/>
        <pt x="980" y="0" on="1"/>
      </contour>
      <contour>
        <pt x="881" y="1607" on="1"/>
        <pt x="1065" y="1522" on="1"/>
        <pt x="1011" y="1311" on="1"/>
        <pt x="457" y="1144" on="1"/>
        <pt x="395" y="1291" on="1"/>
      </contour>
    </TTGlyph>
    <TTGlyph name="caron" xMin="173" yMin="1153" xMax="1067" yMax="1584">
      <contour>
        <pt x="173" y="1487" on="1"/>
        <pt x="266" y="1584" on="1"/>
        <pt x="619" y="1374" on="1"/>
        <pt x="973" y="1584" on="1"/>
        <pt x="1067" y="1487" on="1"/>
        <pt x="772" y="1153" on="1"/>
        <pt x="468" y="1153" on="1"/>
      </contour>
    </TTGlyph>
    <TTGlyph name="caron.cap" xMin="253" yMin="1392" xMax="1016" yMax="1731">
      <contour>
        <pt x="759" y="1392" on="1"/>
        <pt x="507" y="1392" on="1"/>
        <pt x="253" y="1653" on="1"/>
        <pt x="330" y="1731" on="1"/>
        <pt x="632" y="1573" on="1"/>
        <pt x="938" y="1731" on="1"/>
        <pt x="1016" y="1652" on="1"/>
      </contour>
    </TTGlyph>
    <TTGlyph name="caronvertical" xMin="166" yMin="752" xMax="552" yMax="1327">
      <contour>
        <pt x="166" y="1327" on="1"/>
        <pt x="552" y="1327" on="1"/>
        <pt x="552" y="1018" on="1"/>
        <pt x="455" y="752" on="1"/>
        <pt x="269" y="752" on="1"/>
        <pt x="293" y="1018" on="1"/>
        <pt x="166" y="1018" on="1"/>
      </contour>
    </TTGlyph>
    <TTGlyph name="ccaron" xMin="95" yMin="0" xMax="1245" yMax="1584">
      <contour>
        <pt x="537" y="0" on="1"/>
        <pt x="360" y="0" on="1"/>
        <pt x="95" y="265" on="1"/>
        <pt x="95" y="797" on="1"/>
        <pt x="360" y="1062" on="1"/>
        <pt x="537" y="1062" on="1"/>
      </contour>
      <contour>
        <pt x="607" y="797" on="1"/>
        <pt x="607" y="1062" on="1"/>
        <pt x="980" y="1062" on="1"/>
        <pt x="1245" y="797" on="1"/>
        <pt x="1245" y="638" on="1"/>
        <pt x="803" y="638" on="1"/>
        <pt x="803" y="797" on="1"/>
      </contour>
      <contour>
        <pt x="607" y="0" on="1"/>
        <pt x="607" y="248" on="1"/>
        <pt x="803" y="248" on="1"/>
        <pt x="803" y="381" on="1"/>
        <pt x="1245" y="381" on="1"/>
        <pt x="1245" y="265" on="1"/>
        <pt x="980" y="0" on="1"/>
      </contour>
      <contour>
        <pt x="241" y="1487" on="1"/>
        <pt x="334" y="1584" on="1"/>
        <pt x="687" y="1374" on="1"/>
        <pt x="1041" y="1584" on="1"/>
        <pt x="1135" y="1487" on="1"/>
        <pt x="840" y="1153" on="1"/>
        <pt x="536" y="1153" on="1"/>
      </contour>
    </TTGlyph>
    <TTGlyph name="ccedilla" xMin="95" yMin="-507" xMax="1245" yMax="1062">
      <contour>
        <pt x="537" y="0" on="1"/>
        <pt x="360" y="0" on="1"/>
        <pt x="95" y="265" on="1"/>
        <pt x="95" y="797" on="1"/>
        <pt x="360" y="1062" on="1"/>
        <pt x="537" y="1062" on="1"/>
      </contour>
      <contour>
        <pt x="607" y="797" on="1"/>
        <pt x="607" y="1062" on="1"/>
        <pt x="980" y="1062" on="1"/>
        <pt x="1245" y="797" on="1"/>
        <pt x="1245" y="638" on="1"/>
        <pt x="803" y="638" on="1"/>
        <pt x="803" y="797" on="1"/>
      </contour>
      <contour>
        <pt x="607" y="0" on="1"/>
        <pt x="607" y="248" on="1"/>
        <pt x="803" y="248" on="1"/>
        <pt x="803" y="381" on="1"/>
        <pt x="1245" y="381" on="1"/>
        <pt x="1245" y="265" on="1"/>
        <pt x="980" y="0" on="1"/>
      </contour>
      <contour>
        <pt x="647" y="-225" on="1"/>
        <pt x="647" y="-62" on="1"/>
        <pt x="849" y="-62" on="1"/>
        <pt x="849" y="-307" on="1"/>
        <pt x="674" y="-507" on="1"/>
        <pt x="362" y="-507" on="1"/>
        <pt x="362" y="-225" on="1"/>
      </contour>
    </TTGlyph>
    <TTGlyph name="ccircumflex" xMin="95" yMin="0" xMax="1245" yMax="1585">
      <contour>
        <pt x="537" y="0" on="1"/>
        <pt x="360" y="0" on="1"/>
        <pt x="95" y="265" on="1"/>
        <pt x="95" y="797" on="1"/>
        <pt x="360" y="1062" on="1"/>
        <pt x="537" y="1062" on="1"/>
      </contour>
      <contour>
        <pt x="607" y="797" on="1"/>
        <pt x="607" y="1062" on="1"/>
        <pt x="980" y="1062" on="1"/>
        <pt x="1245" y="797" on="1"/>
        <pt x="1245" y="638" on="1"/>
        <pt x="803" y="638" on="1"/>
        <pt x="803" y="797" on="1"/>
      </contour>
      <contour>
        <pt x="607" y="0" on="1"/>
        <pt x="607" y="248" on="1"/>
        <pt x="803" y="248" on="1"/>
        <pt x="803" y="381" on="1"/>
        <pt x="1245" y="381" on="1"/>
        <pt x="1245" y="265" on="1"/>
        <pt x="980" y="0" on="1"/>
      </contour>
      <contour>
        <pt x="1127" y="1250" on="1"/>
        <pt x="1034" y="1153" on="1"/>
        <pt x="680" y="1363" on="1"/>
        <pt x="327" y="1153" on="1"/>
        <pt x="233" y="1250" on="1"/>
        <pt x="528" y="1585" on="1"/>
        <pt x="832" y="1585" on="1"/>
      </contour>
    </TTGlyph>
    <TTGlyph name="cdotaccent" xMin="95" yMin="0" xMax="1245" yMax="1560">
      <contour>
        <pt x="537" y="0" on="1"/>
        <pt x="360" y="0" on="1"/>
        <pt x="95" y="265" on="1"/>
        <pt x="95" y="797" on="1"/>
        <pt x="360" y="1062" on="1"/>
        <pt x="537" y="1062" on="1"/>
      </contour>
      <contour>
        <pt x="607" y="797" on="1"/>
        <pt x="607" y="1062" on="1"/>
        <pt x="980" y="1062" on="1"/>
        <pt x="1245" y="797" on="1"/>
        <pt x="1245" y="638" on="1"/>
        <pt x="803" y="638" on="1"/>
        <pt x="803" y="797" on="1"/>
      </contour>
      <contour>
        <pt x="607" y="0" on="1"/>
        <pt x="607" y="248" on="1"/>
        <pt x="803" y="248" on="1"/>
        <pt x="803" y="381" on="1"/>
        <pt x="1245" y="381" on="1"/>
        <pt x="1245" y="265" on="1"/>
        <pt x="980" y="0" on="1"/>
      </contour>
      <contour>
        <pt x="512" y="1560" on="1"/>
        <pt x="848" y="1560" on="1"/>
        <pt x="848" y="1279" on="1"/>
        <pt x="512" y="1279" on="1"/>
      </contour>
    </TTGlyph>
    <TTGlyph name="cedilla" xMin="285" yMin="-507" xMax="772" yMax="-62">
      <contour>
        <pt x="570" y="-225" on="1"/>
        <pt x="570" y="-62" on="1"/>
        <pt x="772" y="-62" on="1"/>
        <pt x="772" y="-307" on="1"/>
        <pt x="597" y="-507" on="1"/>
        <pt x="285" y="-507" on="1"/>
        <pt x="285" y="-225" on="1"/>
      </contour>
    </TTGlyph>
    <TTGlyph name="cent" xMin="230" yMin="-17" xMax="1380" yMax="1344">
      <contour>
        <pt x="605" y="133" on="1"/>
        <pt x="495" y="133" on="1"/>
        <pt x="230" y="398" on="1"/>
        <pt x="230" y="929" on="1"/>
        <pt x="495" y="1194" on="1"/>
        <pt x="672" y="1194" on="1"/>
        <pt x="672" y="398" on="1"/>
        <pt x="870" y="398" on="1"/>
        <pt x="870" y="-17" on="1"/>
        <pt x="605" y="-17" on="1"/>
      </contour>
      <contour>
        <pt x="740" y="929" on="1"/>
        <pt x="740" y="1344" on="1"/>
        <pt x="1005" y="1344" on="1"/>
        <pt x="1005" y="1194" on="1"/>
        <pt x="1115" y="1194" on="1"/>
        <pt x="1380" y="929" on="1"/>
        <pt x="1380" y="797" on="1"/>
        <pt x="937" y="797" on="1"/>
        <pt x="937" y="929" on="1"/>
      </contour>
      <contour>
        <pt x="937" y="133" on="1"/>
        <pt x="937" y="530" on="1"/>
        <pt x="1380" y="530" on="1"/>
        <pt x="1380" y="398" on="1"/>
        <pt x="1115" y="133" on="1"/>
      </contour>
    </TTGlyph>
    <TTGlyph name="circumflex" xMin="173" yMin="1153" xMax="1067" yMax="1585">
      <contour>
        <pt x="1067" y="1250" on="1"/>
        <pt x="974" y="1153" on="1"/>
        <pt x="620" y="1363" on="1"/>
        <pt x="267" y="1153" on="1"/>
        <pt x="173" y="1250" on="1"/>
        <pt x="468" y="1585" on="1"/>
        <pt x="772" y="1585" on="1"/>
      </contour>
    </TTGlyph>
    <TTGlyph name="circumflex.cap" xMin="251" yMin="1392" xMax="1013" yMax="1731">
      <contour>
        <pt x="507" y="1731" on="1"/>
        <pt x="759" y="1731" on="1"/>
        <pt x="1013" y="1471" on="1"/>
        <pt x="937" y="1392" on="1"/>
        <pt x="634" y="1551" on="1"/>
        <pt x="328" y="1392" on="1"/>
        <pt x="251" y="1472" on="1"/>
      </contour>
    </TTGlyph>
    <TTGlyph name="colon" xMin="147" yMin="0" xMax="589" yMax="1062">
      <contour>
        <pt x="147" y="1062" on="1"/>
        <pt x="589" y="1062" on="1"/>
        <pt x="589" y="753" on="1"/>
        <pt x="147" y="753" on="1"/>
      </contour>
      <contour>
        <pt x="147" y="309" on="1"/>
        <pt x="589" y="309" on="1"/>
        <pt x="589" y="0" on="1"/>
        <pt x="147" y="0" on="1"/>
      </contour>
    </TTGlyph>
    <TTGlyph name="comma" xMin="147" yMin="-265" xMax="589" yMax="309">
      <contour>
        <pt x="147" y="309" on="1"/>
        <pt x="589" y="309" on="1"/>
        <pt x="589" y="0" on="1"/>
        <pt x="412" y="-265" on="1"/>
        <pt x="147" y="-265" on="1"/>
        <pt x="270" y="0" on="1"/>
        <pt x="147" y="0" on="1"/>
      </contour>
    </TTGlyph>
    <TTGlyph name="commaaccent" xMin="243" yMin="-689" xMax="685" yMax="-169">
      <contour>
        <pt x="243" y="-169" on="1"/>
        <pt x="685" y="-169" on="1"/>
        <pt x="685" y="-416" on="1"/>
        <pt x="518" y="-689" on="1"/>
        <pt x="340" y="-689" on="1"/>
        <pt x="401" y="-461" on="1"/>
        <pt x="243" y="-461" on="1"/>
      </contour>
    </TTGlyph>
    <TTGlyph name="copyright" xMin="95" yMin="-43" xMax="1491" yMax="1282">
      <contour>
        <pt x="822" y="1062" on="1"/>
        <pt x="822" y="1282" on="1"/>
        <pt x="1183" y="1282" on="1"/>
        <pt x="1491" y="973" on="1"/>
        <pt x="1491" y="265" on="1"/>
        <pt x="1183" y="-43" on="1"/>
        <pt x="839" y="-43" on="1"/>
        <pt x="839" y="177" on="1"/>
        <pt x="1046" y="177" on="1"/>
        <pt x="1236" y="368" on="1"/>
        <pt x="1236" y="530" on="1"/>
        <pt x="899" y="530" on="1"/>
        <pt x="899" y="398" on="1"/>
        <pt x="687" y="398" on="1"/>
        <pt x="687" y="841" on="1"/>
        <pt x="899" y="841" on="1"/>
        <pt x="899" y="708" on="1"/>
        <pt x="1236" y="708" on="1"/>
        <pt x="1236" y="867" on="1"/>
        <pt x="1045" y="1062" on="1"/>
      </contour>
      <contour>
        <pt x="95" y="265" on="1"/>
        <pt x="95" y="973" on="1"/>
        <pt x="404" y="1282" on="1"/>
        <pt x="768" y="1282" on="1"/>
        <pt x="768" y="1062" on="1"/>
        <pt x="545" y="1062" on="1"/>
        <pt x="351" y="867" on="1"/>
        <pt x="351" y="370" on="1"/>
        <pt x="543" y="177" on="1"/>
        <pt x="786" y="177" on="1"/>
        <pt x="786" y="-43" on="1"/>
        <pt x="404" y="-43" on="1"/>
      </contour>
    </TTGlyph>
    <TTGlyph name="currency" xMin="110" yMin="42" xMax="1351" yMax="1285">
      <contour>
        <pt x="485" y="709" on="1"/>
        <pt x="244" y="709" on="1"/>
        <pt x="244" y="861" on="1"/>
        <pt x="329" y="945" on="1"/>
        <pt x="110" y="1168" on="1"/>
        <pt x="225" y="1285" on="1"/>
        <pt x="449" y="1065" on="1"/>
        <pt x="543" y="1159" on="1"/>
        <pt x="696" y="1159" on="1"/>
        <pt x="696" y="906" on="1"/>
        <pt x="485" y="906" on="1"/>
      </contour>
      <contour>
        <pt x="1235" y="709" on="1"/>
        <pt x="994" y="709" on="1"/>
        <pt x="994" y="906" on="1"/>
        <pt x="778" y="906" on="1"/>
        <pt x="778" y="1159" on="1"/>
        <pt x="936" y="1159" on="1"/>
        <pt x="1020" y="1072" on="1"/>
        <pt x="1235" y="1285" on="1"/>
        <pt x="1351" y="1168" on="1"/>
        <pt x="1140" y="954" on="1"/>
        <pt x="1235" y="861" on="1"/>
      </contour>
      <contour>
        <pt x="329" y="382" on="1"/>
        <pt x="244" y="466" on="1"/>
        <pt x="244" y="628" on="1"/>
        <pt x="485" y="628" on="1"/>
        <pt x="485" y="417" on="1"/>
        <pt x="696" y="417" on="1"/>
        <pt x="696" y="168" on="1"/>
        <pt x="543" y="168" on="1"/>
        <pt x="449" y="262" on="1"/>
        <pt x="225" y="42" on="1"/>
        <pt x="110" y="157" on="1"/>
      </contour>
      <contour>
        <pt x="1020" y="255" on="1"/>
        <pt x="936" y="168" on="1"/>
        <pt x="778" y="168" on="1"/>
        <pt x="778" y="417" on="1"/>
        <pt x="994" y="417" on="1"/>
        <pt x="994" y="628" on="1"/>
        <pt x="1235" y="628" on="1"/>
        <pt x="1235" y="466" on="1"/>
        <pt x="1140" y="373" on="1"/>
        <pt x="1351" y="157" on="1"/>
        <pt x="1235" y="42" on="1"/>
      </contour>
    </TTGlyph>
    <TTGlyph name="d" xMin="95" yMin="0" xMax="1262" yMax="1467">
      <contour>
        <pt x="1262" y="1467" on="1"/>
        <pt x="1262" y="0" on="1"/>
        <pt x="820" y="0" on="1"/>
        <pt x="820" y="1467" on="1"/>
      </contour>
      <contour>
        <pt x="537" y="248" on="1"/>
        <pt x="750" y="248" on="1"/>
        <pt x="750" y="105" on="1"/>
        <pt x="645" y="0" on="1"/>
        <pt x="334" y="0" on="1"/>
        <pt x="95" y="239" on="1"/>
        <pt x="95" y="823" on="1"/>
        <pt x="334" y="1062" on="1"/>
        <pt x="750" y="1062" on="1"/>
        <pt x="750" y="797" on="1"/>
        <pt x="537" y="797" on="1"/>
      </contour>
    </TTGlyph>
    <TTGlyph name="dagger" xMin="161" yMin="-315" xMax="1346" yMax="1551">
      <contour>
        <pt x="557" y="429" on="1"/>
        <pt x="556" y="429" on="1"/>
        <pt x="657" y="822" on="1"/>
        <pt x="295" y="761" on="1"/>
        <pt x="161" y="923" on="1"/>
        <pt x="295" y="1084" on="1"/>
        <pt x="660" y="1020" on="1"/>
        <pt x="592" y="1416" on="1"/>
        <pt x="753" y="1551" on="1"/>
        <pt x="915" y="1416" on="1"/>
        <pt x="847" y="1020" on="1"/>
        <pt x="1211" y="1083" on="1"/>
        <pt x="1346" y="921" on="1"/>
        <pt x="1211" y="759" on="1"/>
        <pt x="849" y="821" on="1"/>
        <pt x="948" y="431" on="1"/>
        <pt x="950" y="430" on="1"/>
        <pt x="799" y="-315" on="1"/>
        <pt x="708" y="-315" on="1"/>
      </contour>
    </TTGlyph>
    <TTGlyph name="daggerdbl" xMin="161" yMin="-315" xMax="1346" yMax="1550">
      <contour>
        <pt x="557" y="614" on="1"/>
        <pt x="654" y="820" on="1"/>
        <pt x="295" y="760" on="1"/>
        <pt x="161" y="922" on="1"/>
        <pt x="295" y="1083" on="1"/>
        <pt x="660" y="1020" on="1"/>
        <pt x="592" y="1415" on="1"/>
        <pt x="753" y="1550" on="1"/>
        <pt x="915" y="1415" on="1"/>
        <pt x="847" y="1020" on="1"/>
        <pt x="1211" y="1082" on="1"/>
        <pt x="1346" y="920" on="1"/>
        <pt x="1211" y="759" on="1"/>
        <pt x="854" y="820" on="1"/>
        <pt x="952" y="615" on="1"/>
        <pt x="852" y="414" on="1"/>
        <pt x="1211" y="474" on="1"/>
        <pt x="1346" y="313" on="1"/>
        <pt x="1211" y="151" on="1"/>
        <pt x="847" y="215" on="1"/>
        <pt x="915" y="-181" on="1"/>
        <pt x="753" y="-315" on="1"/>
        <pt x="592" y="-181" on="1"/>
        <pt x="660" y="215" on="1"/>
        <pt x="295" y="153" on="1"/>
        <pt x="161" y="314" on="1"/>
        <pt x="295" y="476" on="1"/>
        <pt x="658" y="414" on="1"/>
      </contour>
    </TTGlyph>
    <TTGlyph name="dcaron" xMin="95" yMin="0" xMax="1765" yMax="1467">
      <contour>
        <pt x="1262" y="1467" on="1"/>
        <pt x="1262" y="0" on="1"/>
        <pt x="820" y="0" on="1"/>
        <pt x="820" y="1467" on="1"/>
      </contour>
      <contour>
        <pt x="537" y="248" on="1"/>
        <pt x="750" y="248" on="1"/>
        <pt x="750" y="105" on="1"/>
        <pt x="645" y="0" on="1"/>
        <pt x="334" y="0" on="1"/>
        <pt x="95" y="239" on="1"/>
        <pt x="95" y="823" on="1"/>
        <pt x="334" y="1062" on="1"/>
        <pt x="750" y="1062" on="1"/>
        <pt x="750" y="797" on="1"/>
        <pt x="537" y="797" on="1"/>
      </contour>
      <contour>
        <pt x="1379" y="1327" on="1"/>
        <pt x="1765" y="1327" on="1"/>
        <pt x="1765" y="1018" on="1"/>
        <pt x="1668" y="752" on="1"/>
        <pt x="1482" y="752" on="1"/>
        <pt x="1506" y="1018" on="1"/>
        <pt x="1379" y="1018" on="1"/>
      </contour>
    </TTGlyph>
    <TTGlyph name="dcroat" xMin="95" yMin="0" xMax="1402" yMax="1467">
      <contour>
        <pt x="1262" y="1467" on="1"/>
        <pt x="1262" y="1358" on="1"/>
        <pt x="1402" y="1358" on="1"/>
        <pt x="1402" y="1179" on="1"/>
        <pt x="1262" y="1179" on="1"/>
        <pt x="1262" y="0" on="1"/>
        <pt x="820" y="0" on="1"/>
        <pt x="820" y="1179" on="1"/>
        <pt x="631" y="1179" on="1"/>
        <pt x="631" y="1358" on="1"/>
        <pt x="820" y="1358" on="1"/>
        <pt x="820" y="1467" on="1"/>
      </contour>
      <contour>
        <pt x="537" y="248" on="1"/>
        <pt x="750" y="248" on="1"/>
        <pt x="750" y="105" on="1"/>
        <pt x="645" y="0" on="1"/>
        <pt x="334" y="0" on="1"/>
        <pt x="95" y="239" on="1"/>
        <pt x="95" y="823" on="1"/>
        <pt x="334" y="1062" on="1"/>
        <pt x="750" y="1062" on="1"/>
        <pt x="750" y="797" on="1"/>
        <pt x="537" y="797" on="1"/>
      </contour>
    </TTGlyph>
    <TTGlyph name="degree" xMin="138" yMin="481" xMax="1035" yMax="1327">
      <contour>
        <pt x="620" y="481" on="1"/>
        <pt x="620" y="718" on="1"/>
        <pt x="767" y="718" on="1"/>
        <pt x="767" y="1081" on="1"/>
        <pt x="620" y="1081" on="1"/>
        <pt x="620" y="1327" on="1"/>
        <pt x="792" y="1327" on="1"/>
        <pt x="1035" y="1084" on="1"/>
        <pt x="1035" y="724" on="1"/>
        <pt x="792" y="481" on="1"/>
      </contour>
      <contour>
        <pt x="553" y="718" on="1"/>
        <pt x="553" y="481" on="1"/>
        <pt x="380" y="481" on="1"/>
        <pt x="138" y="724" on="1"/>
        <pt x="138" y="1084" on="1"/>
        <pt x="380" y="1327" on="1"/>
        <pt x="553" y="1327" on="1"/>
        <pt x="553" y="1081" on="1"/>
        <pt x="406" y="1081" on="1"/>
        <pt x="406" y="718" on="1"/>
      </contour>
    </TTGlyph>
    <TTGlyph name="dieresis" xMin="274" yMin="1279" xMax="1140" yMax="1560">
      <contour>
        <pt x="274" y="1560" on="1"/>
        <pt x="610" y="1560" on="1"/>
        <pt x="610" y="1279" on="1"/>
        <pt x="274" y="1279" on="1"/>
      </contour>
      <contour>
        <pt x="804" y="1560" on="1"/>
        <pt x="1140" y="1560" on="1"/>
        <pt x="1140" y="1279" on="1"/>
        <pt x="804" y="1279" on="1"/>
      </contour>
    </TTGlyph>
    <TTGlyph name="dieresis.cap" xMin="274" yMin="1460" xMax="1140" yMax="1681">
      <contour>
        <pt x="274" y="1681" on="1"/>
        <pt x="610" y="1681" on="1"/>
        <pt x="610" y="1460" on="1"/>
        <pt x="274" y="1460" on="1"/>
      </contour>
      <contour>
        <pt x="804" y="1681" on="1"/>
        <pt x="1140" y="1681" on="1"/>
        <pt x="1140" y="1460" on="1"/>
        <pt x="804" y="1460" on="1"/>
      </contour>
    </TTGlyph>
    <TTGlyph name="divide" xMin="186" yMin="86" xMax="1253" yMax="1153">
      <contour>
        <pt x="186" y="740" on="1"/>
        <pt x="1253" y="740" on="1"/>
        <pt x="1253" y="501" on="1"/>
        <pt x="186" y="501" on="1"/>
      </contour>
      <contour>
        <pt x="554" y="1153" on="1"/>
        <pt x="885" y="1153" on="1"/>
        <pt x="885" y="915" on="1"/>
        <pt x="554" y="915" on="1"/>
      </contour>
      <contour>
        <pt x="554" y="326" on="1"/>
        <pt x="885" y="326" on="1"/>
        <pt x="885" y="86" on="1"/>
        <pt x="554" y="86" on="1"/>
      </contour>
    </TTGlyph>
    <TTGlyph name="dollar" xMin="230" yMin="-157" xMax="1513" yMax="1476">
      <contour>
        <pt x="672" y="797" on="1"/>
        <pt x="1248" y="797" on="1"/>
        <pt x="1513" y="530" on="1"/>
        <pt x="1513" y="265" on="1"/>
        <pt x="1248" y="0" on="1"/>
        <pt x="1070" y="0" on="1"/>
        <pt x="1070" y="530" on="1"/>
        <pt x="495" y="530" on="1"/>
        <pt x="230" y="797" on="1"/>
        <pt x="230" y="1062" on="1"/>
        <pt x="495" y="1327" on="1"/>
        <pt x="672" y="1327" on="1"/>
      </contour>
      <contour>
        <pt x="672" y="265" on="1"/>
        <pt x="1003" y="265" on="1"/>
        <pt x="1003" y="-157" on="1"/>
        <pt x="701" y="-157" on="1"/>
        <pt x="701" y="0" on="1"/>
        <pt x="495" y="0" on="1"/>
        <pt x="230" y="265" on="1"/>
        <pt x="230" y="398" on="1"/>
        <pt x="672" y="398" on="1"/>
      </contour>
      <contour>
        <pt x="740" y="1062" on="1"/>
        <pt x="740" y="1476" on="1"/>
        <pt x="1039" y="1476" on="1"/>
        <pt x="1039" y="1327" on="1"/>
        <pt x="1248" y="1327" on="1"/>
        <pt x="1513" y="1062" on="1"/>
        <pt x="1513" y="929" on="1"/>
        <pt x="1070" y="929" on="1"/>
        <pt x="1070" y="1062" on="1"/>
      </contour>
    </TTGlyph>
    <TTGlyph name="dotaccent" xMin="170" yMin="1279" xMax="506" yMax="1560">
      <contour>
        <pt x="170" y="1560" on="1"/>
        <pt x="506" y="1560" on="1"/>
        <pt x="506" y="1279" on="1"/>
        <pt x="170" y="1279" on="1"/>
      </contour>
    </TTGlyph>
    <TTGlyph name="dotaccent.cap" xMin="170" yMin="1460" xMax="506" yMax="1681">
      <contour>
        <pt x="170" y="1681" on="1"/>
        <pt x="506" y="1681" on="1"/>
        <pt x="506" y="1460" on="1"/>
        <pt x="170" y="1460" on="1"/>
      </contour>
    </TTGlyph>
    <TTGlyph name="dotlessi" xMin="105" yMin="0" xMax="548" yMax="1062">
      <contour>
        <pt x="105" y="1062" on="1"/>
        <pt x="548" y="1062" on="1"/>
        <pt x="548" y="0" on="1"/>
        <pt x="105" y="0" on="1"/>
      </contour>
    </TTGlyph>
    <TTGlyph name="dotlessj" xMin="-100" yMin="-354" xMax="548" yMax="1062">
      <contour>
        <pt x="-100" y="-88" on="1"/>
        <pt x="105" y="-88" on="1"/>
        <pt x="105" y="1062" on="1"/>
        <pt x="548" y="1062" on="1"/>
        <pt x="548" y="-88" on="1"/>
        <pt x="282" y="-354" on="1"/>
        <pt x="-100" y="-354" on="1"/>
      </contour>
    </TTGlyph>
    <TTGlyph name="e" xMin="95" yMin="0" xMax="1247" yMax="1062">
      <contour>
        <pt x="537" y="0" on="1"/>
        <pt x="360" y="0" on="1"/>
        <pt x="95" y="265" on="1"/>
        <pt x="95" y="797" on="1"/>
        <pt x="360" y="1062" on="1"/>
        <pt x="537" y="1062" on="1"/>
      </contour>
      <contour>
        <pt x="607" y="426" on="1"/>
        <pt x="607" y="611" on="1"/>
        <pt x="840" y="611" on="1"/>
        <pt x="840" y="797" on="1"/>
        <pt x="607" y="797" on="1"/>
        <pt x="607" y="1062" on="1"/>
        <pt x="982" y="1062" on="1"/>
        <pt x="1247" y="797" on="1"/>
        <pt x="1247" y="426" on="1"/>
      </contour>
      <contour>
        <pt x="607" y="0" on="1"/>
        <pt x="607" y="248" on="1"/>
        <pt x="1201" y="248" on="1"/>
        <pt x="1201" y="133" on="1"/>
        <pt x="1069" y="0" on="1"/>
      </contour>
    </TTGlyph>
    <TTGlyph name="eacute" xMin="95" yMin="0" xMax="1247" yMax="1607">
      <contour>
        <pt x="537" y="0" on="1"/>
        <pt x="360" y="0" on="1"/>
        <pt x="95" y="265" on="1"/>
        <pt x="95" y="797" on="1"/>
        <pt x="360" y="1062" on="1"/>
        <pt x="537" y="1062" on="1"/>
      </contour>
      <contour>
        <pt x="607" y="426" on="1"/>
        <pt x="607" y="611" on="1"/>
        <pt x="840" y="611" on="1"/>
        <pt x="840" y="797" on="1"/>
        <pt x="607" y="797" on="1"/>
        <pt x="607" y="1062" on="1"/>
        <pt x="982" y="1062" on="1"/>
        <pt x="1247" y="797" on="1"/>
        <pt x="1247" y="426" on="1"/>
      </contour>
      <contour>
        <pt x="607" y="0" on="1"/>
        <pt x="607" y="248" on="1"/>
        <pt x="1201" y="248" on="1"/>
        <pt x="1201" y="133" on="1"/>
        <pt x="1069" y="0" on="1"/>
      </contour>
      <contour>
        <pt x="869" y="1607" on="1"/>
        <pt x="1053" y="1522" on="1"/>
        <pt x="999" y="1311" on="1"/>
        <pt x="445" y="1144" on="1"/>
        <pt x="383" y="1291" on="1"/>
      </contour>
    </TTGlyph>
    <TTGlyph name="ebreve" xMin="95" yMin="0" xMax="1247" yMax="1569">
      <contour>
        <pt x="537" y="0" on="1"/>
        <pt x="360" y="0" on="1"/>
        <pt x="95" y="265" on="1"/>
        <pt x="95" y="797" on="1"/>
        <pt x="360" y="1062" on="1"/>
        <pt x="537" y="1062" on="1"/>
      </contour>
      <contour>
        <pt x="607" y="426" on="1"/>
        <pt x="607" y="611" on="1"/>
        <pt x="840" y="611" on="1"/>
        <pt x="840" y="797" on="1"/>
        <pt x="607" y="797" on="1"/>
        <pt x="607" y="1062" on="1"/>
        <pt x="982" y="1062" on="1"/>
        <pt x="1247" y="797" on="1"/>
        <pt x="1247" y="426" on="1"/>
      </contour>
      <contour>
        <pt x="607" y="0" on="1"/>
        <pt x="607" y="248" on="1"/>
        <pt x="1201" y="248" on="1"/>
        <pt x="1201" y="133" on="1"/>
        <pt x="1069" y="0" on="1"/>
      </contour>
      <contour>
        <pt x="285" y="1530" on="1"/>
        <pt x="423" y="1569" on="1"/>
        <pt x="505" y="1387" on="1"/>
        <pt x="830" y="1387" on="1"/>
        <pt x="912" y="1569" on="1"/>
        <pt x="1050" y="1530" on="1"/>
        <pt x="994" y="1299" on="1"/>
        <pt x="848" y="1155" on="1"/>
        <pt x="487" y="1155" on="1"/>
        <pt x="341" y="1299" on="1"/>
      </contour>
    </TTGlyph>
    <TTGlyph name="ecaron" xMin="95" yMin="0" xMax="1247" yMax="1584">
      <contour>
        <pt x="537" y="0" on="1"/>
        <pt x="360" y="0" on="1"/>
        <pt x="95" y="265" on="1"/>
        <pt x="95" y="797" on="1"/>
        <pt x="360" y="1062" on="1"/>
        <pt x="537" y="1062" on="1"/>
      </contour>
      <contour>
        <pt x="607" y="426" on="1"/>
        <pt x="607" y="611" on="1"/>
        <pt x="840" y="611" on="1"/>
        <pt x="840" y="797" on="1"/>
        <pt x="607" y="797" on="1"/>
        <pt x="607" y="1062" on="1"/>
        <pt x="982" y="1062" on="1"/>
        <pt x="1247" y="797" on="1"/>
        <pt x="1247" y="426" on="1"/>
      </contour>
      <contour>
        <pt x="607" y="0" on="1"/>
        <pt x="607" y="248" on="1"/>
        <pt x="1201" y="248" on="1"/>
        <pt x="1201" y="133" on="1"/>
        <pt x="1069" y="0" on="1"/>
      </contour>
      <contour>
        <pt x="229" y="1487" on="1"/>
        <pt x="322" y="1584" on="1"/>
        <pt x="675" y="1374" on="1"/>
        <pt x="1029" y="1584" on="1"/>
        <pt x="1123" y="1487" on="1"/>
        <pt x="828" y="1153" on="1"/>
        <pt x="524" y="1153" on="1"/>
      </contour>
    </TTGlyph>
    <TTGlyph name="ecircumflex" xMin="95" yMin="0" xMax="1247" yMax="1585">
      <contour>
        <pt x="537" y="0" on="1"/>
        <pt x="360" y="0" on="1"/>
        <pt x="95" y="265" on="1"/>
        <pt x="95" y="797" on="1"/>
        <pt x="360" y="1062" on="1"/>
        <pt x="537" y="1062" on="1"/>
      </contour>
      <contour>
        <pt x="607" y="426" on="1"/>
        <pt x="607" y="611" on="1"/>
        <pt x="840" y="611" on="1"/>
        <pt x="840" y="797" on="1"/>
        <pt x="607" y="797" on="1"/>
        <pt x="607" y="1062" on="1"/>
        <pt x="982" y="1062" on="1"/>
        <pt x="1247" y="797" on="1"/>
        <pt x="1247" y="426" on="1"/>
      </contour>
      <contour>
        <pt x="607" y="0" on="1"/>
        <pt x="607" y="248" on="1"/>
        <pt x="1201" y="248" on="1"/>
        <pt x="1201" y="133" on="1"/>
        <pt x="1069" y="0" on="1"/>
      </contour>
      <contour>
        <pt x="1115" y="1250" on="1"/>
        <pt x="1022" y="1153" on="1"/>
        <pt x="668" y="1363" on="1"/>
        <pt x="315" y="1153" on="1"/>
        <pt x="221" y="1250" on="1"/>
        <pt x="516" y="1585" on="1"/>
        <pt x="820" y="1585" on="1"/>
      </contour>
    </TTGlyph>
    <TTGlyph name="edieresis" xMin="95" yMin="0" xMax="1247" yMax="1560">
      <contour>
        <pt x="537" y="0" on="1"/>
        <pt x="360" y="0" on="1"/>
        <pt x="95" y="265" on="1"/>
        <pt x="95" y="797" on="1"/>
        <pt x="360" y="1062" on="1"/>
        <pt x="537" y="1062" on="1"/>
      </contour>
      <contour>
        <pt x="607" y="426" on="1"/>
        <pt x="607" y="611" on="1"/>
        <pt x="840" y="611" on="1"/>
        <pt x="840" y="797" on="1"/>
        <pt x="607" y="797" on="1"/>
        <pt x="607" y="1062" on="1"/>
        <pt x="982" y="1062" on="1"/>
        <pt x="1247" y="797" on="1"/>
        <pt x="1247" y="426" on="1"/>
      </contour>
      <contour>
        <pt x="607" y="0" on="1"/>
        <pt x="607" y="248" on="1"/>
        <pt x="1201" y="248" on="1"/>
        <pt x="1201" y="133" on="1"/>
        <pt x="1069" y="0" on="1"/>
      </contour>
      <contour>
        <pt x="234" y="1560" on="1"/>
        <pt x="570" y="1560" on="1"/>
        <pt x="570" y="1279" on="1"/>
        <pt x="234" y="1279" on="1"/>
      </contour>
      <contour>
        <pt x="764" y="1560" on="1"/>
        <pt x="1100" y="1560" on="1"/>
        <pt x="1100" y="1279" on="1"/>
        <pt x="764" y="1279" on="1"/>
      </contour>
    </TTGlyph>
    <TTGlyph name="edotaccent" xMin="95" yMin="0" xMax="1247" yMax="1560">
      <contour>
        <pt x="537" y="0" on="1"/>
        <pt x="360" y="0" on="1"/>
        <pt x="95" y="265" on="1"/>
        <pt x="95" y="797" on="1"/>
        <pt x="360" y="1062" on="1"/>
        <pt x="537" y="1062" on="1"/>
      </contour>
      <contour>
        <pt x="607" y="426" on="1"/>
        <pt x="607" y="611" on="1"/>
        <pt x="840" y="611" on="1"/>
        <pt x="840" y="797" on="1"/>
        <pt x="607" y="797" on="1"/>
        <pt x="607" y="1062" on="1"/>
        <pt x="982" y="1062" on="1"/>
        <pt x="1247" y="797" on="1"/>
        <pt x="1247" y="426" on="1"/>
      </contour>
      <contour>
        <pt x="607" y="0" on="1"/>
        <pt x="607" y="248" on="1"/>
        <pt x="1201" y="248" on="1"/>
        <pt x="1201" y="133" on="1"/>
        <pt x="1069" y="0" on="1"/>
      </contour>
      <contour>
        <pt x="500" y="1560" on="1"/>
        <pt x="836" y="1560" on="1"/>
        <pt x="836" y="1279" on="1"/>
        <pt x="500" y="1279" on="1"/>
      </contour>
    </TTGlyph>
    <TTGlyph name="egrave" xMin="95" yMin="0" xMax="1247" yMax="1607">
      <contour>
        <pt x="537" y="0" on="1"/>
        <pt x="360" y="0" on="1"/>
        <pt x="95" y="265" on="1"/>
        <pt x="95" y="797" on="1"/>
        <pt x="360" y="1062" on="1"/>
        <pt x="537" y="1062" on="1"/>
      </contour>
      <contour>
        <pt x="607" y="426" on="1"/>
        <pt x="607" y="611" on="1"/>
        <pt x="840" y="611" on="1"/>
        <pt x="840" y="797" on="1"/>
        <pt x="607" y="797" on="1"/>
        <pt x="607" y="1062" on="1"/>
        <pt x="982" y="1062" on="1"/>
        <pt x="1247" y="797" on="1"/>
        <pt x="1247" y="426" on="1"/>
      </contour>
      <contour>
        <pt x="607" y="0" on="1"/>
        <pt x="607" y="248" on="1"/>
        <pt x="1201" y="248" on="1"/>
        <pt x="1201" y="133" on="1"/>
        <pt x="1069" y="0" on="1"/>
      </contour>
      <contour>
        <pt x="961" y="1291" on="1"/>
        <pt x="900" y="1144" on="1"/>
        <pt x="345" y="1311" on="1"/>
        <pt x="291" y="1522" on="1"/>
        <pt x="475" y="1607" on="1"/>
      </contour>
    </TTGlyph>
    <TTGlyph name="eight" xMin="108" yMin="-1" xMax="1433" yMax="1327">
      <contour>
        <pt x="546" y="265" on="1"/>
        <pt x="738" y="265" on="1"/>
        <pt x="738" y="0" on="1"/>
        <pt x="374" y="0" on="1"/>
        <pt x="108" y="265" on="1"/>
        <pt x="108" y="541" on="1"/>
        <pt x="267" y="672" on="1"/>
        <pt x="108" y="802" on="1"/>
        <pt x="108" y="1062" on="1"/>
        <pt x="374" y="1327" on="1"/>
        <pt x="738" y="1327" on="1"/>
        <pt x="738" y="1062" on="1"/>
        <pt x="546" y="1062" on="1"/>
        <pt x="546" y="796" on="1"/>
        <pt x="738" y="796" on="1"/>
        <pt x="738" y="548" on="1"/>
        <pt x="546" y="548" on="1"/>
      </contour>
      <contour>
        <pt x="1013" y="1062" on="1"/>
        <pt x="808" y="1062" on="1"/>
        <pt x="808" y="1327" on="1"/>
        <pt x="1168" y="1326" on="1"/>
        <pt x="1433" y="1061" on="1"/>
        <pt x="1433" y="804" on="1"/>
        <pt x="1275" y="671" on="1"/>
        <pt x="1433" y="538" on="1"/>
        <pt x="1433" y="264" on="1"/>
        <pt x="1168" y="-1" on="1"/>
        <pt x="808" y="0" on="1"/>
        <pt x="808" y="265" on="1"/>
        <pt x="1013" y="265" on="1"/>
        <pt x="1013" y="548" on="1"/>
        <pt x="808" y="548" on="1"/>
        <pt x="808" y="796" on="1"/>
        <pt x="1013" y="796" on="1"/>
      </contour>
    </TTGlyph>
    <TTGlyph name="ellipsis" xMin="147" yMin="0" xMax="2060" yMax="309">
      <contour>
        <pt x="147" y="309" on="1"/>
        <pt x="589" y="309" on="1"/>
        <pt x="589" y="0" on="1"/>
        <pt x="147" y="0" on="1"/>
      </contour>
      <contour>
        <pt x="883" y="309" on="1"/>
        <pt x="1325" y="309" on="1"/>
        <pt x="1325" y="0" on="1"/>
        <pt x="883" y="0" on="1"/>
      </contour>
      <contour>
        <pt x="1618" y="309" on="1"/>
        <pt x="2060" y="309" on="1"/>
        <pt x="2060" y="0" on="1"/>
        <pt x="1618" y="0" on="1"/>
      </contour>
    </TTGlyph>
    <TTGlyph name="emacron" xMin="95" yMin="0" xMax="1247" yMax="1393">
      <contour>
        <pt x="537" y="0" on="1"/>
        <pt x="360" y="0" on="1"/>
        <pt x="95" y="265" on="1"/>
        <pt x="95" y="797" on="1"/>
        <pt x="360" y="1062" on="1"/>
        <pt x="537" y="1062" on="1"/>
      </contour>
      <contour>
        <pt x="607" y="426" on="1"/>
        <pt x="607" y="611" on="1"/>
        <pt x="840" y="611" on="1"/>
        <pt x="840" y="797" on="1"/>
        <pt x="607" y="797" on="1"/>
        <pt x="607" y="1062" on="1"/>
        <pt x="982" y="1062" on="1"/>
        <pt x="1247" y="797" on="1"/>
        <pt x="1247" y="426" on="1"/>
      </contour>
      <contour>
        <pt x="607" y="0" on="1"/>
        <pt x="607" y="248" on="1"/>
        <pt x="1201" y="248" on="1"/>
        <pt x="1201" y="133" on="1"/>
        <pt x="1069" y="0" on="1"/>
      </contour>
      <contour>
        <pt x="304" y="1393" on="1"/>
        <pt x="1033" y="1393" on="1"/>
        <pt x="1033" y="1223" on="1"/>
        <pt x="304" y="1223" on="1"/>
      </contour>
    </TTGlyph>
    <TTGlyph name="emdash" xMin="186" yMin="501" xMax="1805" yMax="740">
      <contour>
        <pt x="186" y="740" on="1"/>
        <pt x="1805" y="740" on="1"/>
        <pt x="1805" y="501" on="1"/>
        <pt x="186" y="501" on="1"/>
      </contour>
    </TTGlyph>
    <TTGlyph name="endash" xMin="186" yMin="501" xMax="1437" yMax="740">
      <contour>
        <pt x="186" y="740" on="1"/>
        <pt x="1437" y="740" on="1"/>
        <pt x="1437" y="501" on="1"/>
        <pt x="186" y="501" on="1"/>
      </contour>
    </TTGlyph>
    <TTGlyph name="eng" xMin="104" yMin="-446" xMax="1255" yMax="1062">
      <contour>
        <pt x="812" y="797" on="1"/>
        <pt x="622" y="797" on="1"/>
        <pt x="622" y="913" on="1"/>
        <pt x="770" y="1062" on="1"/>
        <pt x="1016" y="1062" on="1"/>
        <pt x="1255" y="823" on="1"/>
        <pt x="1255" y="-180" on="1"/>
        <pt x="989" y="-446" on="1"/>
        <pt x="607" y="-446" on="1"/>
        <pt x="607" y="-180" on="1"/>
        <pt x="812" y="-180" on="1"/>
      </contour>
      <contour>
        <pt x="104" y="0" on="1"/>
        <pt x="104" y="1062" on="1"/>
        <pt x="550" y="1062" on="1"/>
        <pt x="550" y="0" on="1"/>
      </contour>
    </TTGlyph>
    <TTGlyph name="eogonek" xMin="95" yMin="-445" xMax="1247" yMax="1062">
      <contour>
        <pt x="537" y="0" on="1"/>
        <pt x="360" y="0" on="1"/>
        <pt x="95" y="265" on="1"/>
        <pt x="95" y="797" on="1"/>
        <pt x="360" y="1062" on="1"/>
        <pt x="537" y="1062" on="1"/>
      </contour>
      <contour>
        <pt x="607" y="426" on="1"/>
        <pt x="607" y="611" on="1"/>
        <pt x="840" y="611" on="1"/>
        <pt x="840" y="797" on="1"/>
        <pt x="607" y="797" on="1"/>
        <pt x="607" y="1062" on="1"/>
        <pt x="982" y="1062" on="1"/>
        <pt x="1247" y="797" on="1"/>
        <pt x="1247" y="426" on="1"/>
      </contour>
      <contour>
        <pt x="607" y="0" on="1"/>
        <pt x="607" y="248" on="1"/>
        <pt x="1201" y="248" on="1"/>
        <pt x="1201" y="133" on="1"/>
        <pt x="1069" y="0" on="1"/>
      </contour>
      <contour>
        <pt x="1245" y="-175" on="1"/>
        <pt x="1245" y="-445" on="1"/>
        <pt x="963" y="-445" on="1"/>
        <pt x="788" y="-245" on="1"/>
        <pt x="788" y="-62" on="1"/>
        <pt x="990" y="-62" on="1"/>
        <pt x="990" y="-175" on="1"/>
      </contour>
    </TTGlyph>
    <TTGlyph name="equal" xMin="186" yMin="204" xMax="1253" yMax="1000">
      <contour>
        <pt x="186" y="1000" on="1"/>
        <pt x="1253" y="1000" on="1"/>
        <pt x="1253" y="761" on="1"/>
        <pt x="186" y="761" on="1"/>
      </contour>
      <contour>
        <pt x="186" y="442" on="1"/>
        <pt x="1253" y="442" on="1"/>
        <pt x="1253" y="204" on="1"/>
        <pt x="186" y="204" on="1"/>
      </contour>
    </TTGlyph>
    <TTGlyph name="eth" xMin="97" yMin="0" xMax="1248" yMax="1529">
      <contour>
        <pt x="446" y="1178" on="1"/>
        <pt x="608" y="1259" on="1"/>
        <pt x="506" y="1377" on="1"/>
        <pt x="826" y="1529" on="1"/>
        <pt x="933" y="1400" on="1"/>
        <pt x="1117" y="1484" on="1"/>
        <pt x="1205" y="1312" on="1"/>
        <pt x="1054" y="1235" on="1"/>
        <pt x="1245" y="966" on="1"/>
        <pt x="1248" y="265" on="1"/>
        <pt x="982" y="0" on="1"/>
        <pt x="805" y="0" on="1"/>
        <pt x="805" y="962" on="1"/>
        <pt x="708" y="1093" on="1"/>
        <pt x="542" y="1015" on="1"/>
      </contour>
      <contour>
        <pt x="539" y="265" on="1"/>
        <pt x="735" y="265" on="1"/>
        <pt x="735" y="0" on="1"/>
        <pt x="363" y="0" on="1"/>
        <pt x="97" y="265" on="1"/>
        <pt x="97" y="702" on="1"/>
        <pt x="363" y="941" on="1"/>
        <pt x="735" y="941" on="1"/>
        <pt x="735" y="702" on="1"/>
        <pt x="539" y="702" on="1"/>
      </contour>
    </TTGlyph>
    <TTGlyph name="exclam" xMin="142" yMin="0" xMax="612" yMax="1327">
      <contour>
        <pt x="584" y="442" on="1"/>
        <pt x="169" y="442" on="1"/>
        <pt x="142" y="1327" on="1"/>
        <pt x="612" y="1327" on="1"/>
      </contour>
      <contour>
        <pt x="156" y="309" on="1"/>
        <pt x="598" y="309" on="1"/>
        <pt x="598" y="0" on="1"/>
        <pt x="156" y="0" on="1"/>
      </contour>
    </TTGlyph>
    <TTGlyph name="exclamdown" xMin="142" yMin="-104" xMax="612" yMax="1223">
      <contour>
        <pt x="170" y="781" on="1"/>
        <pt x="585" y="781" on="1"/>
        <pt x="612" y="-104" on="1"/>
        <pt x="142" y="-104" on="1"/>
      </contour>
      <contour>
        <pt x="598" y="914" on="1"/>
        <pt x="156" y="914" on="1"/>
        <pt x="156" y="1223" on="1"/>
        <pt x="598" y="1223" on="1"/>
      </contour>
    </TTGlyph>
    <TTGlyph name="f" xMin="38" yMin="0" xMax="906" yMax="1467">
      <contour>
        <pt x="586" y="1202" on="1"/>
        <pt x="586" y="0" on="1"/>
        <pt x="143" y="0" on="1"/>
        <pt x="143" y="797" on="1"/>
        <pt x="38" y="797" on="1"/>
        <pt x="38" y="1062" on="1"/>
        <pt x="143" y="1062" on="1"/>
        <pt x="143" y="1219" on="1"/>
        <pt x="410" y="1467" on="1"/>
        <pt x="906" y="1467" on="1"/>
        <pt x="906" y="1202" on="1"/>
      </contour>
      <contour>
        <pt x="653" y="797" on="1"/>
        <pt x="656" y="1062" on="1"/>
        <pt x="906" y="1062" on="1"/>
        <pt x="906" y="797" on="1"/>
      </contour>
    </TTGlyph>
    <TTGlyph name="ff" xMin="38" yMin="0" xMax="1813" yMax="1467">
      <contour>
        <pt x="1493" y="1202" on="1"/>
        <pt x="1493" y="0" on="1"/>
        <pt x="1050" y="0" on="1"/>
        <pt x="1050" y="797" on="1"/>
        <pt x="653" y="797" on="1"/>
        <pt x="656" y="1062" on="1"/>
        <pt x="1050" y="1062" on="1"/>
        <pt x="1050" y="1219" on="1"/>
        <pt x="1317" y="1467" on="1"/>
        <pt x="1813" y="1467" on="1"/>
        <pt x="1813" y="1202" on="1"/>
      </contour>
      <contour>
        <pt x="586" y="1202" on="1"/>
        <pt x="586" y="0" on="1"/>
        <pt x="143" y="0" on="1"/>
        <pt x="143" y="797" on="1"/>
        <pt x="38" y="797" on="1"/>
        <pt x="38" y="1062" on="1"/>
        <pt x="143" y="1062" on="1"/>
        <pt x="143" y="1219" on="1"/>
        <pt x="410" y="1467" on="1"/>
        <pt x="906" y="1467" on="1"/>
        <pt x="906" y="1202" on="1"/>
      </contour>
      <contour>
        <pt x="1560" y="797" on="1"/>
        <pt x="1563" y="1062" on="1"/>
        <pt x="1813" y="1062" on="1"/>
        <pt x="1813" y="797" on="1"/>
      </contour>
    </TTGlyph>
</ttFont>
